<svg width="167" height="167" viewBox="0 0 167 167" fill="none" xmlns="http://www.w3.org/2000/svg">
<path d="M132.881 99.6585H116.281V66.4563H132.881C139.454 66.4563 145.879 64.5065 151.344 60.8543C156.808 57.202 161.067 52.0125 163.581 45.9394C166.095 39.8663 166.752 33.1835 165.468 26.7372C164.184 20.2909 161.017 14.3688 156.367 9.72277C151.718 5.07674 145.795 1.91477 139.348 0.635499C132.901 -0.643775 126.22 0.0175405 120.149 2.53634C114.078 5.05515 108.89 9.31752 105.242 14.7851C101.594 20.2528 99.6498 26.681 99.6547 33.254V49.8539H66.4532V33.254C66.4582 26.68 64.5131 20.2509 60.864 14.7827C57.2149 9.31452 52.0259 5.05196 45.9535 2.53389C39.8811 0.0158267 33.1982 -0.643359 26.7506 0.637952C20.3029 1.91926 14.3802 5.08404 9.73185 9.73258C5.08351 14.3811 1.91849 20.3039 0.637233 26.7519C-0.644023 33.1998 0.0161305 39.8839 2.53409 45.9566C5.05204 52.0292 9.31465 57.2173 14.7826 60.8665C20.2505 64.5158 26.678 66.4612 33.2517 66.4563H49.8525V99.6585H33.2517C26.6791 99.6535 20.2526 101.6 14.7852 105.248C9.3178 108.896 5.05516 114.082 2.53646 120.153C0.0177676 126.224 -0.643826 132.908 0.635393 139.356C1.91461 145.803 5.07713 151.725 9.72296 156.375C14.3688 161.024 20.2892 164.19 26.7352 165.474C33.1812 166.758 39.8633 166.102 45.9361 163.588C52.0089 161.074 57.1997 156.817 60.8518 151.352C64.5039 145.887 66.4532 139.461 66.4532 132.888V116.285H99.6547V132.888C99.6547 139.46 101.603 145.885 105.254 151.349C108.905 156.814 114.095 161.071 120.166 163.586C126.237 166.101 132.918 166.759 139.364 165.477C145.809 164.195 151.729 161.029 156.376 156.382C161.023 151.735 164.188 145.816 165.47 139.37C166.752 132.925 166.094 126.245 163.579 120.173C161.064 114.101 156.805 108.912 151.341 105.26C145.877 101.609 139.453 99.6585 132.881 99.6585ZM132.881 16.6271C137.176 16.7941 141.239 18.6166 144.218 21.714C147.197 24.8115 148.861 28.944 148.861 33.2417C148.861 37.5395 147.197 41.6695 144.218 44.767C141.239 47.8645 137.176 49.6869 132.881 49.8539H116.281V33.254C116.264 31.0633 116.681 28.891 117.508 26.8623C118.335 24.8336 119.555 22.9893 121.098 21.4344C122.641 19.8795 124.477 18.6441 126.499 17.802C128.522 16.9598 130.691 16.5265 132.881 16.5266V16.6271ZM16.6259 33.254C16.5389 31.0179 16.9042 28.787 17.7 26.6955C18.4957 24.6039 19.7054 22.6941 21.2567 21.0812C22.8079 19.4684 24.6688 18.1854 26.7278 17.309C28.7868 16.4326 31.0014 15.9821 33.2392 15.9821C35.4769 15.9821 37.6916 16.4326 39.7506 17.309C41.8095 18.1854 43.6704 19.4684 45.2217 21.0812C46.773 22.6941 47.9827 24.6039 48.7784 26.6955C49.5742 28.787 49.9395 31.0179 49.8525 33.254V49.8539H33.2517C31.0696 49.8572 28.9082 49.4309 26.8912 48.5981C24.8742 47.7653 23.0412 46.5444 21.497 45.0025C19.9529 43.4605 18.7278 41.6272 17.8919 39.6114C17.0561 37.5956 16.6259 35.4363 16.6259 33.254ZM33.2517 149.49C31.0717 149.49 28.913 149.059 26.8989 148.224C24.8848 147.39 23.0547 146.168 21.5132 144.626C19.9717 143.085 18.7489 141.254 17.9146 139.24C17.0804 137.226 16.651 135.068 16.651 132.888C16.651 130.708 17.0804 128.549 17.9146 126.535C18.7489 124.521 19.9717 122.691 21.5132 121.149C23.0547 119.608 24.8848 118.385 26.8989 117.551C28.913 116.717 31.0717 116.285 33.2517 116.285H49.8525V132.888C49.8525 137.291 48.1035 141.513 44.9902 144.626C41.877 147.74 37.6545 149.49 33.2517 149.49ZM66.4532 99.6585V66.4563H99.6547V99.6585H66.4532ZM132.881 149.49C128.479 149.49 124.256 147.74 121.143 144.626C118.03 141.513 116.281 137.291 116.281 132.888V116.285H132.881C137.284 116.285 141.507 118.036 144.62 121.149C147.733 124.262 149.482 128.485 149.482 132.888C149.482 137.291 147.733 141.513 144.62 144.626C141.507 147.74 137.284 149.49 132.881 149.49Z" fill="white"/>
</svg>
