<svg width="134" height="134" viewBox="0 0 134 134" fill="none" xmlns="http://www.w3.org/2000/svg">
<path d="M134 67C134 29.9969 104.003 0 67 0C29.9969 0 0 29.9969 0 67C0 104.003 29.9969 134 67 134C104.003 134 134 104.003 134 67Z" fill="url(#paint0_linear)"/>
<path d="M88.6656 74.2362H81.443V59.791H88.6656C91.5221 59.7937 94.3152 58.9492 96.6917 57.3645C99.0682 55.7797 100.921 53.5258 102.017 50.8878C103.113 48.2498 103.401 45.3462 102.847 42.5441C102.292 39.742 100.919 37.1673 98.9009 35.1456C96.8829 33.1239 94.3108 31.746 91.5098 31.1861C88.7087 30.6263 85.8045 30.9096 83.1645 32.0002C80.5245 33.0909 78.2671 34.94 76.678 37.3135C75.0888 39.6871 74.2392 42.4786 74.2365 45.3351V52.5711H59.7913V45.3351C59.7913 42.4786 58.9443 39.6863 57.3573 37.3113C55.7703 34.9362 53.5147 33.0851 50.8757 31.992C48.2367 30.8988 45.3328 30.6128 42.5312 31.1701C39.7296 31.7274 37.1562 33.1029 35.1364 35.1227C33.1166 37.1425 31.741 39.7159 31.1838 42.5175C30.6265 45.3191 30.9125 48.223 32.0056 50.862C33.0987 53.501 34.9499 55.7567 37.3249 57.3436C39.7 58.9306 42.4923 59.7776 45.3488 59.7776H52.5848V74.2362H45.3488C42.4923 74.2362 39.7 75.0833 37.3249 76.6702C34.9499 78.2572 33.0987 80.5128 32.0056 83.1518C30.9125 85.7909 30.6265 88.6948 31.1838 91.4963C31.741 94.2979 33.1166 96.8713 35.1364 98.8912C37.1562 100.911 39.7296 102.286 42.5312 102.844C45.3328 103.401 48.2367 103.115 50.8757 102.022C53.5147 100.929 55.7703 99.0777 57.3573 96.7026C58.9443 94.3275 59.7913 91.5352 59.7913 88.6788V81.4428H74.2365V88.6466C74.2365 88.6466 74.2365 88.66 74.2365 88.6654C74.2333 91.5237 75.0782 94.3188 76.6643 96.6967C78.2503 99.0747 80.5062 100.929 83.1463 102.024C85.7865 103.119 88.6923 103.407 91.4959 102.85C94.2995 102.293 96.8748 100.917 98.896 98.8957C100.917 96.8746 102.293 94.2992 102.85 91.4956C103.407 88.692 103.12 85.7862 102.024 83.1461C100.929 80.5059 99.075 78.25 96.697 76.664C94.319 75.0779 91.524 74.2331 88.6656 74.2362ZM88.6656 38.1259C89.6511 38.0658 90.6385 38.2081 91.5669 38.5439C92.4954 38.8797 93.3453 39.402 94.0644 40.0786C94.7834 40.7551 95.3564 41.5717 95.7481 42.478C96.1397 43.3843 96.3418 44.3612 96.3418 45.3485C96.3418 46.3358 96.1397 47.3127 95.7481 48.219C95.3564 49.1253 94.7834 49.9419 94.0644 50.6185C93.3453 51.295 92.4954 51.8173 91.5669 52.1531C90.6385 52.4889 89.6511 52.6312 88.6656 52.5711H81.443V45.3351C81.4466 43.4206 82.2087 41.5856 83.5624 40.2319C84.9161 38.8781 86.7512 38.116 88.6656 38.1125V38.1259ZM38.1128 45.3351C38.2249 43.4956 39.0346 41.7682 40.3768 40.5053C41.719 39.2424 43.4925 38.5393 45.3354 38.5393C47.1783 38.5393 48.9518 39.2424 50.2939 40.5053C51.6361 41.7682 52.4459 43.4956 52.558 45.3351V52.5711H45.322C43.4075 52.564 41.5739 51.7985 40.2227 50.4423C38.8714 49.086 38.1128 47.2496 38.1128 45.3351ZM45.3354 95.888C44.3499 95.948 43.3625 95.8058 42.4341 95.4699C41.5056 95.1341 40.6557 94.6119 39.9367 93.9353C39.2176 93.2587 38.6446 92.4422 38.2529 91.5359C37.8613 90.6295 37.6592 89.6527 37.6592 88.6654C37.6592 87.678 37.8613 86.7012 38.2529 85.7949C38.6446 84.8885 39.2176 84.072 39.9367 83.3954C40.6557 82.7188 41.5056 82.1966 42.4341 81.8608C43.3625 81.5249 44.3499 81.3827 45.3354 81.4428H52.5714V88.6654C52.5678 90.5821 51.8039 92.4192 50.4473 93.7733C49.0906 95.1274 47.2522 95.888 45.3354 95.888ZM59.7779 74.2362V59.791H74.2365V74.2362H59.7779ZM88.6656 95.9014C86.7488 95.8978 84.9118 95.1339 83.5577 93.7772C82.2035 92.4206 81.443 90.5821 81.443 88.6654V81.4428H88.6656C90.5051 81.5549 92.2325 82.3646 93.4954 83.7068C94.7583 85.049 95.4615 86.8224 95.4615 88.6654C95.4615 90.5083 94.7583 92.2817 93.4954 93.6239C92.2325 94.9661 90.5051 95.7759 88.6656 95.888V95.9014Z" fill="white"/>
<defs>
<linearGradient id="paint0_linear" x1="18.1543" y1="7.8926" x2="122.031" y2="133.59" gradientUnits="userSpaceOnUse">
<stop stop-color="#1A5163"/>
<stop offset="1" stop-color="#48BC96"/>
</linearGradient>
</defs>
</svg>
