<svg width="39" height="76" viewBox="0 0 39 76" fill="none" xmlns="http://www.w3.org/2000/svg">
<path d="M1.22219 40.3583H9.52845V74.5537C9.52845 75.2289 10.0755 75.7759 10.7506 75.7759H24.8342C25.5094 75.7759 26.0564 75.2289 26.0564 74.5537V40.5193H35.6051C36.226 40.5193 36.7484 40.0534 36.8193 39.4367L38.2695 26.8477C38.3094 26.5013 38.1996 26.1544 37.9679 25.8946C37.7359 25.6345 37.404 25.4856 37.0556 25.4856H26.0569V17.5942C26.0569 15.2153 27.3378 14.009 29.8643 14.009C30.2243 14.009 37.0556 14.009 37.0556 14.009C37.7308 14.009 38.2778 13.4617 38.2778 12.7868V1.23124C38.2778 0.556097 37.7308 0.00904422 37.0556 0.00904422H27.1449C27.075 0.00562208 26.9198 0 26.691 0C24.9713 0 18.9941 0.337569 14.2725 4.68124C9.04104 9.49472 9.76825 15.2581 9.94204 16.2574V25.4854H1.22219C0.547053 25.4854 0 26.0324 0 26.7076V39.1358C0 39.811 0.547053 40.3583 1.22219 40.3583Z" fill="white"/>
</svg>
