<svg width="108" height="107" viewBox="0 0 108 107" fill="none" xmlns="http://www.w3.org/2000/svg">
<path d="M96.3084 52.1117C96.3084 60.6321 96.3084 66.3784 96.1102 69.5487C95.7139 77.2765 93.5343 83.221 89.1751 87.3821C84.8158 91.5432 79.0695 93.921 71.3417 94.3173C68.1713 94.5154 62.2269 94.5154 53.9047 94.5154C45.3843 94.5154 39.638 94.5154 36.4676 94.3173C28.7399 93.921 22.7954 91.7413 18.6343 87.3821C14.4732 83.221 12.0954 77.2765 11.6991 69.5487C11.501 66.3784 11.501 60.4339 11.501 52.1117C11.501 43.7895 11.501 37.845 11.6991 34.6747C12.0954 26.9469 14.275 21.0025 18.6343 16.8413C22.7954 12.6802 28.7399 10.3025 36.4676 9.90616C39.638 9.70801 45.5825 9.70801 53.9047 9.70801C62.4251 9.70801 68.1713 9.70801 71.3417 9.90616C79.0695 10.3025 85.0139 12.4821 89.1751 16.8413C93.3362 21.2006 95.7139 26.9469 96.1102 34.6747C96.1102 37.845 96.3084 43.5913 96.3084 52.1117ZM58.0658 17.2376C55.4899 17.2376 54.1028 17.2376 53.9047 17.2376C53.7065 17.2376 52.3195 17.2376 49.7436 17.2376C47.1676 17.2376 45.1862 17.2376 43.9973 17.2376C42.6102 17.2376 40.8269 17.2376 38.6473 17.4358C36.4676 17.4358 34.4862 17.6339 32.901 18.0302C31.3158 18.2284 29.9288 18.6247 28.938 19.021C27.1547 19.8136 25.5695 20.8043 23.9843 22.1913C22.5973 23.5784 21.6065 25.1636 20.8139 27.145C20.4176 28.1358 20.0213 29.5228 19.8232 31.108C19.6251 32.6932 19.4269 34.4765 19.2288 36.8543C19.2288 39.0339 19.0306 40.8173 19.0306 42.2043C19.0306 43.5913 19.0306 45.5728 19.0306 47.9506C19.0306 50.5265 19.0306 51.9136 19.0306 52.1117C19.0306 52.3099 19.0306 53.6969 19.0306 56.2728C19.0306 58.8487 19.0306 60.8302 19.0306 62.0191C19.0306 63.4062 19.0306 65.1895 19.2288 67.3691C19.2288 69.5487 19.4269 71.5302 19.8232 73.1154C20.2195 74.7006 20.4176 76.0876 20.8139 77.0784C21.6065 78.8617 22.5973 80.4469 23.9843 82.0321C25.3713 83.4191 26.9565 84.4099 28.938 85.2024C29.9288 85.5987 31.3158 85.995 32.901 86.1932C34.4862 86.3913 36.2695 86.5895 38.6473 86.7876C41.025 86.9858 42.6102 86.9858 43.9973 86.9858C45.3843 86.9858 47.3658 86.9858 49.7436 86.9858C52.3195 86.9858 53.7065 86.9858 53.9047 86.9858C54.1028 86.9858 55.4899 86.9858 58.0658 86.9858C60.6417 86.9858 62.6232 86.9858 63.8121 86.9858C65.1991 86.9858 66.9825 86.9858 69.1621 86.7876C71.3417 86.7876 73.3232 86.5895 74.9084 86.1932C76.4936 85.995 77.8806 85.5987 78.8713 85.2024C80.6547 84.4099 82.2399 83.4191 83.825 82.0321C85.2121 80.645 86.2028 79.0599 86.9954 77.0784C87.3917 76.0876 87.788 74.7006 87.9862 73.1154C88.1843 71.5302 88.3825 69.7469 88.5806 67.3691C88.5806 65.1895 88.7788 63.4062 88.7788 62.0191C88.7788 60.6321 88.7788 58.6506 88.7788 56.2728C88.7788 53.6969 88.7788 52.3099 88.7788 52.1117C88.7788 51.9136 88.7788 50.5265 88.7788 47.9506C88.7788 45.3747 88.7788 43.3932 88.7788 42.2043C88.7788 40.8173 88.7788 39.0339 88.5806 36.8543C88.5806 34.6747 88.3825 32.6932 87.9862 31.108C87.788 29.5228 87.3917 28.1358 86.9954 27.145C86.2028 25.3617 85.2121 23.7765 83.825 22.1913C82.438 20.8043 80.8528 19.8136 78.8713 19.021C77.8806 18.6247 76.4936 18.2284 74.9084 18.0302C73.3232 17.8321 71.5399 17.6339 69.1621 17.4358C66.9825 17.4358 65.1991 17.2376 63.8121 17.2376C62.6232 17.2376 60.6417 17.2376 58.0658 17.2376ZM69.1621 36.6562C73.3232 40.8173 75.5028 45.9691 75.5028 52.1117C75.5028 58.2543 73.3232 63.208 69.1621 67.5673C65.001 71.7284 59.8491 73.908 53.7065 73.908C47.5639 73.908 42.6102 71.7284 38.251 67.5673C34.0899 63.4062 31.9102 58.2543 31.9102 52.1117C31.9102 45.9691 34.0899 41.0154 38.251 36.6562C42.4121 32.495 47.5639 30.3154 53.7065 30.3154C59.8491 30.3154 65.001 32.2969 69.1621 36.6562ZM63.8121 62.0191C66.5862 59.245 67.9732 55.8765 67.9732 52.1117C67.9732 48.3469 66.5862 44.7802 63.8121 42.0062C61.038 39.2321 57.6695 37.845 53.7065 37.845C49.7436 37.845 46.3751 39.2321 43.601 42.0062C40.8269 44.7802 39.4399 48.1487 39.4399 52.1117C39.4399 56.0747 40.8269 59.4432 43.601 62.0191C46.3751 64.7932 49.7436 66.1802 53.7065 66.1802C57.6695 66.1802 61.038 64.7932 63.8121 62.0191ZM80.0602 25.758C81.051 26.7487 81.6454 27.9376 81.6454 29.3247C81.6454 30.7117 81.051 31.9006 80.0602 32.8913C79.0695 33.8821 77.8806 34.4765 76.4936 34.4765C75.1065 34.4765 73.9176 33.8821 72.9269 32.8913C71.9362 31.9006 71.3417 30.7117 71.3417 29.3247C71.3417 27.9376 71.9362 26.7487 72.9269 25.758C73.9176 24.7673 75.1065 24.1728 76.4936 24.1728C77.8806 24.1728 79.0695 24.7673 80.0602 25.758Z" fill="white"/>
</svg>
