<svg width="3428" height="2009" viewBox="0 0 3428 2009" fill="none" xmlns="http://www.w3.org/2000/svg">
<path d="M13 1987L3414.5 22" stroke="#386997" stroke-width="50"/>
<circle cx="1230.51" cy="1285.72" r="48.4713" fill="white" stroke="#386997" stroke-width="18.5005"/>
<circle cx="3215.51" cy="130.722" r="48.4713" fill="white" stroke="#386997" stroke-width="18.5005"/>
<g filter="url(#filter0_d)">
<path fill-rule="evenodd" clip-rule="evenodd" d="M1740.21 764.386L1917.72 987.271C1917.72 987.271 1924.69 919.454 1867.85 858.398C1812.69 798.611 1740.21 764.386 1740.21 764.386Z" fill="#848484"/>
<path fill-rule="evenodd" clip-rule="evenodd" d="M1824.32 834.445C1824.32 834.445 1871.23 859.585 1889.62 885.993C1907.8 911.979 1918.58 954.021 1917.73 987.401L1462.1 1249.37V1043.81L1824.32 834.445Z" fill="#A5A5A5"/>
<path fill-rule="evenodd" clip-rule="evenodd" d="M1308.55 954.941V1160.5L1463.03 1249.66V1044.09C1463.03 1044.09 1417.18 995.926 1385.9 977.546C1354.41 958.955 1308.55 954.941 1308.55 954.941Z" fill="#4C4C4C"/>
<path fill-rule="evenodd" clip-rule="evenodd" d="M1463.23 1190.29L1463.44 1249.66L1917.81 987.478C1918.65 971.634 1916.75 953.675 1910.83 932.126L1463.23 1190.29Z" fill="#2A68B3"/>
<path fill-rule="evenodd" clip-rule="evenodd" d="M1463.32 1249.65L1463.11 1220.07L1712.05 1077.68C1769.11 1044.72 1840.75 1033.1 1840.75 1033.1L1463.32 1249.65Z" fill="#E5E5E5"/>
<path fill-rule="evenodd" clip-rule="evenodd" d="M1463.23 1190.29V1184.59L1909.14 927.055L1910.83 932.125L1463.23 1190.29Z" fill="#FFE04C"/>
<path fill-rule="evenodd" clip-rule="evenodd" d="M1485.46 1072.86C1485.46 1070.12 1486.94 1067.79 1489.27 1066.53C1501.96 1059.13 1544.22 1034.84 1564.5 1023.01C1566.83 1021.74 1569.58 1021.74 1571.9 1023.01C1574.22 1024.27 1575.7 1026.81 1575.7 1029.34C1575.7 1049.63 1575.7 1088.5 1575.7 1101.38C1575.7 1104.13 1574.22 1106.45 1571.9 1107.72C1559.22 1115.12 1516.96 1139.41 1496.67 1151.24C1494.35 1152.51 1491.6 1152.51 1489.27 1151.24C1486.94 1149.98 1485.46 1147.44 1485.46 1144.91C1485.46 1124.41 1485.46 1085.75 1485.46 1072.86Z" fill="#4C4C4C" stroke="black" stroke-width="0.7031" stroke-miterlimit="1.0547" stroke-linejoin="round"/>
<path fill-rule="evenodd" clip-rule="evenodd" d="M1601.07 1006.19C1601.07 1003.45 1602.54 1001.12 1604.87 999.854C1608.25 997.741 1613.74 994.784 1618.6 991.826C1620.93 990.559 1623.68 990.559 1626 991.826C1628.32 993.094 1629.8 995.629 1629.8 998.164C1629.8 1018.45 1629.8 1057.32 1629.8 1070.21C1629.8 1072.95 1628.32 1075.28 1626 1076.54C1622.62 1078.66 1617.12 1081.61 1612.26 1084.57C1609.94 1085.84 1607.19 1085.84 1604.87 1084.57C1602.54 1083.3 1601.07 1080.77 1601.07 1078.23C1601.07 1057.74 1601.07 1019.08 1601.07 1006.19Z" fill="#4C4C4C" stroke="black" stroke-width="0.7031" stroke-miterlimit="1.0547" stroke-linejoin="round"/>
<path fill-rule="evenodd" clip-rule="evenodd" d="M1656.47 974.193C1656.47 971.446 1657.95 969.122 1660.28 967.854C1663.66 965.742 1669.15 962.784 1674.01 959.826C1676.34 958.559 1679.08 958.559 1681.41 959.826C1683.73 961.094 1685.21 963.629 1685.21 966.165C1685.21 986.446 1685.21 1025.32 1685.21 1038.21C1685.21 1040.95 1683.73 1043.28 1681.41 1044.54C1678.03 1046.66 1672.53 1049.61 1667.67 1052.57C1665.35 1053.84 1662.6 1053.84 1660.28 1052.57C1657.95 1051.3 1656.47 1048.77 1656.47 1046.23C1656.47 1025.74 1656.47 987.08 1656.47 974.193Z" fill="#4C4C4C" stroke="black" stroke-width="0.7031" stroke-miterlimit="1.0547" stroke-linejoin="round"/>
<path fill-rule="evenodd" clip-rule="evenodd" d="M1710.81 942.971C1710.81 940.225 1712.29 937.901 1714.61 936.633C1727.29 929.239 1769.57 904.943 1789.85 893.112C1792.18 891.845 1794.92 891.845 1797.25 893.112C1799.57 894.38 1801.05 896.915 1801.05 899.45C1801.05 919.731 1801.05 958.605 1801.05 971.492C1801.05 974.238 1799.57 976.562 1797.25 977.83C1784.57 985.224 1742.3 1009.52 1722.01 1021.35C1719.69 1022.62 1716.94 1022.62 1714.61 1021.35C1712.29 1020.08 1710.81 1017.55 1710.81 1015.01C1710.81 994.519 1710.81 955.858 1710.81 942.971Z" fill="#4C4C4C" stroke="black" stroke-width="0.7031" stroke-miterlimit="1.0547" stroke-linejoin="round"/>
<path fill-rule="evenodd" clip-rule="evenodd" d="M1463.04 1044.09C1463.04 1044.09 1417.18 995.926 1385.91 977.546C1354.41 958.955 1308.77 955.153 1308.77 955.153L1671.2 746C1671.2 746 1717.07 750.014 1748.34 768.394C1779.83 786.985 1825.48 834.943 1825.48 834.943L1463.04 1044.09Z" fill="#E5E5E5"/>
<path fill-rule="evenodd" clip-rule="evenodd" d="M1453.17 1049.73V1255.29L1090.74 1464.45V1258.89L1453.17 1049.73Z" fill="#A5A5A5"/>
<path fill-rule="evenodd" clip-rule="evenodd" d="M936.464 1169.73V1375.29L1090.95 1464.45V1258.89C1090.95 1258.89 1045.09 1210.72 1013.81 1192.34C982.111 1173.75 936.464 1169.73 936.464 1169.73Z" fill="#4C4C4C"/>
<path fill-rule="evenodd" clip-rule="evenodd" d="M1090.93 1405.08L1091.14 1464.45L1453.16 1255.5C1453.16 1255.5 1453.58 1195.5 1453.16 1196.14C1452.73 1196.56 1090.93 1405.08 1090.93 1405.08Z" fill="#2A68B3"/>
<path fill-rule="evenodd" clip-rule="evenodd" d="M1091.23 1464.44L1091.02 1434.87L1453.46 1225.92V1255.71L1091.23 1464.44Z" fill="#E5E5E5"/>
<path fill-rule="evenodd" clip-rule="evenodd" d="M1090.93 1405.08V1399.38L1453.37 1190.22V1196.14L1090.93 1405.08Z" fill="#FFE04C"/>
<path fill-rule="evenodd" clip-rule="evenodd" d="M1113.38 1287.66C1113.38 1284.91 1114.86 1282.59 1117.19 1281.32C1129.87 1273.93 1172.13 1249.63 1192.42 1237.8C1194.75 1236.53 1197.49 1236.53 1199.82 1237.8C1202.14 1239.07 1203.62 1241.6 1203.62 1244.14C1203.62 1264.42 1203.62 1303.29 1203.62 1316.18C1203.62 1318.93 1202.14 1321.25 1199.82 1322.52C1187.14 1329.91 1144.87 1354.21 1124.58 1366.04C1122.26 1367.3 1119.51 1367.3 1117.19 1366.04C1114.86 1364.77 1113.38 1362.23 1113.38 1359.7C1113.38 1339.21 1113.38 1300.54 1113.38 1287.66Z" fill="#4C4C4C" stroke="black" stroke-width="0.7031" stroke-miterlimit="1.0547" stroke-linejoin="round"/>
<path fill-rule="evenodd" clip-rule="evenodd" d="M1228.76 1220.98C1228.76 1218.23 1230.24 1215.91 1232.56 1214.64C1235.94 1212.53 1241.45 1209.57 1246.31 1206.62C1248.63 1205.35 1251.38 1205.35 1253.7 1206.62C1256.03 1207.88 1257.51 1210.42 1257.51 1212.95C1257.51 1233.24 1257.51 1272.11 1257.51 1284.99C1257.51 1287.74 1256.03 1290.06 1253.7 1291.33C1250.32 1293.45 1244.83 1296.4 1239.96 1299.36C1237.63 1300.63 1234.88 1300.63 1232.56 1299.36C1230.24 1298.09 1228.76 1295.56 1228.76 1293.02C1228.76 1272.53 1228.76 1233.87 1228.76 1220.98Z" fill="#4C4C4C" stroke="black" stroke-width="0.7031" stroke-miterlimit="1.0547" stroke-linejoin="round"/>
<path fill-rule="evenodd" clip-rule="evenodd" d="M1284.39 1188.98C1284.39 1186.24 1285.87 1183.91 1288.19 1182.64C1291.57 1180.53 1297.07 1177.57 1301.93 1174.62C1304.25 1173.35 1307 1173.35 1309.32 1174.62C1311.65 1175.88 1313.13 1178.42 1313.13 1180.95C1313.13 1201.23 1313.13 1240.11 1313.13 1253C1313.13 1255.74 1311.65 1258.07 1309.32 1259.33C1305.94 1261.45 1300.45 1264.4 1295.59 1267.36C1293.26 1268.63 1290.51 1268.63 1288.19 1267.36C1285.87 1266.09 1284.39 1263.56 1284.39 1261.02C1284.39 1240.53 1284.39 1201.87 1284.39 1188.98Z" fill="#4C4C4C" stroke="black" stroke-width="0.7031" stroke-miterlimit="1.0547" stroke-linejoin="round"/>
<path fill-rule="evenodd" clip-rule="evenodd" d="M1338.51 1157.76C1338.51 1155.01 1339.99 1152.69 1342.31 1151.42C1354.99 1144.03 1397.26 1119.73 1417.54 1107.9C1419.87 1106.63 1422.62 1106.63 1424.95 1107.9C1427.27 1109.17 1428.75 1111.7 1428.75 1114.24C1428.75 1134.52 1428.75 1173.39 1428.75 1186.28C1428.75 1189.03 1427.27 1191.35 1424.95 1192.62C1412.26 1200.01 1370 1224.31 1349.71 1236.14C1347.39 1237.41 1344.64 1237.41 1342.31 1236.14C1339.99 1234.87 1338.51 1232.34 1338.51 1229.8C1338.51 1209.31 1338.51 1170.65 1338.51 1157.76Z" fill="#4C4C4C" stroke="black" stroke-width="0.7031" stroke-miterlimit="1.0547" stroke-linejoin="round"/>
<path fill-rule="evenodd" clip-rule="evenodd" d="M1090.74 1258.88C1090.74 1258.88 1044.88 1210.72 1013.6 1192.34C982.111 1173.74 936.464 1169.94 936.464 1169.94L1298.9 960.789C1298.9 960.789 1344.75 964.803 1376.04 983.183C1407.52 1001.77 1453.17 1049.73 1453.17 1049.73L1090.74 1258.88Z" fill="#E5E5E5"/>
<path fill-rule="evenodd" clip-rule="evenodd" d="M1082.54 1263.91V1469.47L720.104 1678.62V1473.06L1082.54 1263.91Z" fill="#A5A5A5"/>
<path fill-rule="evenodd" clip-rule="evenodd" d="M565.626 1383.9V1589.46L720.109 1678.61V1473.05C720.109 1473.05 674.25 1424.89 642.973 1406.51C611.485 1387.7 565.626 1383.9 565.626 1383.9Z" fill="#4C4C4C"/>
<path fill-rule="evenodd" clip-rule="evenodd" d="M720.299 1619.04L720.51 1678.4L1082.52 1469.46C1082.52 1469.46 1082.94 1409.46 1082.52 1410.09C1082.1 1410.52 720.299 1619.04 720.299 1619.04Z" fill="#2A68B3"/>
<path fill-rule="evenodd" clip-rule="evenodd" d="M720.389 1678.4L720.178 1648.82L1082.61 1439.88V1469.67L720.389 1678.4Z" fill="#E5E5E5"/>
<path fill-rule="evenodd" clip-rule="evenodd" d="M720.299 1619.04V1613.34L1082.73 1404.19V1410.1L720.299 1619.04Z" fill="#FFE04C"/>
<path fill-rule="evenodd" clip-rule="evenodd" d="M742.75 1501.62C742.75 1498.87 744.229 1496.55 746.553 1495.28C759.233 1487.89 801.5 1463.59 821.788 1451.76C824.112 1450.49 826.859 1450.49 829.184 1451.76C831.508 1453.03 832.989 1455.56 832.989 1458.1C832.989 1478.38 832.989 1517.25 832.989 1530.14C832.989 1532.89 831.508 1535.21 829.184 1536.48C816.504 1543.87 774.237 1568.17 753.949 1580C751.625 1581.27 748.878 1581.27 746.553 1580C744.229 1578.73 742.75 1576.19 742.75 1573.66C742.75 1553.17 742.75 1514.51 742.75 1501.62Z" fill="#4C4C4C" stroke="black" stroke-width="0.7031" stroke-miterlimit="1.0547" stroke-linejoin="round"/>
<path fill-rule="evenodd" clip-rule="evenodd" d="M858.127 1434.95C858.127 1432.2 859.606 1429.88 861.931 1428.61C865.313 1426.5 870.807 1423.54 875.668 1420.58C877.992 1419.31 880.739 1419.31 883.064 1420.58C885.389 1421.85 886.869 1424.38 886.869 1426.92C886.869 1447.2 886.869 1486.07 886.869 1498.96C886.869 1501.71 885.389 1504.03 883.064 1505.3C879.683 1507.41 874.189 1510.37 869.328 1513.33C867.003 1514.59 864.256 1514.59 861.931 1513.33C859.606 1512.06 858.127 1509.52 858.127 1506.99C858.127 1486.71 858.127 1447.83 858.127 1434.95Z" fill="#4C4C4C" stroke="black" stroke-width="0.7031" stroke-miterlimit="1.0547" stroke-linejoin="round"/>
<path fill-rule="evenodd" clip-rule="evenodd" d="M913.544 1402.95C913.544 1400.2 915.024 1397.88 917.348 1396.61C920.729 1394.5 926.224 1391.54 931.084 1388.58C933.409 1387.31 936.157 1387.31 938.481 1388.58C940.806 1389.85 942.285 1392.38 942.285 1394.92C942.285 1415.2 942.285 1454.07 942.285 1466.96C942.285 1469.71 940.806 1472.03 938.481 1473.3C935.1 1475.41 929.605 1478.37 924.745 1481.33C922.419 1482.59 919.672 1482.59 917.348 1481.33C915.024 1480.06 913.544 1477.52 913.544 1474.99C913.544 1454.71 913.544 1415.83 913.544 1402.95Z" fill="#4C4C4C" stroke="black" stroke-width="0.7031" stroke-miterlimit="1.0547" stroke-linejoin="round"/>
<path fill-rule="evenodd" clip-rule="evenodd" d="M967.882 1371.72C967.882 1368.97 969.361 1366.65 971.685 1365.38C984.365 1357.98 1026.63 1333.69 1046.92 1321.86C1049.24 1320.59 1051.99 1320.59 1054.32 1321.86C1056.64 1323.13 1058.12 1325.66 1058.12 1328.2C1058.12 1348.48 1058.12 1387.35 1058.12 1400.24C1058.12 1402.98 1056.64 1405.31 1054.32 1406.58C1041.64 1413.97 999.37 1438.27 979.082 1450.1C976.758 1451.36 974.011 1451.36 971.685 1450.1C969.361 1448.83 967.882 1446.29 967.882 1443.76C967.882 1423.27 967.882 1384.6 967.882 1371.72Z" fill="#4C4C4C" stroke="black" stroke-width="0.7031" stroke-miterlimit="1.0547" stroke-linejoin="round"/>
<path fill-rule="evenodd" clip-rule="evenodd" d="M720.106 1472.84C720.106 1472.84 674.247 1424.67 642.969 1406.29C611.482 1387.7 565.834 1383.9 565.834 1383.9L928.268 1174.75C928.268 1174.75 974.127 1178.76 1005.4 1197.14C1036.89 1215.73 1082.54 1263.69 1082.54 1263.69L720.106 1472.84Z" fill="#E5E5E5"/>
<path fill-rule="evenodd" clip-rule="evenodd" d="M708.057 1481.21V1686.77L268.487 1940.49C268.487 1940.49 269.121 1831.06 290.677 1775.08C314.557 1712.75 345.835 1690.36 345.835 1690.36L708.057 1481.21Z" fill="#A5A5A5"/>
<path fill-rule="evenodd" clip-rule="evenodd" d="M345.624 1690.35C345.624 1690.35 299.765 1642.19 268.488 1623.81C237 1605.21 191.352 1601.41 191.352 1601.41L553.786 1392.26C553.786 1392.26 599.645 1396.27 630.923 1414.65C662.2 1433.03 708.059 1481.2 708.059 1481.2L345.624 1690.35Z" fill="#E5E5E5"/>
<path fill-rule="evenodd" clip-rule="evenodd" d="M268.484 1940.49C268.484 1940.49 269.118 1831.05 290.674 1775.07C314.554 1712.75 345.832 1690.35 345.832 1690.35C345.832 1690.35 299.972 1642.18 268.695 1623.8C237.207 1605.21 191.559 1601.41 191.559 1601.41C191.559 1601.41 160.07 1623.59 136.19 1685.91C114.634 1741.9 114 1851.34 114 1851.34L268.484 1940.49Z" fill="#848484"/>
<path fill-rule="evenodd" clip-rule="evenodd" d="M271.868 1873.94L271.446 1879.44L271.868 1873.94L708.058 1621.9V1628.24L271.446 1879.65" fill="#FFE04C"/>
<path fill-rule="evenodd" clip-rule="evenodd" d="M271.445 1878.86L272.079 1873.57L258.131 1865.33L117.807 1783.15L117.384 1789.49L271.445 1878.86Z" fill="#FFD81E"/>
<path fill-rule="evenodd" clip-rule="evenodd" d="M268.487 1940.49C268.487 1940.49 268.698 1913.45 271.445 1879.44C271.445 1878.39 708.057 1628.25 708.057 1628.25V1686.77L268.487 1940.49Z" fill="#2867B2"/>
<path fill-rule="evenodd" clip-rule="evenodd" d="M268.484 1940.49C268.484 1940.49 268.695 1913.24 271.442 1878.81C271.442 1878.6 117.17 1789.23 117.17 1789.65C114.423 1824.09 114 1851.34 114 1851.34L268.484 1940.49Z" fill="#0C4F9D"/>
<path fill-rule="evenodd" clip-rule="evenodd" d="M358.515 1888.52C358.515 1888.52 427.621 1819.44 512.998 1769.79C598.166 1719.93 708.058 1657.19 708.058 1657.19V1686.97L358.515 1888.52Z" fill="#E5E5E5"/>
<path fill-rule="evenodd" clip-rule="evenodd" d="M377.873 1713.58C377.873 1710.84 379.352 1708.51 381.676 1707.25C394.356 1699.85 436.623 1675.56 456.911 1663.72C459.235 1662.46 461.982 1662.46 464.307 1663.72C466.631 1664.99 468.112 1667.53 468.112 1670.06C468.112 1690.34 468.112 1729.22 468.112 1742.1C468.112 1744.85 466.631 1747.17 464.307 1748.44C451.627 1755.84 409.36 1780.13 389.073 1791.96C386.748 1793.23 384.001 1793.23 381.676 1791.96C379.352 1790.69 377.873 1788.16 377.873 1785.62C377.873 1765.13 377.873 1726.47 377.873 1713.58Z" fill="#4B4B4B" stroke="black" stroke-width="0.7031" stroke-miterlimit="1.0547" stroke-linejoin="round"/>
<path fill-rule="evenodd" clip-rule="evenodd" d="M493.254 1646.92C493.254 1644.17 494.733 1641.85 497.059 1640.58C500.44 1638.47 505.934 1635.51 510.795 1632.55C513.12 1631.28 515.867 1631.28 518.191 1632.55C520.517 1633.82 521.996 1636.35 521.996 1638.89C521.996 1659.17 521.996 1698.04 521.996 1710.93C521.996 1713.68 520.517 1716 518.191 1717.27C514.81 1719.38 509.316 1722.34 504.455 1725.3C502.13 1726.56 499.383 1726.56 497.059 1725.3C494.733 1724.03 493.254 1721.49 493.254 1718.96C493.254 1698.46 493.254 1659.8 493.254 1646.92Z" fill="#4B4B4B" stroke="black" stroke-width="0.7031" stroke-miterlimit="1.0547" stroke-linejoin="round"/>
<path fill-rule="evenodd" clip-rule="evenodd" d="M548.672 1614.91C548.672 1612.17 550.151 1609.84 552.475 1608.57C555.856 1606.46 561.351 1603.5 566.212 1600.55C568.536 1599.28 571.284 1599.28 573.609 1600.55C575.933 1601.81 577.412 1604.35 577.412 1606.88C577.412 1627.17 577.412 1666.04 577.412 1678.93C577.412 1681.67 575.933 1684 573.609 1685.26C570.228 1687.38 564.732 1690.33 559.872 1693.29C557.548 1694.56 554.8 1694.56 552.475 1693.29C550.151 1692.02 548.672 1689.49 548.672 1686.95C548.672 1666.46 548.672 1627.8 548.672 1614.91Z" fill="#4B4B4B" stroke="black" stroke-width="0.7031" stroke-miterlimit="1.0547" stroke-linejoin="round"/>
<path fill-rule="evenodd" clip-rule="evenodd" d="M603.008 1583.47C603.008 1580.73 604.487 1578.4 606.811 1577.14C619.492 1569.74 661.758 1545.45 682.046 1533.62C684.37 1532.35 687.118 1532.35 689.443 1533.62C691.767 1534.88 693.246 1537.42 693.246 1539.95C693.246 1560.23 693.246 1599.11 693.246 1611.99C693.246 1614.74 691.767 1617.06 689.443 1618.33C675.071 1626.78 624.564 1655.94 624.564 1655.94C624.564 1655.94 619.281 1658.9 613.997 1662.06C611.672 1663.33 608.925 1663.33 606.6 1662.06C604.275 1660.8 602.796 1658.26 602.796 1655.73C603.008 1635.23 603.008 1596.36 603.008 1583.47Z" fill="#4B4B4B" stroke="black" stroke-width="0.7031" stroke-miterlimit="1.0547" stroke-linejoin="round"/>
<path fill-rule="evenodd" clip-rule="evenodd" d="M235.833 1825.8C239.003 1798.97 244.075 1771.51 252.105 1751.01C255.064 1742.99 258.233 1735.8 261.616 1729.04C261.616 1729.04 184.479 1684.25 184.268 1684.47C181.098 1691.23 177.717 1698.83 174.758 1706.65C166.939 1727.14 161.867 1754.61 158.485 1781.44C158.274 1781.86 235.833 1825.8 235.833 1825.8Z" fill="#282828" stroke="black" stroke-width="0.7031" stroke-miterlimit="1.0547" stroke-linejoin="round"/>
<path fill-rule="evenodd" clip-rule="evenodd" d="M235.838 1825.8C239.008 1798.97 244.079 1771.51 252.11 1751.02C255.068 1742.99 258.239 1735.8 261.62 1729.04C261.62 1729.04 191.88 1688.69 191.669 1688.9C188.499 1695.66 185.118 1703.27 182.159 1711.09C174.34 1731.58 169.268 1759.04 165.887 1785.87C165.675 1786.09 235.838 1825.8 235.838 1825.8Z" fill="#4B4B4B" stroke="black" stroke-width="0.7031" stroke-miterlimit="1.0547" stroke-linejoin="round"/>
<path fill-rule="evenodd" clip-rule="evenodd" d="M191.352 1669.6L268.488 1714.18L276.518 1698.76L199.382 1654.18L191.352 1669.6Z" fill="#1B1B1B" stroke="black" stroke-width="0.7031" stroke-miterlimit="1.0547" stroke-linejoin="round"/>
<path fill-rule="evenodd" clip-rule="evenodd" d="M218.666 1891.27V1863.18L247.618 1879.86V1907.96L218.666 1891.27Z" fill="white"/>
<path fill-rule="evenodd" clip-rule="evenodd" d="M134.893 1843.05V1814.95L163.846 1831.64V1859.73L134.893 1843.05Z" fill="white"/>
</g>
<defs>
<filter id="filter0_d" x="104" y="740" width="1824" height="1214.49" filterUnits="userSpaceOnUse" color-interpolation-filters="sRGB">
<feFlood flood-opacity="0" result="BackgroundImageFix"/>
<feColorMatrix in="SourceAlpha" type="matrix" values="0 0 0 0 0 0 0 0 0 0 0 0 0 0 0 0 0 0 127 0"/>
<feOffset dy="4"/>
<feGaussianBlur stdDeviation="5"/>
<feColorMatrix type="matrix" values="0 0 0 0 0 0 0 0 0 0 0 0 0 0 0 0 0 0 0.25 0"/>
<feBlend mode="normal" in2="BackgroundImageFix" result="effect1_dropShadow"/>
<feBlend mode="normal" in="SourceGraphic" in2="effect1_dropShadow" result="shape"/>
</filter>
</defs>
</svg>
