<svg width="1824" height="1215" viewBox="0 0 1824 1215" fill="none" xmlns="http://www.w3.org/2000/svg">
<g filter="url(#filter0_d)">
<path fill-rule="evenodd" clip-rule="evenodd" d="M1636.21 24.3848L1813.72 247.27C1813.72 247.27 1820.69 179.453 1763.85 118.397C1708.69 58.6097 1636.21 24.3848 1636.21 24.3848Z" fill="#848484"/>
<path fill-rule="evenodd" clip-rule="evenodd" d="M1720.32 94.4453C1720.32 94.4453 1767.23 119.586 1785.62 145.994C1803.8 171.979 1814.58 214.022 1813.73 247.401L1358.1 509.37V303.809L1720.32 94.4453Z" fill="#A5A5A5"/>
<path fill-rule="evenodd" clip-rule="evenodd" d="M1204.55 214.941V420.502L1359.03 509.656V304.095C1359.03 304.095 1313.18 255.926 1281.9 237.546C1250.41 218.955 1204.55 214.941 1204.55 214.941Z" fill="#4C4C4C"/>
<path fill-rule="evenodd" clip-rule="evenodd" d="M1359.23 450.293L1359.44 509.659L1813.81 247.479C1814.65 231.635 1812.75 213.676 1806.83 192.127L1359.23 450.293Z" fill="#2A68B3"/>
<path fill-rule="evenodd" clip-rule="evenodd" d="M1359.32 509.65L1359.11 480.072L1608.05 337.68C1665.11 304.722 1736.75 293.104 1736.75 293.104L1359.32 509.65Z" fill="#E5E5E5"/>
<path fill-rule="evenodd" clip-rule="evenodd" d="M1359.23 450.291V444.587L1805.14 187.055L1806.83 192.125L1359.23 450.291Z" fill="#FFE04C"/>
<path fill-rule="evenodd" clip-rule="evenodd" d="M1381.46 332.864C1381.46 330.118 1382.94 327.794 1385.27 326.526C1397.96 319.132 1440.22 294.836 1460.5 283.006C1462.83 281.738 1465.58 281.738 1467.9 283.006C1470.22 284.273 1471.7 286.808 1471.7 289.344C1471.7 309.625 1471.7 348.498 1471.7 361.385C1471.7 364.131 1470.22 366.455 1467.9 367.723C1455.22 375.117 1412.96 399.413 1392.67 411.244C1390.35 412.511 1387.6 412.511 1385.27 411.244C1382.94 409.976 1381.46 407.441 1381.46 404.906C1381.46 384.413 1381.46 345.751 1381.46 332.864Z" fill="#4C4C4C" stroke="black" stroke-width="0.7031" stroke-miterlimit="1.0547" stroke-linejoin="round"/>
<path fill-rule="evenodd" clip-rule="evenodd" d="M1497.07 266.192C1497.07 263.445 1498.54 261.121 1500.87 259.853C1504.25 257.741 1509.74 254.783 1514.6 251.825C1516.93 250.558 1519.68 250.558 1522 251.825C1524.32 253.093 1525.8 255.629 1525.8 258.164C1525.8 278.445 1525.8 317.318 1525.8 330.205C1525.8 332.952 1524.32 335.275 1522 336.544C1518.62 338.656 1513.13 341.614 1508.26 344.572C1505.94 345.839 1503.19 345.839 1500.87 344.572C1498.54 343.304 1497.07 340.768 1497.07 338.233C1497.07 317.741 1497.07 279.079 1497.07 266.192Z" fill="#4C4C4C" stroke="black" stroke-width="0.7031" stroke-miterlimit="1.0547" stroke-linejoin="round"/>
<path fill-rule="evenodd" clip-rule="evenodd" d="M1552.47 234.194C1552.47 231.447 1553.95 229.123 1556.28 227.855C1559.66 225.743 1565.15 222.785 1570.01 219.827C1572.34 218.56 1575.08 218.56 1577.41 219.827C1579.73 221.095 1581.21 223.63 1581.21 226.166C1581.21 246.447 1581.21 285.32 1581.21 298.207C1581.21 300.954 1579.73 303.277 1577.41 304.544C1574.03 306.658 1568.53 309.615 1563.67 312.573C1561.35 313.841 1558.6 313.841 1556.28 312.573C1553.95 311.306 1552.47 308.77 1552.47 306.235C1552.47 285.742 1552.47 247.081 1552.47 234.194Z" fill="#4C4C4C" stroke="black" stroke-width="0.7031" stroke-miterlimit="1.0547" stroke-linejoin="round"/>
<path fill-rule="evenodd" clip-rule="evenodd" d="M1606.81 202.972C1606.81 200.225 1608.29 197.902 1610.62 196.633C1623.29 189.239 1665.57 164.944 1685.85 153.112C1688.18 151.845 1690.92 151.845 1693.25 153.112C1695.57 154.38 1697.05 156.916 1697.05 159.451C1697.05 179.732 1697.05 218.605 1697.05 231.492C1697.05 234.239 1695.57 236.563 1693.25 237.831C1680.57 245.225 1638.3 269.52 1618.01 281.351C1615.69 282.619 1612.94 282.619 1610.62 281.351C1608.29 280.084 1606.81 277.549 1606.81 275.013C1606.81 254.52 1606.81 215.859 1606.81 202.972Z" fill="#4C4C4C" stroke="black" stroke-width="0.7031" stroke-miterlimit="1.0547" stroke-linejoin="round"/>
<path fill-rule="evenodd" clip-rule="evenodd" d="M1359.04 304.095C1359.04 304.095 1313.18 255.926 1281.91 237.546C1250.41 218.955 1204.77 215.153 1204.77 215.153L1567.2 6C1567.2 6 1613.07 10.0141 1644.34 28.3941C1675.82 46.9855 1721.48 94.9426 1721.48 94.9426L1359.04 304.095Z" fill="#E5E5E5"/>
<path fill-rule="evenodd" clip-rule="evenodd" d="M1349.17 309.732V515.294L986.742 724.446V518.885L1349.17 309.732Z" fill="#A5A5A5"/>
<path fill-rule="evenodd" clip-rule="evenodd" d="M832.464 429.73V635.292L986.948 724.445V518.885C986.948 518.885 941.089 470.716 909.812 452.336C878.112 433.745 832.464 429.73 832.464 429.73Z" fill="#4C4C4C"/>
<path fill-rule="evenodd" clip-rule="evenodd" d="M986.934 665.08L987.145 724.445L1349.16 515.504C1349.16 515.504 1349.58 455.504 1349.16 456.138C1348.74 456.561 986.934 665.08 986.934 665.08Z" fill="#2A68B3"/>
<path fill-rule="evenodd" clip-rule="evenodd" d="M987.231 724.443L987.02 694.866L1349.46 485.924V515.712L987.231 724.443Z" fill="#E5E5E5"/>
<path fill-rule="evenodd" clip-rule="evenodd" d="M986.934 665.081V659.378L1349.37 450.225V456.14L986.934 665.081Z" fill="#FFE04C"/>
<path fill-rule="evenodd" clip-rule="evenodd" d="M1009.38 547.657C1009.38 544.911 1010.86 542.587 1013.19 541.32C1025.87 533.925 1068.13 509.63 1088.42 497.799C1090.75 496.531 1093.49 496.531 1095.82 497.799C1098.14 499.067 1099.62 501.602 1099.62 504.137C1099.62 524.418 1099.62 563.291 1099.62 576.179C1099.62 578.925 1098.14 581.249 1095.82 582.516C1083.14 589.91 1040.87 614.206 1020.58 626.037C1018.26 627.304 1015.51 627.304 1013.19 626.037C1010.86 624.769 1009.38 622.234 1009.38 619.699C1009.38 599.206 1009.38 560.544 1009.38 547.657Z" fill="#4C4C4C" stroke="black" stroke-width="0.7031" stroke-miterlimit="1.0547" stroke-linejoin="round"/>
<path fill-rule="evenodd" clip-rule="evenodd" d="M1124.76 480.981C1124.76 478.234 1126.24 475.91 1128.56 474.643C1131.94 472.53 1137.45 469.573 1142.31 466.615C1144.63 465.347 1147.38 465.347 1149.7 466.615C1152.03 467.882 1153.51 470.417 1153.51 472.952C1153.51 493.235 1153.51 532.107 1153.51 544.994C1153.51 547.74 1152.03 550.064 1149.7 551.332C1146.32 553.445 1140.83 556.403 1135.96 559.36C1133.63 560.627 1130.88 560.627 1128.56 559.36C1126.24 558.092 1124.76 555.557 1124.76 553.022C1124.76 532.53 1124.76 493.868 1124.76 480.981Z" fill="#4C4C4C" stroke="black" stroke-width="0.7031" stroke-miterlimit="1.0547" stroke-linejoin="round"/>
<path fill-rule="evenodd" clip-rule="evenodd" d="M1180.39 448.983C1180.39 446.236 1181.87 443.912 1184.19 442.644C1187.57 440.532 1193.07 437.574 1197.93 434.616C1200.25 433.349 1203 433.349 1205.32 434.616C1207.65 435.884 1209.13 438.42 1209.13 440.955C1209.13 461.236 1209.13 500.109 1209.13 512.996C1209.13 515.743 1207.65 518.066 1205.32 519.335C1201.94 521.447 1196.45 524.405 1191.59 527.362C1189.26 528.63 1186.51 528.63 1184.19 527.362C1181.87 526.095 1180.39 523.559 1180.39 521.024C1180.39 500.532 1180.39 461.87 1180.39 448.983Z" fill="#4C4C4C" stroke="black" stroke-width="0.7031" stroke-miterlimit="1.0547" stroke-linejoin="round"/>
<path fill-rule="evenodd" clip-rule="evenodd" d="M1234.51 417.761C1234.51 415.014 1235.99 412.69 1238.32 411.422C1250.99 404.028 1293.26 379.733 1313.54 367.902C1315.87 366.634 1318.62 366.634 1320.95 367.902C1323.27 369.169 1324.75 371.704 1324.75 374.24C1324.75 394.522 1324.75 433.394 1324.75 446.281C1324.75 449.028 1323.27 451.351 1320.95 452.619C1308.26 460.014 1266 484.309 1245.71 496.139C1243.39 497.408 1240.64 497.408 1238.32 496.139C1235.99 494.872 1234.51 492.337 1234.51 489.802C1234.51 469.309 1234.51 430.648 1234.51 417.761Z" fill="#4C4C4C" stroke="black" stroke-width="0.7031" stroke-miterlimit="1.0547" stroke-linejoin="round"/>
<path fill-rule="evenodd" clip-rule="evenodd" d="M986.737 518.883C986.737 518.883 940.878 470.716 909.6 452.336C878.112 433.745 832.464 429.941 832.464 429.941L1194.9 220.789C1194.9 220.789 1240.75 224.803 1272.04 243.183C1303.52 261.774 1349.17 309.731 1349.17 309.731L986.737 518.883Z" fill="#E5E5E5"/>
<path fill-rule="evenodd" clip-rule="evenodd" d="M978.539 523.906V729.468L616.104 938.62V733.06L978.539 523.906Z" fill="#A5A5A5"/>
<path fill-rule="evenodd" clip-rule="evenodd" d="M461.626 643.898V849.46L616.109 938.613V733.053C616.109 733.053 570.25 684.884 538.974 666.504C507.485 647.702 461.626 643.898 461.626 643.898Z" fill="#4C4C4C"/>
<path fill-rule="evenodd" clip-rule="evenodd" d="M616.299 879.037L616.51 938.402L978.522 729.461C978.522 729.461 978.944 669.462 978.522 670.095C978.099 670.518 616.299 879.037 616.299 879.037Z" fill="#2A68B3"/>
<path fill-rule="evenodd" clip-rule="evenodd" d="M616.389 938.399L616.178 908.822L978.613 699.881V729.669L616.389 938.399Z" fill="#E5E5E5"/>
<path fill-rule="evenodd" clip-rule="evenodd" d="M616.299 879.042V873.338L978.733 664.186V670.1L616.299 879.042Z" fill="#FFE04C"/>
<path fill-rule="evenodd" clip-rule="evenodd" d="M638.75 761.618C638.75 758.872 640.229 756.547 642.554 755.28C655.233 747.886 697.5 723.59 717.788 711.759C720.113 710.492 722.86 710.492 725.184 711.759C727.508 713.027 728.989 715.562 728.989 718.097C728.989 738.378 728.989 777.252 728.989 790.139C728.989 792.885 727.508 795.209 725.184 796.476C712.504 803.871 670.238 828.166 649.95 839.997C647.625 841.265 644.878 841.265 642.554 839.997C640.229 838.73 638.75 836.194 638.75 833.659C638.75 813.166 638.75 774.505 638.75 761.618Z" fill="#4C4C4C" stroke="black" stroke-width="0.7031" stroke-miterlimit="1.0547" stroke-linejoin="round"/>
<path fill-rule="evenodd" clip-rule="evenodd" d="M754.127 694.946C754.127 692.2 755.606 689.875 757.931 688.608C761.313 686.496 766.807 683.538 771.668 680.58C773.992 679.312 776.739 679.312 779.064 680.58C781.389 681.847 782.869 684.382 782.869 686.917C782.869 707.199 782.869 746.072 782.869 758.959C782.869 761.705 781.389 764.029 779.064 765.297C775.683 767.41 770.189 770.367 765.328 773.325C763.003 774.592 760.256 774.592 757.931 773.325C755.606 772.057 754.127 769.522 754.127 766.987C754.127 746.706 754.127 707.833 754.127 694.946Z" fill="#4C4C4C" stroke="black" stroke-width="0.7031" stroke-miterlimit="1.0547" stroke-linejoin="round"/>
<path fill-rule="evenodd" clip-rule="evenodd" d="M809.544 662.947C809.544 660.201 811.023 657.877 813.348 656.61C816.729 654.496 822.224 651.54 827.084 648.582C829.408 647.314 832.156 647.314 834.481 648.582C836.805 649.849 838.284 652.384 838.284 654.919C838.284 675.201 838.284 714.074 838.284 726.961C838.284 729.707 836.805 732.031 834.481 733.299C831.1 735.412 825.605 738.369 820.745 741.327C818.419 742.594 815.672 742.594 813.348 741.327C811.023 740.059 809.544 737.524 809.544 734.989C809.544 714.708 809.544 675.834 809.544 662.947Z" fill="#4C4C4C" stroke="black" stroke-width="0.7031" stroke-miterlimit="1.0547" stroke-linejoin="round"/>
<path fill-rule="evenodd" clip-rule="evenodd" d="M863.882 631.716C863.882 628.969 865.361 626.645 867.685 625.377C880.365 617.983 922.632 593.688 942.92 581.857C945.244 580.589 947.991 580.589 950.317 581.857C952.641 583.124 954.121 585.659 954.121 588.195C954.121 608.477 954.121 647.349 954.121 660.236C954.121 662.983 952.641 665.306 950.317 666.574C937.636 673.969 895.371 698.264 875.082 710.096C872.758 711.363 870.011 711.363 867.685 710.096C865.361 708.827 863.882 706.292 863.882 703.757C863.882 683.265 863.882 644.603 863.882 631.716Z" fill="#4C4C4C" stroke="black" stroke-width="0.7031" stroke-miterlimit="1.0547" stroke-linejoin="round"/>
<path fill-rule="evenodd" clip-rule="evenodd" d="M616.106 732.842C616.106 732.842 570.247 684.673 538.969 666.293C507.482 647.702 461.834 643.898 461.834 643.898L824.268 434.746C824.268 434.746 870.127 438.76 901.405 457.141C932.893 475.732 978.541 523.689 978.541 523.689L616.106 732.842Z" fill="#E5E5E5"/>
<path fill-rule="evenodd" clip-rule="evenodd" d="M604.058 741.207V946.767L164.487 1200.49C164.487 1200.49 165.121 1091.06 186.677 1035.08C210.558 972.753 241.835 950.359 241.835 950.359L604.058 741.207Z" fill="#A5A5A5"/>
<path fill-rule="evenodd" clip-rule="evenodd" d="M241.623 950.355C241.623 950.355 195.764 902.187 164.488 883.807C132.999 865.215 87.3516 861.412 87.3516 861.412L449.786 652.26C449.786 652.26 495.645 656.274 526.922 674.654C558.2 693.034 604.059 741.203 604.059 741.203L241.623 950.355Z" fill="#E5E5E5"/>
<path fill-rule="evenodd" clip-rule="evenodd" d="M164.484 1200.49C164.484 1200.49 165.118 1091.05 186.674 1035.07C210.554 972.745 241.832 950.351 241.832 950.351C241.832 950.351 195.972 902.183 164.695 883.803C133.207 865.211 87.5589 861.408 87.5589 861.408C87.5589 861.408 56.0704 883.591 32.1898 945.914C10.634 1001.9 10 1111.34 10 1111.34L164.484 1200.49Z" fill="#848484"/>
<path fill-rule="evenodd" clip-rule="evenodd" d="M167.868 1133.94L167.445 1139.44L167.868 1133.94L604.058 881.902V888.24L167.445 1139.65" fill="#FFE04C"/>
<path fill-rule="evenodd" clip-rule="evenodd" d="M167.445 1138.86L168.079 1133.57L154.131 1125.33L13.8065 1043.15L13.3838 1049.49L167.445 1138.86Z" fill="#FFD81E"/>
<path fill-rule="evenodd" clip-rule="evenodd" d="M164.487 1200.49C164.487 1200.49 164.699 1173.45 167.446 1139.44C167.446 1138.39 604.058 888.246 604.058 888.246V946.767L164.487 1200.49Z" fill="#2867B2"/>
<path fill-rule="evenodd" clip-rule="evenodd" d="M164.484 1200.49C164.484 1200.49 164.695 1173.24 167.442 1138.81C167.442 1138.6 13.17 1049.23 13.17 1049.65C10.4227 1084.09 10 1111.34 10 1111.34L164.484 1200.49Z" fill="#0C4F9D"/>
<path fill-rule="evenodd" clip-rule="evenodd" d="M254.516 1148.52C254.516 1148.52 323.621 1079.44 408.999 1029.79C494.166 979.932 604.059 917.186 604.059 917.186V946.974L254.516 1148.52Z" fill="#E5E5E5"/>
<path fill-rule="evenodd" clip-rule="evenodd" d="M273.873 973.582C273.873 970.836 275.352 968.512 277.677 967.245C290.356 959.851 332.623 935.555 352.911 923.724C355.236 922.457 357.983 922.457 360.307 923.724C362.632 924.992 364.112 927.527 364.112 930.062C364.112 950.343 364.112 989.217 364.112 1002.1C364.112 1004.85 362.632 1007.17 360.307 1008.44C347.627 1015.84 305.361 1040.13 285.074 1051.96C282.748 1053.23 280.001 1053.23 277.677 1051.96C275.352 1050.69 273.873 1048.16 273.873 1045.62C273.873 1025.13 273.873 986.47 273.873 973.582Z" fill="#4B4B4B" stroke="black" stroke-width="0.7031" stroke-miterlimit="1.0547" stroke-linejoin="round"/>
<path fill-rule="evenodd" clip-rule="evenodd" d="M389.254 906.916C389.254 904.171 390.733 901.846 393.059 900.579C396.44 898.466 401.934 895.509 406.795 892.551C409.119 891.283 411.866 891.283 414.191 892.551C416.516 893.818 417.996 896.353 417.996 898.888C417.996 919.17 417.996 958.043 417.996 970.93C417.996 973.676 416.516 976 414.191 977.268C410.81 979.38 405.316 982.338 400.454 985.296C398.13 986.563 395.383 986.563 393.059 985.296C390.733 984.028 389.254 981.493 389.254 978.958C389.254 958.465 389.254 919.804 389.254 906.916Z" fill="#4B4B4B" stroke="black" stroke-width="0.7031" stroke-miterlimit="1.0547" stroke-linejoin="round"/>
<path fill-rule="evenodd" clip-rule="evenodd" d="M444.672 874.912C444.672 872.166 446.151 869.842 448.475 868.575C451.856 866.461 457.352 863.505 462.212 860.547C464.536 859.279 467.284 859.279 469.609 860.547C471.933 861.814 473.412 864.349 473.412 866.884C473.412 887.166 473.412 926.039 473.412 938.926C473.412 941.672 471.933 943.996 469.609 945.264C466.228 947.376 460.733 950.334 455.873 953.292C453.548 954.559 450.8 954.559 448.475 953.292C446.151 952.024 444.672 949.489 444.672 946.954C444.672 926.461 444.672 887.799 444.672 874.912Z" fill="#4B4B4B" stroke="black" stroke-width="0.7031" stroke-miterlimit="1.0547" stroke-linejoin="round"/>
<path fill-rule="evenodd" clip-rule="evenodd" d="M499.007 843.473C499.007 840.727 500.486 838.403 502.811 837.136C515.492 829.741 557.757 805.445 578.045 793.615C580.37 792.347 583.118 792.347 585.442 793.615C587.767 794.882 589.246 797.417 589.246 799.954C589.246 820.235 589.246 859.107 589.246 871.994C589.246 874.74 587.767 877.064 585.442 878.332C571.071 886.783 520.563 915.938 520.563 915.938C520.563 915.938 515.28 918.896 509.996 922.065C507.672 923.332 504.925 923.332 502.6 922.065C500.275 920.797 498.796 918.261 498.796 915.726C499.007 895.234 499.007 856.36 499.007 843.473Z" fill="#4B4B4B" stroke="black" stroke-width="0.7031" stroke-miterlimit="1.0547" stroke-linejoin="round"/>
<path fill-rule="evenodd" clip-rule="evenodd" d="M131.834 1085.8C135.003 1058.97 140.075 1031.51 148.106 1011.01C151.064 1002.99 154.234 995.802 157.616 989.042C157.616 989.042 80.4796 944.254 80.2682 944.466C77.0983 951.226 73.717 958.831 70.7583 966.648C62.939 987.141 57.8671 1014.6 54.4858 1041.44C54.2744 1041.86 131.834 1085.8 131.834 1085.8Z" fill="#282828" stroke="black" stroke-width="0.7031" stroke-miterlimit="1.0547" stroke-linejoin="round"/>
<path fill-rule="evenodd" clip-rule="evenodd" d="M131.838 1085.8C135.007 1058.97 140.079 1031.51 148.11 1011.02C151.068 1002.99 154.239 995.806 157.62 989.046C157.62 989.046 87.8801 948.694 87.6687 948.905C84.4987 955.665 81.1174 963.272 78.1588 971.088C70.3396 991.581 65.2675 1019.05 61.8862 1045.88C61.6749 1046.09 131.838 1085.8 131.838 1085.8Z" fill="#4B4B4B" stroke="black" stroke-width="0.7031" stroke-miterlimit="1.0547" stroke-linejoin="round"/>
<path fill-rule="evenodd" clip-rule="evenodd" d="M87.3516 929.602L164.488 974.18L172.518 958.756L95.3822 914.18L87.3516 929.602Z" fill="#1B1B1B" stroke="black" stroke-width="0.7031" stroke-miterlimit="1.0547" stroke-linejoin="round"/>
<path fill-rule="evenodd" clip-rule="evenodd" d="M114.666 1151.27V1123.18L143.619 1139.86V1167.96L114.666 1151.27Z" fill="white"/>
<path fill-rule="evenodd" clip-rule="evenodd" d="M30.8936 1103.05V1074.95L59.846 1091.64V1119.73L30.8936 1103.05Z" fill="white"/>
</g>
<defs>
<filter id="filter0_d" x="0" y="0" width="1824" height="1214.49" filterUnits="userSpaceOnUse" color-interpolation-filters="sRGB">
<feFlood flood-opacity="0" result="BackgroundImageFix"/>
<feColorMatrix in="SourceAlpha" type="matrix" values="0 0 0 0 0 0 0 0 0 0 0 0 0 0 0 0 0 0 127 0"/>
<feOffset dy="4"/>
<feGaussianBlur stdDeviation="5"/>
<feColorMatrix type="matrix" values="0 0 0 0 0 0 0 0 0 0 0 0 0 0 0 0 0 0 0.25 0"/>
<feBlend mode="normal" in2="BackgroundImageFix" result="effect1_dropShadow"/>
<feBlend mode="normal" in="SourceGraphic" in2="effect1_dropShadow" result="shape"/>
</filter>
</defs>
</svg>
