<svg width="3185" height="1981" viewBox="0 0 3185 1981" fill="none" xmlns="http://www.w3.org/2000/svg">
<path d="M13 1959L2503 521" stroke="#38CADE" stroke-width="50"/>
<path d="M270.875 1843.72C270.875 1870.5 249.18 1892.19 222.427 1892.19C195.673 1892.19 173.978 1870.5 173.978 1843.72C173.978 1816.95 195.673 1795.25 222.427 1795.25C249.18 1795.25 270.875 1816.95 270.875 1843.72Z" fill="white" stroke="#38CADE" stroke-width="18.5005"/>
<path d="M2255.08 682.722C2255.08 709.495 2233.38 731.193 2206.63 731.193C2179.88 731.193 2158.18 709.495 2158.18 682.722C2158.18 655.948 2179.88 634.25 2206.63 634.25C2233.38 634.25 2255.08 655.948 2255.08 682.722Z" fill="white" stroke="#38CADE" stroke-width="18.5005"/>
<g filter="url(#filter0_d)">
<path fill-rule="evenodd" clip-rule="evenodd" d="M2997.31 24.3857L3174.72 247.271C3174.72 247.271 3181.69 179.454 3124.88 118.398C3069.75 58.6107 2997.31 24.3857 2997.31 24.3857Z" fill="#848484"/>
<path fill-rule="evenodd" clip-rule="evenodd" d="M3081.37 94.4448C3081.37 94.4448 3128.26 119.585 3146.63 145.993C3164.81 171.979 3175.58 214.021 3174.73 247.401L2719.35 509.369V303.809L3081.37 94.4448Z" fill="#A5A5A5"/>
<path fill-rule="evenodd" clip-rule="evenodd" d="M2565.89 214.941V420.502L2720.28 509.656V304.095C2720.28 304.095 2674.45 255.926 2643.2 237.546C2611.72 218.955 2565.89 214.941 2565.89 214.941Z" fill="#4C4C4C"/>
<path fill-rule="evenodd" clip-rule="evenodd" d="M2720.49 450.292L2720.7 509.658L3174.81 247.479C3175.65 231.634 3173.75 213.675 3167.84 192.126L2720.49 450.292Z" fill="#2A68B3"/>
<path fill-rule="evenodd" clip-rule="evenodd" d="M2720.57 509.651L2720.36 480.073L2969.17 337.681C3026.19 304.723 3097.8 293.104 3097.8 293.104L2720.57 509.651Z" fill="#E5E5E5"/>
<path fill-rule="evenodd" clip-rule="evenodd" d="M2720.49 450.291V444.587L3166.15 187.055L3167.84 192.125L2720.49 450.291Z" fill="#FFE04C"/>
<path fill-rule="evenodd" clip-rule="evenodd" d="M2742.7 332.864C2742.7 330.118 2744.18 327.794 2746.5 326.526C2759.19 319.132 2801.43 294.836 2821.7 283.006C2824.02 281.738 2826.77 281.738 2829.09 283.006C2831.41 284.273 2832.89 286.808 2832.89 289.344C2832.89 309.625 2832.89 348.498 2832.89 361.385C2832.89 364.131 2831.41 366.455 2829.09 367.723C2816.42 375.117 2774.18 399.413 2753.91 411.244C2751.58 412.511 2748.84 412.511 2746.5 411.244C2744.18 409.976 2742.7 407.441 2742.7 404.906C2742.7 384.413 2742.7 345.751 2742.7 332.864Z" fill="#4C4C4C" stroke="black" stroke-width="0.7031" stroke-miterlimit="1.0547" stroke-linejoin="round"/>
<path fill-rule="evenodd" clip-rule="evenodd" d="M2858.24 266.192C2858.24 263.446 2859.72 261.122 2862.04 259.854C2865.42 257.741 2870.91 254.783 2875.77 251.826C2878.09 250.559 2880.84 250.559 2883.16 251.826C2885.48 253.094 2886.96 255.629 2886.96 258.164C2886.96 278.445 2886.96 317.319 2886.96 330.206C2886.96 332.952 2885.48 335.276 2883.16 336.544C2879.78 338.656 2874.29 341.614 2869.43 344.572C2867.11 345.839 2864.37 345.839 2862.04 344.572C2859.72 343.304 2858.24 340.769 2858.24 338.234C2858.24 317.741 2858.24 279.079 2858.24 266.192Z" fill="#4C4C4C" stroke="black" stroke-width="0.7031" stroke-miterlimit="1.0547" stroke-linejoin="round"/>
<path fill-rule="evenodd" clip-rule="evenodd" d="M2913.62 234.193C2913.62 231.446 2915.1 229.123 2917.42 227.854C2920.8 225.742 2926.29 222.784 2931.15 219.826C2933.47 218.559 2936.22 218.559 2938.54 219.826C2940.86 221.094 2942.34 223.63 2942.34 226.165C2942.34 246.446 2942.34 285.319 2942.34 298.206C2942.34 300.953 2940.86 303.277 2938.54 304.544C2935.16 306.657 2929.67 309.614 2924.81 312.572C2922.49 313.84 2919.74 313.84 2917.42 312.572C2915.1 311.305 2913.62 308.77 2913.62 306.234C2913.62 285.741 2913.62 247.08 2913.62 234.193Z" fill="#4C4C4C" stroke="black" stroke-width="0.7031" stroke-miterlimit="1.0547" stroke-linejoin="round"/>
<path fill-rule="evenodd" clip-rule="evenodd" d="M2967.93 202.971C2967.93 200.225 2969.4 197.901 2971.73 196.633C2984.4 189.239 3026.65 164.943 3046.92 153.112C3049.25 151.845 3051.99 151.845 3054.32 153.112C3056.64 154.38 3058.12 156.915 3058.12 159.45C3058.12 179.731 3058.12 218.605 3058.12 231.492C3058.12 234.238 3056.64 236.562 3054.32 237.83C3041.64 245.224 2999.39 269.52 2979.12 281.35C2976.8 282.618 2974.05 282.618 2971.73 281.35C2969.4 280.083 2967.93 277.548 2967.93 275.013C2967.93 254.519 2967.93 215.858 2967.93 202.971Z" fill="#4C4C4C" stroke="black" stroke-width="0.7031" stroke-miterlimit="1.0547" stroke-linejoin="round"/>
<path fill-rule="evenodd" clip-rule="evenodd" d="M2720.29 304.095C2720.29 304.095 2674.46 255.926 2643.2 237.546C2611.72 218.955 2566.11 215.153 2566.11 215.153L2928.34 6C2928.34 6 2974.18 10.0141 3005.43 28.3941C3036.9 46.9854 3082.53 94.9426 3082.53 94.9426L2720.29 304.095Z" fill="#E5E5E5"/>
<path fill-rule="evenodd" clip-rule="evenodd" d="M2710.43 309.733V515.295L2348.2 724.447V518.885L2710.43 309.733Z" fill="#A5A5A5"/>
<path fill-rule="evenodd" clip-rule="evenodd" d="M2194.01 429.73V635.292L2348.41 724.445V518.885C2348.41 518.885 2302.57 470.716 2271.31 452.336C2239.63 433.745 2194.01 429.73 2194.01 429.73Z" fill="#4C4C4C"/>
<path fill-rule="evenodd" clip-rule="evenodd" d="M2348.39 665.08L2348.6 724.445L2710.41 515.504C2710.41 515.504 2710.84 455.504 2710.41 456.138C2709.99 456.561 2348.39 665.08 2348.39 665.08Z" fill="#2A68B3"/>
<path fill-rule="evenodd" clip-rule="evenodd" d="M2348.69 724.444L2348.48 694.866L2710.72 485.924V515.713L2348.69 724.444Z" fill="#E5E5E5"/>
<path fill-rule="evenodd" clip-rule="evenodd" d="M2348.39 665.081V659.378L2710.63 450.225V456.14L2348.39 665.081Z" fill="#FFE04C"/>
<path fill-rule="evenodd" clip-rule="evenodd" d="M2370.83 547.658C2370.83 544.911 2372.31 542.587 2374.63 541.32C2387.31 533.925 2429.55 509.631 2449.82 497.799C2452.15 496.531 2454.89 496.531 2457.22 497.799C2459.54 499.067 2461.02 501.603 2461.02 504.138C2461.02 524.419 2461.02 563.291 2461.02 576.179C2461.02 578.926 2459.54 581.25 2457.22 582.517C2444.54 589.911 2402.3 614.206 2382.02 626.038C2379.7 627.305 2376.96 627.305 2374.63 626.038C2372.31 624.77 2370.83 622.234 2370.83 619.699C2370.83 599.207 2370.83 560.545 2370.83 547.658Z" fill="#4C4C4C" stroke="black" stroke-width="0.7031" stroke-miterlimit="1.0547" stroke-linejoin="round"/>
<path fill-rule="evenodd" clip-rule="evenodd" d="M2486.14 480.981C2486.14 478.235 2487.62 475.911 2489.94 474.644C2493.32 472.53 2498.82 469.573 2503.68 466.616C2506 465.348 2508.75 465.348 2511.07 466.616C2513.39 467.883 2514.87 470.418 2514.87 472.953C2514.87 493.235 2514.87 532.107 2514.87 544.994C2514.87 547.741 2513.39 550.065 2511.07 551.333C2507.69 553.445 2502.2 556.403 2497.33 559.361C2495.01 560.628 2492.26 560.628 2489.94 559.361C2487.62 558.093 2486.14 555.558 2486.14 553.023C2486.14 532.53 2486.14 493.868 2486.14 480.981Z" fill="#4C4C4C" stroke="black" stroke-width="0.7031" stroke-miterlimit="1.0547" stroke-linejoin="round"/>
<path fill-rule="evenodd" clip-rule="evenodd" d="M2541.74 448.982C2541.74 446.236 2543.22 443.912 2545.54 442.644C2548.92 440.531 2554.41 437.573 2559.27 434.616C2561.59 433.349 2564.34 433.349 2566.66 434.616C2568.98 435.884 2570.46 438.419 2570.46 440.954C2570.46 461.235 2570.46 500.108 2570.46 512.995C2570.46 515.742 2568.98 518.066 2566.66 519.334C2563.28 521.446 2557.79 524.404 2552.93 527.361C2550.61 528.629 2547.86 528.629 2545.54 527.361C2543.22 526.094 2541.74 523.559 2541.74 521.024C2541.74 500.531 2541.74 461.869 2541.74 448.982Z" fill="#4C4C4C" stroke="black" stroke-width="0.7031" stroke-miterlimit="1.0547" stroke-linejoin="round"/>
<path fill-rule="evenodd" clip-rule="evenodd" d="M2595.83 417.76C2595.83 415.014 2597.31 412.69 2599.63 411.422C2612.31 404.028 2654.54 379.732 2674.82 367.902C2677.14 366.634 2679.9 366.634 2682.22 367.902C2684.54 369.169 2686.02 371.704 2686.02 374.239C2686.02 394.521 2686.02 433.394 2686.02 446.281C2686.02 449.027 2684.54 451.351 2682.22 452.619C2669.54 460.013 2627.3 484.309 2607.03 496.139C2604.7 497.407 2601.96 497.407 2599.63 496.139C2597.31 494.872 2595.83 492.337 2595.83 489.802C2595.83 469.308 2595.83 430.647 2595.83 417.76Z" fill="#4C4C4C" stroke="black" stroke-width="0.7031" stroke-miterlimit="1.0547" stroke-linejoin="round"/>
<path fill-rule="evenodd" clip-rule="evenodd" d="M2348.19 518.884C2348.19 518.884 2302.36 470.716 2271.1 452.336C2239.63 433.745 2194.01 429.942 2194.01 429.942L2556.24 220.789C2556.24 220.789 2602.07 224.803 2633.34 243.183C2664.81 261.774 2710.42 309.731 2710.42 309.731L2348.19 518.884Z" fill="#E5E5E5"/>
<path fill-rule="evenodd" clip-rule="evenodd" d="M2340 523.906V729.468L1977.77 938.62V733.06L2340 523.906Z" fill="#A5A5A5"/>
<path fill-rule="evenodd" clip-rule="evenodd" d="M1823.38 643.899V849.461L1977.77 938.614V733.054C1977.77 733.054 1931.94 684.885 1900.68 666.505C1869.21 647.703 1823.38 643.899 1823.38 643.899Z" fill="#4C4C4C"/>
<path fill-rule="evenodd" clip-rule="evenodd" d="M1977.96 879.037L1978.17 938.401L2339.99 729.461C2339.99 729.461 2340.41 669.462 2339.99 670.095C2339.56 670.517 1977.96 879.037 1977.96 879.037Z" fill="#2A68B3"/>
<path fill-rule="evenodd" clip-rule="evenodd" d="M1978.05 938.399L1977.84 908.822L2340.08 699.881V729.669L1978.05 938.399Z" fill="#E5E5E5"/>
<path fill-rule="evenodd" clip-rule="evenodd" d="M1977.96 879.042V873.338L2340.2 664.185V670.1L1977.96 879.042Z" fill="#FFE04C"/>
<path fill-rule="evenodd" clip-rule="evenodd" d="M2000.4 761.619C2000.4 758.872 2001.88 756.547 2004.2 755.28C2016.88 747.886 2059.12 723.591 2079.4 711.759C2081.72 710.492 2084.46 710.492 2086.79 711.759C2089.11 713.027 2090.59 715.562 2090.59 718.098C2090.59 738.379 2090.59 777.252 2090.59 790.139C2090.59 792.886 2089.11 795.209 2086.79 796.476C2074.11 803.872 2031.87 828.166 2011.59 839.997C2009.27 841.266 2006.53 841.266 2004.2 839.997C2001.88 838.73 2000.4 836.194 2000.4 833.659C2000.4 813.167 2000.4 774.506 2000.4 761.619Z" fill="#4C4C4C" stroke="black" stroke-width="0.7031" stroke-miterlimit="1.0547" stroke-linejoin="round"/>
<path fill-rule="evenodd" clip-rule="evenodd" d="M2115.71 694.947C2115.71 692.201 2117.19 689.876 2119.52 688.609C2122.9 686.496 2128.39 683.539 2133.25 680.581C2135.57 679.313 2138.31 679.313 2140.64 680.581C2142.96 681.848 2144.44 684.383 2144.44 686.918C2144.44 707.2 2144.44 746.073 2144.44 758.96C2144.44 761.706 2142.96 764.03 2140.64 765.298C2137.26 767.41 2131.77 770.368 2126.91 773.326C2124.59 774.593 2121.84 774.593 2119.52 773.326C2117.19 772.058 2115.71 769.523 2115.71 766.988C2115.71 746.707 2115.71 707.834 2115.71 694.947Z" fill="#4C4C4C" stroke="black" stroke-width="0.7031" stroke-miterlimit="1.0547" stroke-linejoin="round"/>
<path fill-rule="evenodd" clip-rule="evenodd" d="M2171.1 662.947C2171.1 660.2 2172.58 657.876 2174.9 656.609C2178.28 654.496 2183.77 651.539 2188.63 648.581C2190.95 647.313 2193.7 647.313 2196.02 648.581C2198.35 649.848 2199.83 652.383 2199.83 654.919C2199.83 675.201 2199.83 714.073 2199.83 726.96C2199.83 729.707 2198.35 732.03 2196.02 733.299C2192.65 735.411 2187.15 738.369 2182.3 741.327C2179.97 742.594 2177.23 742.594 2174.9 741.327C2172.58 740.059 2171.1 737.523 2171.1 734.988C2171.1 714.707 2171.1 675.834 2171.1 662.947Z" fill="#4C4C4C" stroke="black" stroke-width="0.7031" stroke-miterlimit="1.0547" stroke-linejoin="round"/>
<path fill-rule="evenodd" clip-rule="evenodd" d="M2225.41 631.717C2225.41 628.97 2226.89 626.646 2229.21 625.378C2241.88 617.984 2284.13 593.689 2304.4 581.858C2306.73 580.59 2309.47 580.59 2311.8 581.858C2314.12 583.125 2315.6 585.66 2315.6 588.196C2315.6 608.478 2315.6 647.35 2315.6 660.237C2315.6 662.984 2314.12 665.307 2311.8 666.575C2299.12 673.97 2256.88 698.265 2236.6 710.097C2234.28 711.364 2231.53 711.364 2229.21 710.097C2226.89 708.828 2225.41 706.293 2225.41 703.758C2225.41 683.266 2225.41 644.604 2225.41 631.717Z" fill="#4C4C4C" stroke="black" stroke-width="0.7031" stroke-miterlimit="1.0547" stroke-linejoin="round"/>
<path fill-rule="evenodd" clip-rule="evenodd" d="M1977.77 732.841C1977.77 732.841 1931.94 684.672 1900.68 666.292C1869.21 647.701 1823.58 643.898 1823.58 643.898L2185.82 434.746C2185.82 434.746 2231.65 438.759 2262.91 457.14C2294.38 475.732 2340 523.689 2340 523.689L1977.77 732.841Z" fill="#E5E5E5"/>
<path fill-rule="evenodd" clip-rule="evenodd" d="M1965.73 741.207V946.768L1526.4 1200.49C1526.4 1200.49 1527.03 1091.06 1548.58 1035.08C1572.45 972.753 1603.71 950.36 1603.71 950.36L1965.73 741.207Z" fill="#A5A5A5"/>
<path fill-rule="evenodd" clip-rule="evenodd" d="M1603.5 950.355C1603.5 950.355 1557.66 902.186 1526.4 883.806C1494.93 865.215 1449.31 861.412 1449.31 861.412L1811.54 652.259C1811.54 652.259 1857.38 656.274 1888.64 674.654C1919.9 693.034 1965.73 741.202 1965.73 741.202L1603.5 950.355Z" fill="#E5E5E5"/>
<path fill-rule="evenodd" clip-rule="evenodd" d="M1526.4 1200.49C1526.4 1200.49 1527.03 1091.05 1548.58 1035.07C1572.44 972.745 1603.7 950.352 1603.7 950.352C1603.7 950.352 1557.87 902.183 1526.61 883.803C1495.14 865.212 1449.52 861.409 1449.52 861.409C1449.52 861.409 1418.04 883.592 1394.18 945.915C1372.63 1001.9 1372 1111.34 1372 1111.34L1526.4 1200.49Z" fill="#848484"/>
<path fill-rule="evenodd" clip-rule="evenodd" d="M1529.78 1133.94L1529.36 1139.44L1529.78 1133.94L1965.73 881.903V888.24L1529.36 1139.65" fill="#FFE04C"/>
<path fill-rule="evenodd" clip-rule="evenodd" d="M1529.36 1138.86L1529.99 1133.57L1516.05 1125.33L1375.8 1043.15L1375.38 1049.49L1529.36 1138.86Z" fill="#FFD81E"/>
<path fill-rule="evenodd" clip-rule="evenodd" d="M1526.4 1200.49C1526.4 1200.49 1526.61 1173.45 1529.36 1139.44C1529.36 1138.39 1965.73 888.245 1965.73 888.245V946.766L1526.4 1200.49Z" fill="#2867B2"/>
<path fill-rule="evenodd" clip-rule="evenodd" d="M1526.4 1200.49C1526.4 1200.49 1526.61 1173.24 1529.36 1138.81C1529.36 1138.6 1375.17 1049.23 1375.17 1049.65C1372.42 1084.09 1372 1111.34 1372 1111.34L1526.4 1200.49Z" fill="#0C4F9D"/>
<path fill-rule="evenodd" clip-rule="evenodd" d="M1616.38 1148.52C1616.38 1148.52 1685.45 1079.44 1770.78 1029.79C1855.9 979.933 1965.73 917.186 1965.73 917.186V946.975L1616.38 1148.52Z" fill="#E5E5E5"/>
<path fill-rule="evenodd" clip-rule="evenodd" d="M1635.73 973.582C1635.73 970.836 1637.2 968.512 1639.53 967.245C1652.2 959.851 1694.44 935.556 1714.72 923.724C1717.04 922.457 1719.79 922.457 1722.11 923.724C1724.44 924.992 1725.92 927.527 1725.92 930.063C1725.92 950.344 1725.92 989.217 1725.92 1002.1C1725.92 1004.85 1724.44 1007.17 1722.11 1008.44C1709.44 1015.84 1667.2 1040.13 1646.92 1051.96C1644.6 1053.23 1641.85 1053.23 1639.53 1051.96C1637.2 1050.69 1635.73 1048.16 1635.73 1045.62C1635.73 1025.13 1635.73 986.471 1635.73 973.582Z" fill="#4B4B4B" stroke="black" stroke-width="0.7031" stroke-miterlimit="1.0547" stroke-linejoin="round"/>
<path fill-rule="evenodd" clip-rule="evenodd" d="M1751.04 906.915C1751.04 904.17 1752.52 901.845 1754.85 900.578C1758.23 898.466 1763.72 895.508 1768.58 892.55C1770.9 891.282 1773.64 891.282 1775.97 892.55C1778.29 893.817 1779.77 896.352 1779.77 898.887C1779.77 919.169 1779.77 958.042 1779.77 970.929C1779.77 973.675 1778.29 975.999 1775.97 977.267C1772.59 979.38 1767.1 982.337 1762.24 985.295C1759.92 986.562 1757.17 986.562 1754.85 985.295C1752.52 984.027 1751.04 981.492 1751.04 978.957C1751.04 958.464 1751.04 919.803 1751.04 906.915Z" fill="#4B4B4B" stroke="black" stroke-width="0.7031" stroke-miterlimit="1.0547" stroke-linejoin="round"/>
<path fill-rule="evenodd" clip-rule="evenodd" d="M1806.43 874.912C1806.43 872.165 1807.91 869.841 1810.23 868.574C1813.61 866.461 1819.1 863.504 1823.96 860.546C1826.28 859.278 1829.03 859.278 1831.35 860.546C1833.68 861.813 1835.16 864.348 1835.16 866.884C1835.16 887.166 1835.16 926.038 1835.16 938.925C1835.16 941.672 1833.68 943.995 1831.35 945.264C1827.97 947.376 1822.48 950.334 1817.63 953.292C1815.3 954.559 1812.56 954.559 1810.23 953.292C1807.91 952.024 1806.43 949.488 1806.43 946.953C1806.43 926.461 1806.43 887.799 1806.43 874.912Z" fill="#4B4B4B" stroke="black" stroke-width="0.7031" stroke-miterlimit="1.0547" stroke-linejoin="round"/>
<path fill-rule="evenodd" clip-rule="evenodd" d="M1860.74 843.473C1860.74 840.727 1862.21 838.403 1864.54 837.136C1877.21 829.741 1919.45 805.445 1939.73 793.615C1942.05 792.347 1944.8 792.347 1947.12 793.615C1949.45 794.882 1950.93 797.417 1950.93 799.954C1950.93 820.235 1950.93 859.107 1950.93 871.994C1950.93 874.74 1949.45 877.064 1947.12 878.332C1932.76 886.783 1882.28 915.938 1882.28 915.938C1882.28 915.938 1877 918.896 1871.72 922.065C1869.4 923.332 1866.65 923.332 1864.33 922.065C1862 920.797 1860.53 918.261 1860.53 915.726C1860.74 895.234 1860.74 856.36 1860.74 843.473Z" fill="#4B4B4B" stroke="black" stroke-width="0.7031" stroke-miterlimit="1.0547" stroke-linejoin="round"/>
<path fill-rule="evenodd" clip-rule="evenodd" d="M1493.77 1085.8C1496.93 1058.97 1502 1031.51 1510.03 1011.01C1512.99 1002.99 1516.15 995.803 1519.53 989.043C1519.53 989.043 1442.44 944.255 1442.23 944.466C1439.06 951.226 1435.68 958.832 1432.72 966.648C1424.91 987.142 1419.84 1014.61 1416.46 1041.44C1416.25 1041.86 1493.77 1085.8 1493.77 1085.8Z" fill="#282828" stroke="black" stroke-width="0.7031" stroke-miterlimit="1.0547" stroke-linejoin="round"/>
<path fill-rule="evenodd" clip-rule="evenodd" d="M1493.77 1085.8C1496.94 1058.97 1502.01 1031.51 1510.03 1011.02C1512.99 1002.99 1516.16 995.805 1519.54 989.045C1519.54 989.045 1449.84 948.693 1449.63 948.904C1446.46 955.664 1443.08 963.271 1440.12 971.088C1432.31 991.58 1427.24 1019.04 1423.86 1045.87C1423.65 1046.09 1493.77 1085.8 1493.77 1085.8Z" fill="#4B4B4B" stroke="black" stroke-width="0.7031" stroke-miterlimit="1.0547" stroke-linejoin="round"/>
<path fill-rule="evenodd" clip-rule="evenodd" d="M1449.31 929.602L1526.4 974.18L1534.43 958.756L1457.34 914.18L1449.31 929.602Z" fill="#1B1B1B" stroke="black" stroke-width="0.7031" stroke-miterlimit="1.0547" stroke-linejoin="round"/>
<path fill-rule="evenodd" clip-rule="evenodd" d="M1476.61 1151.27V1123.18L1505.54 1139.86V1167.96L1476.61 1151.27Z" fill="white"/>
<path fill-rule="evenodd" clip-rule="evenodd" d="M1392.88 1103.05V1074.95L1421.82 1091.64V1119.73L1392.88 1103.05Z" fill="white"/>
</g>
<defs>
<filter id="filter0_d" x="1362" y="0" width="1823" height="1214.49" filterUnits="userSpaceOnUse" color-interpolation-filters="sRGB">
<feFlood flood-opacity="0" result="BackgroundImageFix"/>
<feColorMatrix in="SourceAlpha" type="matrix" values="0 0 0 0 0 0 0 0 0 0 0 0 0 0 0 0 0 0 127 0"/>
<feOffset dy="4"/>
<feGaussianBlur stdDeviation="5"/>
<feColorMatrix type="matrix" values="0 0 0 0 0 0 0 0 0 0 0 0 0 0 0 0 0 0 0.25 0"/>
<feBlend mode="normal" in2="BackgroundImageFix" result="effect1_dropShadow"/>
<feBlend mode="normal" in="SourceGraphic" in2="effect1_dropShadow" result="shape"/>
</filter>
</defs>
</svg>
