<svg width="794" height="626" viewBox="0 0 794 626" fill="none" xmlns="http://www.w3.org/2000/svg">
<path d="M195.476 412.146C209.225 410.942 223.182 409.758 237.103 408.624C256.794 421.129 280.638 427.424 305.657 425.05C328.482 422.885 348.988 413.817 365.308 400.107C367.345 400.02 369.352 399.938 371.329 399.861C386.477 423.738 414.173 438.451 444.252 435.597C466.309 433.504 485.331 422.375 498.004 406.217C506.636 416.379 519.929 422.301 534.209 420.946C546.216 419.807 556.57 413.746 563.466 404.948C617.775 404.682 675.871 403.28 713.2 402.051C676.771 396.989 626.096 390.678 572.005 385.114C572.495 381.806 572.596 378.387 572.266 374.91C570.063 351.688 549.452 334.65 526.23 336.853C521.335 337.318 516.714 338.6 512.49 340.553C503.787 303.331 468.703 277.337 429.588 281.048C419.198 282.034 409.482 285.025 400.785 289.602C387.733 238.598 339.162 203.249 285.099 208.379C249.652 211.742 219.796 231.752 202.529 259.946C197.529 259.314 192.383 259.219 187.156 259.715C148.872 263.347 120.781 297.328 124.414 335.612C125.27 344.634 127.812 353.09 131.698 360.699C120.392 369.241 113.648 383.273 115.085 398.414C115.618 404.037 117.231 409.297 119.698 414.009C101.815 417.873 86.5123 421.182 75.4298 423.58C89.3419 422.139 105.328 420.536 122.672 418.858C131.13 430.763 145.537 437.95 161.12 436.471C176.623 435 189.371 425.325 195.476 412.146Z" fill="#748785"/>
<path d="M218.277 397.599C232.025 396.395 245.983 395.211 259.904 394.077C279.595 406.582 303.438 412.877 328.458 410.503C351.283 408.338 371.789 399.27 388.109 385.56C390.145 385.473 392.153 385.391 394.13 385.314C409.278 409.191 436.974 423.904 467.053 421.05C489.11 418.957 508.131 407.828 520.805 391.67C529.437 401.832 542.73 407.754 557.01 406.399C569.017 405.26 579.371 399.199 586.267 390.401C640.576 390.135 698.672 388.733 736.001 387.504C699.572 382.442 648.897 376.131 594.806 370.567C595.295 367.26 595.397 363.841 595.067 360.363C592.864 337.142 572.253 320.103 549.031 322.306C544.135 322.771 539.514 324.053 535.291 326.006C526.588 288.784 491.503 262.79 452.389 266.501C441.999 267.487 432.282 270.478 423.586 275.055C410.533 224.051 361.962 188.702 307.9 193.832C272.452 197.195 242.597 217.206 225.33 245.399C220.33 244.767 215.183 244.672 209.957 245.168C171.673 248.8 143.582 282.781 147.215 321.065C148.071 330.087 150.612 338.543 154.498 346.152C143.193 354.694 136.449 368.726 137.885 383.867C138.419 389.49 140.032 394.75 142.499 399.462C124.615 403.327 109.313 406.636 98.2305 409.034C112.143 407.593 128.129 405.989 145.473 404.311C153.931 416.216 168.338 423.403 183.921 421.924C199.424 420.453 212.171 410.778 218.277 397.599Z" fill="url(#paint0_linear)"/>
<circle r="84.927" transform="matrix(-0.967798 -0.251728 -0.251728 0.967798 331.019 285.318)" fill="url(#paint1_linear)"/>
<circle r="55.2025" transform="matrix(-0.967798 -0.251728 -0.251728 0.967798 459.732 324.646)" fill="url(#paint2_linear)"/>
<defs>
<linearGradient id="paint0_linear" x1="483.766" y1="325.046" x2="149.609" y2="572.322" gradientUnits="userSpaceOnUse">
<stop stop-color="#EAFCEC"/>
<stop offset="1" stop-color="#88A392"/>
</linearGradient>
<linearGradient id="paint1_linear" x1="84.927" y1="0" x2="84.927" y2="169.854" gradientUnits="userSpaceOnUse">
<stop stop-color="#EAFCEC"/>
<stop offset="1" stop-color="#EAFCEC"/>
</linearGradient>
<linearGradient id="paint2_linear" x1="55.2025" y1="0" x2="55.2025" y2="110.405" gradientUnits="userSpaceOnUse">
<stop stop-color="#EAFCEC"/>
<stop offset="1" stop-color="#EAFCEC"/>
</linearGradient>
</defs>
</svg>
