<svg width="98" height="81" viewBox="0 0 98 81" fill="none" xmlns="http://www.w3.org/2000/svg">
<path d="M91.9799 10.2269C92.5344 9.37317 93.0858 8.35251 93.5311 7.39248C93.8206 6.76854 94.0696 6.1609 94.2474 5.63179C94.4198 5.11866 94.5432 4.6284 94.5432 4.26079C94.5432 3.95621 94.5051 3.67319 94.3859 3.39512C94.2678 3.11952 94.0857 2.88552 93.8539 2.65427L93.8521 2.6524L93.8502 2.65056C93.6149 2.42071 93.3596 2.22285 93.0528 2.10217C92.7387 1.97861 92.4085 1.95057 92.0455 2.00112C91.3605 2.09652 90.4908 2.48636 89.2527 3.12419C87.058 4.24894 84.9566 5.07934 82.3484 5.8378L82.3477 5.83802M91.9799 10.2269L82.3477 5.83802M91.9799 10.2269C92.2883 10.1111 92.6118 9.98649 92.8785 9.87617L92.8824 9.87456L92.8863 9.87302C93.851 9.49285 94.7281 9.34272 95.4538 9.53154C96.2262 9.73249 96.7341 10.2912 96.9712 11.094L96.9721 11.0969L96.9729 11.0999C97.0601 11.4088 97.1197 11.683 97.0951 11.9719C97.0705 12.262 96.9653 12.5182 96.8299 12.799L96.8268 12.8055L96.8234 12.812C96.2578 13.9028 94.8058 15.74 93.2272 17.5053C91.6416 19.2785 89.8679 21.0462 88.6228 21.9924C88.6226 21.9925 88.6225 21.9926 88.6224 21.9927L87.857 22.5781L87.7533 25.4464C87.225 40.0436 81.2653 53.8693 71.0216 64.17L71.0214 64.1703C62.3541 72.875 51.4599 78.0631 38.4733 79.6466C37.1382 79.8193 34.5675 79.9029 32.0215 79.9052C29.4732 79.9075 26.894 79.8284 25.5427 79.6654L25.5418 79.6653C18.9255 78.855 12.4192 76.9325 6.81175 74.1381L6.81076 74.1376L6.80977 74.1371C5.53563 73.4951 4.18271 72.7408 3.11073 72.0915C2.57519 71.7671 2.10456 71.4658 1.74681 71.2155C1.56838 71.0907 1.4124 70.9746 1.28843 70.872C1.17897 70.7814 1.05115 70.6667 0.970536 70.5444C0.388565 69.6704 0.345289 68.733 0.846727 67.8981L0.850116 67.8925L0.853653 67.8869C1.0085 67.6438 1.19248 67.4252 1.43935 67.2496C1.68664 67.0736 1.97167 66.9589 2.30545 66.8882C2.94876 66.752 3.83463 66.7694 5.10936 66.8717C9.35806 67.1843 14.2839 66.5398 18.6569 65.0824L18.658 65.0821L18.6591 65.0817C19.8 64.7074 21.4619 64.0064 22.813 63.3679C23.3998 63.0905 23.9192 62.8291 24.306 62.6154C24.2826 62.6078 24.2592 62.6002 24.2358 62.5927L24.2356 62.5927C21.7418 61.7998 18.7058 59.9421 16.4734 57.863L16.4726 57.8622L16.4717 57.8614C14.8638 56.3494 13.3139 54.2095 12.2471 52.2474C11.7132 51.2655 11.2913 50.3118 11.0445 49.4888C10.9211 49.0774 10.8378 48.6867 10.8099 48.3339C10.7825 47.9873 10.8055 47.6408 10.9286 47.3412C11.1603 46.7707 11.622 46.3174 12.1777 46.0647C12.0269 45.9334 11.8302 45.7678 11.5774 45.5592L11.5764 45.5583L11.5753 45.5574C7.16682 41.8778 4.32878 36.0388 4.27161 30.4817L4.2716 30.4814C4.262 29.4964 4.26479 28.8947 4.32322 28.4967C4.35408 28.2864 4.40378 28.1043 4.49073 27.9372C4.57806 27.7693 4.68766 27.6468 4.79165 27.5428C5.16584 27.1686 5.71407 26.9645 6.24081 26.8996C6.64205 26.8501 7.07668 26.8753 7.47443 27.0007C6.77529 25.7941 5.80499 23.7973 5.45949 22.8277L5.45896 22.8262L5.45845 22.8247C3.92509 18.4347 3.98066 12.8161 5.57459 8.57232L5.57491 8.57147L5.57523 8.57063C5.96599 7.54153 6.41583 6.57356 6.83955 5.82551C7.05098 5.45224 7.26111 5.12449 7.45941 4.8685C7.64225 4.63246 7.86498 4.38993 8.11404 4.27445L8.11884 4.27222L8.12368 4.2701C8.74499 3.99782 9.35403 3.92817 9.97586 4.15911C10.5675 4.37881 11.1061 4.84809 11.6569 5.50362C11.9756 5.85886 13.104 7.06158 14.1818 8.17619C22.1077 16.3434 32.4214 21.6009 43.6607 23.1929C43.7909 23.2112 43.9187 23.2293 44.043 23.2468C44.4283 23.3012 44.7794 23.3507 45.0598 23.3895C45.1231 23.3983 45.1825 23.4065 45.2378 23.414C45.2395 23.3901 45.2411 23.3652 45.2428 23.3393C45.2652 22.9842 45.2789 22.4868 45.279 21.9335C45.2592 19.578 45.3755 18.581 45.8918 16.5365C47.8454 8.68397 54.3153 2.4983 62.2487 0.964788C63.0797 0.795519 64.0248 0.643254 64.341 0.604045C66.4381 0.332909 69.4941 0.604448 72.0083 1.2527C73.1342 1.53682 74.592 2.1389 75.9885 2.84534C77.387 3.55282 78.761 4.38368 79.7132 5.14166L79.7142 5.14249L79.7153 5.14331L81.0462 6.21432M82.3477 5.83802L81.0462 6.21432M82.3477 5.83802L81.0462 6.21432" fill="white" stroke="white" stroke-width="10"/>
</svg>
