<svg width="847" height="1047" viewBox="0 0 847 1047" fill="none" xmlns="http://www.w3.org/2000/svg">
<path d="M630.031 1046.51L0 677.779L233.883 548.418L846.494 909.404L630.031 1046.51Z" fill="black" fill-opacity="0.15"/>
<path fill-rule="evenodd" clip-rule="evenodd" d="M223.568 594.564V53.938L200.15 40.4824V581.108L223.568 594.564Z" fill="#344D4B"/>
<path fill-rule="evenodd" clip-rule="evenodd" d="M223.566 53.9419L246.984 40.4863V581.112L223.566 594.568V53.9419Z" fill="url(#paint0_linear)"/>
<path fill-rule="evenodd" clip-rule="evenodd" d="M223.568 53.9439V26.9126L200.15 13.457V40.4883L223.568 53.9439Z" fill="#344D4B"/>
<path fill-rule="evenodd" clip-rule="evenodd" d="M223.566 53.9419V26.9107L246.984 13.4551V40.4864L223.566 53.9419Z" fill="#5A827F"/>
<path fill-rule="evenodd" clip-rule="evenodd" d="M223.566 26.9111L200.147 13.4555L223.566 0L246.984 13.4555L223.566 26.9111Z" fill="url(#paint1_linear)"/>
<path fill-rule="evenodd" clip-rule="evenodd" d="M223.568 594.567V621.598L200.15 608.143V581.111L223.568 594.567Z" fill="#808080"/>
<path fill-rule="evenodd" clip-rule="evenodd" d="M246.859 580.992V608.023L223.441 621.479V594.448L246.859 580.992Z" fill="#4C4C4C"/>
<path fill-rule="evenodd" clip-rule="evenodd" d="M619.065 522.922C617.384 523.162 617.143 523.523 617.023 525.204L617.143 653.393C617.384 655.675 621.467 656.516 621.707 653.393L621.587 525.204C621.347 523.282 620.986 522.922 619.065 522.922Z" fill="#4D4D4D"/>
<path fill-rule="evenodd" clip-rule="evenodd" d="M735.319 380.8C734.599 381.28 734.599 381.28 734.118 382.001L733.998 382.842V720.673C733.998 720.673 733.278 722.355 736.28 722.956L737.121 722.836C737.841 722.355 737.841 722.355 738.322 721.634L738.442 720.793V382.962C738.442 382.962 739.162 381.28 736.16 380.68C735.92 380.8 735.68 380.8 735.319 380.8Z" fill="#4D4D4D"/>
<path fill-rule="evenodd" clip-rule="evenodd" d="M712.021 417.444C711.3 417.924 711.3 417.924 710.82 418.645L710.7 419.486V707.219L710.82 708.06C711.661 709.261 712.261 709.381 712.862 709.501L713.702 709.381C714.423 708.901 714.423 708.901 714.903 708.18L715.023 707.339V419.606L714.903 418.765C713.822 416.963 712.982 417.323 712.021 417.444Z" fill="#4D4D4D"/>
<path fill-rule="evenodd" clip-rule="evenodd" d="M688.61 450.479C687.89 450.959 687.89 450.959 687.409 451.68L687.289 452.521V693.76C687.289 693.76 686.569 695.442 689.571 696.043L690.412 695.923C691.132 695.442 691.132 695.442 691.613 694.721L691.733 693.88V452.521C691.733 452.521 692.453 450.839 689.451 450.238C689.211 450.358 688.851 450.358 688.61 450.479Z" fill="#4D4D4D"/>
<path fill-rule="evenodd" clip-rule="evenodd" d="M665.428 478.592C663.987 479.193 663.867 479.793 663.747 480.754V680.305C663.987 682.708 667.95 683.549 668.311 680.305V480.754C668.07 478.712 667.47 478.232 665.428 478.592Z" fill="#4D4D4D"/>
<path fill-rule="evenodd" clip-rule="evenodd" d="M642.129 502.619C640.568 503.099 640.568 503.339 640.448 504.781V666.729C640.688 669.131 644.651 669.852 645.012 666.729V504.781C644.892 503.7 644.772 503.7 644.531 503.339C643.931 502.859 643.571 502.378 642.129 502.619Z" fill="#4D4D4D"/>
<path fill-rule="evenodd" clip-rule="evenodd" d="M595.528 538.541C593.967 538.901 593.606 539.502 593.606 540.823V639.818C593.726 641.38 594.327 641.62 595.047 641.86C596.369 642.461 598.05 641.38 598.17 639.818V540.823C597.93 538.901 596.969 538.421 595.528 538.541Z" fill="#4D4D4D"/>
<path fill-rule="evenodd" clip-rule="evenodd" d="M548.812 554.038C547.731 554.159 546.89 555.12 546.77 556.321V612.666C546.89 614.228 547.491 614.468 548.212 614.709C549.533 615.309 551.214 614.228 551.334 612.666V556.321C551.214 555 550.133 553.918 548.812 554.038Z" fill="#4D4D4D"/>
<path fill-rule="evenodd" clip-rule="evenodd" d="M572.228 549.234C571.147 549.475 570.306 550.316 570.186 551.517V626.243C570.306 628.526 574.51 629.607 574.75 626.243V551.517C574.63 550.196 573.549 549.234 572.228 549.234Z" fill="#4D4D4D"/>
<path fill-rule="evenodd" clip-rule="evenodd" d="M525.399 552.236C524.318 552.356 523.357 553.318 523.357 554.519V599.211C523.357 600.292 523.718 600.532 523.958 600.772C525.279 602.094 527.681 601.253 527.801 599.211V554.519C527.801 553.197 526.72 552.236 525.399 552.236Z" fill="#4D4D4D"/>
<path fill-rule="evenodd" clip-rule="evenodd" d="M502.097 542.871C501.016 542.991 500.055 543.952 500.055 545.154V585.761C500.176 588.043 504.379 589.004 504.619 585.761V545.154C504.379 543.832 503.418 542.871 502.097 542.871Z" fill="#4D4D4D"/>
<path fill-rule="evenodd" clip-rule="evenodd" d="M478.676 525.207C477.475 525.327 476.635 526.288 476.635 527.49V572.181C476.755 573.503 477.235 573.863 477.716 574.104C479.037 574.945 480.958 574.104 481.078 572.181V527.49C481.078 526.168 479.997 525.207 478.676 525.207Z" fill="#4D4D4D"/>
<path fill-rule="evenodd" clip-rule="evenodd" d="M455.263 499.976C454.182 500.096 453.342 501.057 453.222 502.259V558.724C453.342 561.127 457.545 561.848 457.785 558.724V502.259C457.665 500.937 456.584 499.856 455.263 499.976Z" fill="#4D4D4D"/>
<path fill-rule="evenodd" clip-rule="evenodd" d="M431.718 467.539C430.637 467.779 429.797 468.62 429.677 469.822V545.149C429.797 547.191 430.758 547.311 431.718 547.431C432.919 547.552 434.12 546.47 434.24 545.149V469.822C434.24 468.5 433.159 467.539 431.718 467.539Z" fill="#4D4D4D"/>
<path fill-rule="evenodd" clip-rule="evenodd" d="M408.303 430.298C407.222 430.538 406.502 431.019 406.382 432.581V531.696C406.502 534.098 410.705 534.939 410.945 531.696V432.581C410.825 431.259 410.225 430.178 408.303 430.298Z" fill="#4D4D4D"/>
<path fill-rule="evenodd" clip-rule="evenodd" d="M384.767 387.407C383.326 387.887 383.086 388.128 382.966 389.569V518.118C383.086 520.521 387.169 521.362 387.529 518.118V389.569C387.409 388.608 387.289 388.608 387.169 388.248C386.689 387.647 386.208 387.167 384.767 387.407Z" fill="#4D4D4D"/>
<path fill-rule="evenodd" clip-rule="evenodd" d="M361.221 340.193C359.66 340.674 359.66 340.914 359.54 342.355V504.543C359.78 506.946 363.743 507.787 364.104 504.543V342.355C363.863 339.833 362.903 339.953 361.221 340.193Z" fill="#4D4D4D"/>
<path fill-rule="evenodd" clip-rule="evenodd" d="M337.805 289.854C336.844 290.214 336.364 290.454 336.124 292.016V491.087C336.364 493.489 340.327 494.21 340.688 491.087V292.016C340.447 289.974 339.847 289.373 337.805 289.854Z" fill="#4D4D4D"/>
<path fill-rule="evenodd" clip-rule="evenodd" d="M314.146 232.669C312.945 233.51 312.825 234.111 312.705 234.712V477.513L312.945 478.354L313.426 479.074L314.146 479.555L314.987 479.675L315.827 479.555L316.548 479.074L317.028 478.354L317.148 477.513V234.712L317.028 233.871C316.548 233.15 316.548 233.15 315.827 232.669C315.827 232.669 315.107 232.429 314.146 232.669Z" fill="#4D4D4D"/>
<path fill-rule="evenodd" clip-rule="evenodd" d="M290.733 173.683C290.253 174.043 289.652 174.284 289.292 175.725V463.939L289.412 464.78L289.892 465.501L290.613 465.981L291.454 466.101L292.294 465.981L293.015 465.501L293.495 464.78L293.615 463.939V175.725L293.495 174.884C293.015 174.164 293.015 174.164 292.294 173.683C292.534 173.683 291.694 173.443 290.733 173.683Z" fill="#4D4D4D"/>
<path fill-rule="evenodd" clip-rule="evenodd" d="M267.313 110.487C266.112 111.328 265.992 111.929 265.872 112.53V450.361L265.992 451.202L266.472 451.922L267.193 452.403L268.034 452.523L268.874 452.403L269.595 451.922L270.075 451.202L270.195 450.361V112.65L270.075 111.809C269.595 111.088 269.595 111.088 268.874 110.607C269.114 110.487 268.274 110.367 267.313 110.487Z" fill="#4D4D4D"/>
<path fill-rule="evenodd" clip-rule="evenodd" d="M243.894 42.2481L242.933 42.8488L242.213 43.6898L241.852 44.771L241.972 45.8523C264.55 115.773 290.731 184.853 318.833 252.491C348.497 323.614 380.322 394.015 421.274 458.65C439.769 487.724 459.465 516.317 486.966 538.182C501.498 549.715 518.912 557.885 537.406 559.086C562.386 560.768 587.126 550.556 608.743 536.14C640.448 514.995 666.508 486.162 689.927 456.007C717.309 420.806 741.568 383.203 761.984 343.917C761.984 343.917 763.185 343.196 761.744 340.433L760.903 339.712C759.822 339.352 759.822 339.352 758.621 339.472L757.661 340.073C756.7 341.274 756.099 342.596 755.379 343.917C734.963 382.482 711.184 419.364 684.282 453.724C661.464 482.798 636.244 510.67 605.86 530.974C579.44 548.634 546.533 560.047 516.029 548.514C495.253 540.705 478.68 524.366 464.148 507.667C441.811 481.957 423.676 452.763 406.743 423.089C366.871 353.048 334.926 278.682 305.503 204.075C284.726 151.334 265.151 98.4731 247.617 44.4106L247.016 43.0891L246.056 42.3682L244.975 42.0078C244.615 42.128 244.254 42.2481 243.894 42.2481Z" fill="#404040"/>
<path d="M734.946 387.384C732.426 387.384 730.383 385.341 730.383 382.819C730.383 380.298 732.426 378.254 734.946 378.254C737.467 378.254 739.51 380.298 739.51 382.819C739.51 385.341 737.467 387.384 734.946 387.384Z" fill="#F9F1B7"/>
<path d="M759.28 343.527C756.76 343.527 754.716 341.483 754.716 338.962C754.716 336.44 756.76 334.396 759.28 334.396C761.801 334.396 763.844 336.44 763.844 338.962C763.844 341.483 761.801 343.527 759.28 343.527Z" fill="#F9F1B7"/>
<path d="M711.366 423.746C708.846 423.746 706.802 421.702 706.802 419.181C706.802 416.659 708.846 414.615 711.366 414.615C713.887 414.615 715.93 416.659 715.93 419.181C715.93 421.702 713.887 423.746 711.366 423.746Z" fill="#F9F1B7"/>
<path d="M688.013 455.322C685.492 455.322 683.449 453.278 683.449 450.757C683.449 448.235 685.492 446.191 688.013 446.191C690.533 446.191 692.576 448.235 692.576 450.757C692.576 453.278 690.533 455.322 688.013 455.322Z" fill="#F9F1B7"/>
<path d="M665.229 482.961C662.709 482.961 660.666 480.917 660.666 478.395C660.666 475.874 662.709 473.83 665.229 473.83C667.75 473.83 669.793 475.874 669.793 478.395C669.793 480.917 667.75 482.961 665.229 482.961Z" fill="#F9F1B7"/>
<path d="M641.305 508.32C638.785 508.32 636.742 506.276 636.742 503.755C636.742 501.233 638.785 499.189 641.305 499.189C643.826 499.189 645.869 501.233 645.869 503.755C645.869 506.276 643.826 508.32 641.305 508.32Z" fill="#F9F1B7"/>
<path d="M618.034 527.064C615.514 527.064 613.47 525.02 613.47 522.499C613.47 519.978 615.514 517.934 618.034 517.934C620.554 517.934 622.598 519.978 622.598 522.499C622.598 525.02 620.554 527.064 618.034 527.064Z" fill="#F9F1B7"/>
<path d="M594.325 543.224C591.805 543.224 589.761 541.18 589.761 538.659C589.761 536.138 591.805 534.094 594.325 534.094C596.845 534.094 598.889 536.138 598.889 538.659C598.889 541.18 596.845 543.224 594.325 543.224Z" fill="#F9F1B7"/>
<path d="M571.436 553.363C568.916 553.363 566.873 551.319 566.873 548.798C566.873 546.276 568.916 544.232 571.436 544.232C573.957 544.232 576 546.276 576 548.798C576 551.319 573.957 553.363 571.436 553.363Z" fill="#F9F1B7"/>
<path d="M548.143 558.545C545.623 558.545 543.58 556.501 543.58 553.979C543.58 551.458 545.623 549.414 548.143 549.414C550.664 549.414 552.707 551.458 552.707 553.979C552.707 556.501 550.664 558.545 548.143 558.545Z" fill="#F9F1B7"/>
<path d="M524.44 556.672C521.92 556.672 519.877 554.628 519.877 552.106C519.877 549.585 521.92 547.541 524.44 547.541C526.961 547.541 529.004 549.585 529.004 552.106C529.004 554.628 526.961 556.672 524.44 556.672Z" fill="#F9F1B7"/>
<path d="M501.366 547.308C498.846 547.308 496.802 545.264 496.802 542.743C496.802 540.222 498.846 538.178 501.366 538.178C503.887 538.178 505.93 540.222 505.93 542.743C505.93 545.264 503.887 547.308 501.366 547.308Z" fill="#F9F1B7"/>
<path d="M478.296 530.711C475.775 530.711 473.732 528.667 473.732 526.145C473.732 523.624 475.775 521.58 478.296 521.58C480.816 521.58 482.859 523.624 482.859 526.145C482.859 528.667 480.816 530.711 478.296 530.711Z" fill="#F9F1B7"/>
<path d="M455.356 505.931C452.836 505.931 450.793 503.887 450.793 501.366C450.793 498.845 452.836 496.801 455.356 496.801C457.877 496.801 459.92 498.845 459.92 501.366C459.92 503.887 457.877 505.931 455.356 505.931Z" fill="#F9F1B7"/>
<path d="M431.905 473.951C429.385 473.951 427.342 471.907 427.342 469.386C427.342 466.864 429.385 464.82 431.905 464.82C434.426 464.82 436.469 466.864 436.469 469.386C436.469 471.907 434.426 473.951 431.905 473.951Z" fill="#F9F1B7"/>
<path d="M409.081 436.849C406.56 436.849 404.517 434.805 404.517 432.284C404.517 429.763 406.56 427.719 409.081 427.719C411.601 427.719 413.645 429.763 413.645 432.284C413.645 434.805 411.601 436.849 409.081 436.849Z" fill="#F9F1B7"/>
<path d="M385.806 395.199C383.285 395.199 381.242 393.155 381.242 390.634C381.242 388.112 383.285 386.068 385.806 386.068C388.326 386.068 390.369 388.112 390.369 390.634C390.369 393.155 388.326 395.199 385.806 395.199Z" fill="#F9F1B7"/>
<path d="M385.806 395.199C383.285 395.199 381.242 393.155 381.242 390.634C381.242 388.112 383.285 386.068 385.806 386.068C388.326 386.068 390.369 388.112 390.369 390.634C390.369 393.155 388.326 395.199 385.806 395.199Z" fill="#F9F1B7"/>
<path d="M361.985 348.101C359.465 348.101 357.422 346.057 357.422 343.536C357.422 341.015 359.465 338.971 361.985 338.971C364.506 338.971 366.549 341.015 366.549 343.536C366.549 346.057 364.506 348.101 361.985 348.101Z" fill="#F9F1B7"/>
<path d="M338.368 295.773C335.848 295.773 333.804 293.729 333.804 291.208C333.804 288.687 335.848 286.643 338.368 286.643C340.888 286.643 342.932 288.687 342.932 291.208C342.932 293.729 340.888 295.773 338.368 295.773Z" fill="#F9F1B7"/>
<path d="M315.616 242.355C313.096 242.355 311.052 240.311 311.052 237.79C311.052 235.269 313.096 233.225 315.616 233.225C318.136 233.225 320.18 235.269 320.18 237.79C320.18 240.311 318.136 242.355 315.616 242.355Z" fill="#F9F1B7"/>
<path d="M291.259 181.207C288.738 181.207 286.695 179.163 286.695 176.641C286.695 174.12 288.738 172.076 291.259 172.076C293.779 172.076 295.822 174.12 295.822 176.641C295.822 179.163 293.779 181.207 291.259 181.207Z" fill="#F9F1B7"/>
<path d="M268.593 118.22C266.072 118.22 264.029 116.176 264.029 113.655C264.029 111.134 266.072 109.09 268.593 109.09C271.113 109.09 273.156 111.134 273.156 113.655C273.156 116.176 271.113 118.22 268.593 118.22Z" fill="#F9F1B7"/>
<path d="M244.407 47.8923C241.887 47.8923 239.844 45.8483 239.844 43.327C239.844 40.8057 241.887 38.7617 244.407 38.7617C246.928 38.7617 248.971 40.8057 248.971 43.327C248.971 45.8483 246.928 47.8923 244.407 47.8923Z" fill="#F9F1B7"/>
<path fill-rule="evenodd" clip-rule="evenodd" d="M151.206 436.914L34.2341 504.432L677.703 876.263L794.676 808.624L151.206 436.914Z" fill="#C4C4C4"/>
<path fill-rule="evenodd" clip-rule="evenodd" d="M221.468 450.37L244.887 436.914L759.734 734.258L736.316 747.714L221.468 450.37Z" fill="url(#paint2_linear)"/>
<path fill-rule="evenodd" clip-rule="evenodd" d="M759.592 906.628V366.002L736.173 352.547V893.172L759.592 906.628Z" fill="#344D4B"/>
<path fill-rule="evenodd" clip-rule="evenodd" d="M759.591 365.999L783.01 352.543V893.169L759.591 906.624V365.999Z" fill="#5A827F"/>
<path fill-rule="evenodd" clip-rule="evenodd" d="M759.592 365.997V338.965L736.173 325.51V352.541L759.592 365.997Z" fill="#344D4B"/>
<path fill-rule="evenodd" clip-rule="evenodd" d="M759.591 366.001V338.969L783.01 325.514V352.545L759.591 366.001Z" fill="#5A827F"/>
<path fill-rule="evenodd" clip-rule="evenodd" d="M759.591 338.97L736.173 325.514L759.591 312.059L783.01 325.514L759.591 338.97Z" fill="url(#paint3_linear)"/>
<path fill-rule="evenodd" clip-rule="evenodd" d="M759.592 906.626V933.657L736.173 920.201V893.17L759.592 906.626Z" fill="#4C4C4C"/>
<path fill-rule="evenodd" clip-rule="evenodd" d="M783.01 893.051V920.082L759.591 933.538V906.506L783.01 893.051Z" fill="#808080"/>
<path fill-rule="evenodd" clip-rule="evenodd" d="M151.24 409.869L34.2672 477.387L677.736 849.218L794.709 781.579L151.24 409.869Z" fill="#808080"/>
<path fill-rule="evenodd" clip-rule="evenodd" d="M151.24 409.869L34.2672 477.387L677.736 849.218L794.709 781.579L151.24 409.869Z" fill="url(#paint4_linear)"/>
<path fill-rule="evenodd" clip-rule="evenodd" d="M34.2572 504.463V477.432L57.6758 518.039L34.2572 504.463Z" fill="#5A8275"/>
<path fill-rule="evenodd" clip-rule="evenodd" d="M57.666 490.945V517.976L34.2474 477.369L57.666 490.945Z" fill="#5A8275"/>
<path fill-rule="evenodd" clip-rule="evenodd" d="M82.6421 405.56C82.6421 405.56 110.864 376.126 141.128 358.225C170.311 341.046 199.615 337.922 199.615 337.922L223.033 351.377C223.033 351.377 193.73 354.501 164.547 371.681C134.163 389.462 106.061 419.016 106.061 419.016L82.6421 405.56Z" fill="#344D4B"/>
<path fill-rule="evenodd" clip-rule="evenodd" d="M82.647 366.929L106.066 380.385C106.066 380.385 123.84 381.706 152.903 364.887C181.966 348.068 220.156 314.669 223.158 312.747L199.74 299.291C196.737 301.213 158.547 334.612 129.484 351.431C100.421 368.251 82.647 366.929 82.647 366.929Z" fill="#5A827F"/>
<path fill-rule="evenodd" clip-rule="evenodd" d="M200.162 283.807L223.58 297.263L165.094 276.96L141.675 263.504L200.162 283.807Z" fill="#344D4B"/>
<path fill-rule="evenodd" clip-rule="evenodd" d="M223.514 189.137L200.095 175.682L141.609 263.503L165.027 276.959L223.514 189.137Z" fill="#5A827F"/>
<path fill-rule="evenodd" clip-rule="evenodd" d="M200.162 175.682L223.58 189.138L165.094 168.834L141.675 155.379L200.162 175.682Z" fill="#344D4B"/>
<path fill-rule="evenodd" clip-rule="evenodd" d="M223.52 81.0102L200.101 67.5547L141.615 155.376L165.033 168.832L223.52 81.0102Z" fill="#5A827F"/>
<path fill-rule="evenodd" clip-rule="evenodd" d="M164.967 277.081L141.548 263.625L83.0618 351.447L106.48 364.902L164.967 277.081Z" fill="#5A827F"/>
<path fill-rule="evenodd" clip-rule="evenodd" d="M141.619 263.505L165.037 276.96L106.551 256.657L83.1323 243.201L141.619 263.505Z" fill="#344D4B"/>
<path fill-rule="evenodd" clip-rule="evenodd" d="M164.967 168.956L141.548 155.5L83.0618 243.322L106.48 256.777L164.967 168.956Z" fill="#344D4B"/>
<path fill-rule="evenodd" clip-rule="evenodd" d="M141.621 155.378L165.039 168.833L106.553 148.53L83.1343 135.074L141.621 155.378Z" fill="#5A827F"/>
<path fill-rule="evenodd" clip-rule="evenodd" d="M83.0971 134.007C83.0971 134.007 111.319 104.573 141.583 86.6726C170.767 69.4927 200.07 66.3691 200.07 66.3691L223.488 79.8247C223.488 79.8247 194.185 82.9483 165.002 100.128C134.618 117.909 106.516 147.463 106.516 147.463L83.0971 134.007Z" fill="#344D4B"/>
<path fill-rule="evenodd" clip-rule="evenodd" d="M83.0971 106.976C83.0971 106.976 111.319 77.5421 141.583 59.6413C170.767 42.4615 200.07 39.3379 200.07 39.3379L223.488 52.7934C223.488 52.7934 194.185 55.917 165.002 73.0969C134.618 90.8775 106.516 120.432 106.516 120.432L83.0971 106.976Z" fill="#97BCB9"/>
<path fill-rule="evenodd" clip-rule="evenodd" d="M80.9922 676.794V136.168L57.5736 122.713V663.339L80.9922 676.794Z" fill="#344D4B"/>
<path fill-rule="evenodd" clip-rule="evenodd" d="M80.9935 136.17L104.412 122.715V663.341L80.9935 676.796V136.17Z" fill="url(#paint5_linear)"/>
<path fill-rule="evenodd" clip-rule="evenodd" d="M80.9922 136.17V109.139L57.5736 95.6836V122.715L80.9922 136.17Z" fill="#344D4B"/>
<path fill-rule="evenodd" clip-rule="evenodd" d="M80.9935 136.172V109.141L104.412 95.6855V122.717L80.9935 136.172Z" fill="#5A827F"/>
<path fill-rule="evenodd" clip-rule="evenodd" d="M80.9935 109.14L57.5749 95.6841L80.9935 82.2285L104.412 95.6841L80.9935 109.14Z" fill="url(#paint6_linear)"/>
<path fill-rule="evenodd" clip-rule="evenodd" d="M80.9922 676.799V703.831L57.5736 690.375V663.344L80.9922 676.799Z" fill="#4C4C4C"/>
<path fill-rule="evenodd" clip-rule="evenodd" d="M104.412 663.34V690.371L80.9935 703.827V676.795L104.412 663.34Z" fill="#808080"/>
<path fill-rule="evenodd" clip-rule="evenodd" d="M595.912 828.927L619.33 815.471L104.483 518.127L81.064 531.703L595.912 828.927Z" fill="url(#paint7_linear)"/>
<path fill-rule="evenodd" clip-rule="evenodd" d="M794.705 781.621V808.652L771.287 795.197L794.705 781.621Z" fill="#496A67"/>
<path fill-rule="evenodd" clip-rule="evenodd" d="M771.311 822.107L747.892 835.563L771.311 795.076V822.107Z" fill="#496A67"/>
<path fill-rule="evenodd" clip-rule="evenodd" d="M794.723 808.653L771.304 795.197V822.228L794.723 808.653Z" fill="#496A67"/>
<path fill-rule="evenodd" clip-rule="evenodd" d="M747.906 808.654V835.686L724.488 822.23L747.906 808.654Z" fill="#496A67"/>
<path fill-rule="evenodd" clip-rule="evenodd" d="M724.521 849.139L701.103 862.594L724.521 822.107V849.139Z" fill="#496A67"/>
<path fill-rule="evenodd" clip-rule="evenodd" d="M747.939 835.686L724.521 822.23V849.262L747.939 835.686Z" fill="#496A67"/>
<path fill-rule="evenodd" clip-rule="evenodd" d="M701.121 835.682V862.713L677.703 849.257L701.121 835.682Z" fill="#496A67"/>
<path fill-rule="evenodd" clip-rule="evenodd" d="M701.146 862.715L677.728 849.26V876.291L701.146 862.715Z" fill="#496A67"/>
<path fill-rule="evenodd" clip-rule="evenodd" d="M747.991 808.654V835.685L771.289 795.078L747.991 808.654Z" fill="#496A67"/>
<path fill-rule="evenodd" clip-rule="evenodd" d="M724.568 822.107L701.15 835.563V862.594L724.568 822.107Z" fill="#496A67"/>
<path fill-rule="evenodd" clip-rule="evenodd" d="M677.707 849.199V876.23L654.769 862.895L677.707 849.199Z" fill="#5A8275"/>
<path fill-rule="evenodd" clip-rule="evenodd" d="M677.707 849.081L654.769 835.865L654.288 862.536L677.707 849.081Z" fill="#5A8275"/>
<path fill-rule="evenodd" clip-rule="evenodd" d="M631.471 822.418L654.77 835.994V863.025L631.471 822.418Z" fill="#5A8275"/>
<path fill-rule="evenodd" clip-rule="evenodd" d="M654.803 862.86L631.384 822.373V849.284L654.803 862.86Z" fill="#5A8275"/>
<path d="M302.054 495.792L602 671.362L490.653 732.957L199 561.074L302.054 495.792Z" fill="black" fill-opacity="0.15"/>
<path fill-rule="evenodd" clip-rule="evenodd" d="M304.179 420.914L428.53 493.089C431.811 494.993 431.859 499.715 428.618 501.686L359.713 543.579L226.395 468.093L304.179 420.914Z" fill="url(#paint8_linear)"/>
<path fill-rule="evenodd" clip-rule="evenodd" d="M294.821 417.568C299.471 414.748 305.282 414.665 310.01 417.352L413.059 475.906C422.997 481.553 423.219 495.797 413.462 501.751L365.416 531.071C360.768 533.907 354.949 534.002 350.211 531.32L246.835 472.787C236.863 467.141 236.649 452.851 246.447 446.909L294.821 417.568Z" fill="url(#paint9_linear)"/>
<path fill-rule="evenodd" clip-rule="evenodd" d="M296.846 419.462C300.945 416.976 306.068 416.903 310.236 419.271L401.073 470.887C409.834 475.865 410.03 488.421 401.428 493.67L359.075 519.515C354.979 522.015 349.849 522.099 345.673 519.735L254.546 468.138C245.756 463.161 245.567 450.565 254.204 445.326L296.846 419.462Z" fill="url(#paint10_linear)"/>
<path d="M360.323 543.593L226.781 467.789V543.593L360.323 630.328V543.593Z" fill="url(#paint11_linear)"/>
<path d="M349.333 553.763L235.792 486.477C229.126 482.526 220.693 487.331 220.693 495.08V529.337C220.693 532.723 222.407 535.879 225.246 537.724L338.788 611.469C345.44 615.79 354.235 611.015 354.235 603.082V562.366C354.235 558.834 352.371 555.564 349.333 553.763Z" fill="url(#paint12_linear)"/>
<path d="M353.199 598.046L231.721 525.007C227.784 522.639 222.69 524.896 221.797 529.403C221.266 532.086 222.436 534.82 224.744 536.288L344.345 612.361C349.948 615.925 357.279 611.9 357.279 605.259C357.279 602.306 355.73 599.568 353.199 598.046Z" fill="url(#paint13_linear)"/>
<path d="M356.511 609.616L222.115 526.136C221.059 525.48 220.602 524.178 221.017 523.006C221.586 521.396 223.51 520.74 224.945 521.665L357.901 607.421C358.271 607.66 358.495 608.071 358.495 608.512C358.495 609.531 357.376 610.153 356.511 609.616Z" fill="url(#paint14_linear)"/>
<path d="M345.104 597.109V563.783L331.112 555.451V588.778L345.104 597.109Z" fill="#43525C"/>
<path d="M298.229 567.583V534.256L266.877 515.271V548.449L298.229 567.583Z" fill="#43525C"/>
<path d="M335.971 591.934V558.608L304.619 539.623V572.801L335.971 591.934Z" fill="#43525C"/>
<path d="M258.658 543.233V509.907L227.307 490.922V524.099L258.658 543.233Z" fill="#43525C"/>
<path d="M252.747 565.822C252.747 572.988 258.304 583.798 265.406 588.018C267.791 589.436 270.036 589.916 271.967 589.657C275.786 589.145 278.374 585.743 278.374 580.984C278.374 573.819 272.044 562.384 265.406 558.945C258.768 554.881 252.747 558.657 252.747 565.822Z" fill="url(#paint15_linear)"/>
<path d="M252.747 565.822C252.747 572.988 258.304 583.798 265.406 588.018C267.791 589.436 270.036 589.916 271.967 589.657C275.786 589.145 278.374 585.743 278.374 580.984C278.374 573.819 272.044 562.384 265.406 558.945C258.768 554.881 252.747 558.657 252.747 565.822Z" fill="url(#paint16_linear)"/>
<path d="M258.731 570.314C258.731 574.085 261.673 579.775 265.433 581.996C266.696 582.742 267.884 582.995 268.907 582.858C270.928 582.589 272.298 580.799 272.298 578.294C272.298 574.523 268.947 568.504 265.433 566.694C261.919 564.555 258.731 566.543 258.731 570.314Z" fill="#8EBCAF"/>
<path d="M258.731 570.314C258.731 574.085 261.673 579.775 265.433 581.996C266.696 582.742 267.884 582.995 268.907 582.858C270.928 582.589 272.298 580.799 272.298 578.294C272.298 574.523 268.947 568.504 265.433 566.694C261.919 564.555 258.731 566.543 258.731 570.314Z" fill="#8EBCAF"/>
<ellipse rx="3.65257" ry="3.34819" transform="matrix(-1 0 0 1 433.375 499.141)" fill="#7C8082"/>
<path d="M362.458 541.486L429.44 500.989C432.773 498.975 437.027 501.374 437.027 505.268V580.969C437.027 582.703 436.128 584.314 434.652 585.225L367.67 626.54C364.338 628.595 360.045 626.198 360.045 622.284V545.765C360.045 544.015 360.96 542.392 362.458 541.486Z" fill="url(#paint17_linear)"/>
<path d="M363.675 545.139L430.657 504.642C433.99 502.627 438.244 505.026 438.244 508.92V584.621C438.244 586.356 437.345 587.966 435.869 588.877L368.886 630.192C365.555 632.247 361.261 629.851 361.261 625.937V549.418C361.261 547.667 362.177 546.044 363.675 545.139Z" fill="url(#paint18_linear)"/>
<path d="M368.546 548.182L435.528 507.685C438.861 505.67 443.115 508.069 443.115 511.963V587.664C443.115 589.399 442.216 591.009 440.74 591.92L373.757 633.235C370.426 635.29 366.133 632.894 366.133 628.98V552.461C366.133 550.71 367.048 549.087 368.546 548.182Z" fill="url(#paint19_linear)"/>
<path d="M372.807 550.617L439.79 510.12C443.122 508.106 447.377 510.505 447.377 514.399V590.1C447.377 591.834 446.478 593.445 445.002 594.355L378.019 635.671C374.688 637.725 370.394 635.329 370.394 631.415V554.896C370.394 553.146 371.31 551.523 372.807 550.617Z" fill="url(#paint20_linear)"/>
<path d="M377.677 553.66L444.659 513.163C447.991 511.148 452.246 513.548 452.246 517.442V593.143C452.246 594.877 451.347 596.488 449.871 597.398L382.888 638.714C379.557 640.768 375.263 638.372 375.263 634.458V557.939C375.263 556.189 376.179 554.566 377.677 553.66Z" fill="url(#paint21_linear)"/>
<rect width="10.3489" height="3.65257" rx="1.82628" transform="matrix(-0.866025 0.5 0.5 0.866025 401.717 518.928)" fill="#E3A66E"/>
<rect width="10.3489" height="3.65257" rx="1.82628" transform="matrix(-0.866025 0.5 0.5 0.866025 416.328 510.404)" fill="#E3A66E"/>
<rect width="10.3489" height="3.65257" rx="1.82628" transform="matrix(-0.866025 0.5 0.5 0.866025 385.891 528.668)" fill="#E3A66E"/>
<path fill-rule="evenodd" clip-rule="evenodd" d="M460.023 517.1L584.374 589.275C587.655 591.179 587.703 595.9 584.461 597.871L515.557 639.765L382.238 564.279L460.023 517.1Z" fill="url(#paint22_linear)"/>
<path fill-rule="evenodd" clip-rule="evenodd" d="M450.665 513.754C455.314 510.933 461.126 510.851 465.854 513.537L568.902 572.091C578.841 577.739 579.063 591.983 569.305 597.937L521.259 627.256C516.612 630.092 510.793 630.188 506.055 627.505L402.679 568.972C392.707 563.326 392.493 549.037 402.29 543.094L450.665 513.754Z" fill="url(#paint23_linear)"/>
<path fill-rule="evenodd" clip-rule="evenodd" d="M452.69 515.648C456.788 513.162 461.911 513.089 466.079 515.457L556.917 567.073C565.677 572.051 565.873 584.607 557.272 589.856L514.919 615.701C510.822 618.201 505.693 618.285 501.516 615.92L410.39 564.323C401.6 559.346 401.411 546.75 410.048 541.512L452.69 515.648Z" fill="url(#paint24_linear)"/>
<path d="M516.164 639.777L382.623 563.973V639.777L516.164 726.512V639.777Z" fill="url(#paint25_linear)"/>
<path d="M505.175 649.947L391.633 582.66C384.967 578.71 376.535 583.515 376.535 591.263V625.521C376.535 628.907 378.249 632.063 381.088 633.907L494.63 707.652C501.282 711.973 510.077 707.199 510.077 699.266V658.55C510.077 655.018 508.213 651.748 505.175 649.947Z" fill="url(#paint26_linear)"/>
<path d="M509.041 694.23L387.563 621.191C383.625 618.823 378.531 621.08 377.639 625.587C377.108 628.27 378.278 631.004 380.586 632.472L500.186 708.545C505.79 712.109 513.12 708.084 513.12 701.443C513.12 698.489 511.572 695.752 509.041 694.23Z" fill="url(#paint27_linear)"/>
<path d="M512.353 705.799L377.957 622.32C376.901 621.664 376.444 620.362 376.859 619.19C377.428 617.58 379.352 616.923 380.787 617.849L513.742 703.604C514.113 703.844 514.337 704.255 514.337 704.696C514.337 705.715 513.218 706.337 512.353 705.799Z" fill="url(#paint28_linear)"/>
<path d="M503.379 691.467V658.14L489.387 649.809V683.135L503.379 691.467Z" fill="#43525C"/>
<path d="M396.846 628.764V595.437L382.854 587.105V620.432L396.846 628.764Z" fill="#43525C"/>
<path d="M478.42 677.768V644.442L447.069 625.457V658.635L478.42 677.768Z" fill="#43525C"/>
<path d="M436.416 652.2V618.874L405.065 599.889V633.066L436.416 652.2Z" fill="#43525C"/>
<path d="M395.807 651.656C395.807 658.822 401.365 669.632 408.467 673.852C410.851 675.27 413.097 675.75 415.028 675.491C418.847 674.979 421.435 671.577 421.435 666.818C421.435 659.653 415.105 648.218 408.467 644.779C401.828 640.715 395.807 644.491 395.807 651.656Z" fill="url(#paint29_linear)"/>
<path d="M395.807 651.656C395.807 658.822 401.365 669.632 408.467 673.852C410.851 675.27 413.097 675.75 415.028 675.491C418.847 674.979 421.435 671.577 421.435 666.818C421.435 659.653 415.105 648.218 408.467 644.779C401.828 640.715 395.807 644.491 395.807 651.656Z" fill="url(#paint30_linear)"/>
<path d="M401.793 656.146C401.793 659.917 404.736 665.607 408.495 667.828C409.758 668.574 410.947 668.827 411.969 668.69C413.991 668.421 415.361 666.631 415.361 664.126C415.361 660.355 412.01 654.336 408.495 652.526C404.981 650.387 401.793 652.375 401.793 656.146Z" fill="#8EBCAF"/>
<path d="M401.793 656.146C401.793 659.917 404.736 665.607 408.495 667.828C409.758 668.574 410.947 668.827 411.969 668.69C413.991 668.421 415.361 666.631 415.361 664.126C415.361 660.355 412.01 654.336 408.495 652.526C404.981 650.387 401.793 652.375 401.793 656.146Z" fill="#8EBCAF"/>
<path d="M450.594 686.356C450.594 693.521 456.152 704.331 463.254 708.552C465.638 709.969 467.884 710.449 469.815 710.19C473.634 709.679 476.222 706.277 476.222 701.518C476.222 694.352 469.892 682.917 463.254 679.478C456.615 675.414 450.594 679.19 450.594 686.356Z" fill="url(#paint31_linear)"/>
<path d="M450.594 686.356C450.594 693.521 456.152 704.331 463.254 708.552C465.638 709.969 467.884 710.449 469.815 710.19C473.634 709.679 476.222 706.277 476.222 701.518C476.222 694.352 469.892 682.917 463.254 679.478C456.615 675.414 450.594 679.19 450.594 686.356Z" fill="url(#paint32_linear)"/>
<path d="M456.579 690.847C456.579 694.618 459.521 700.308 463.281 702.529C464.543 703.275 465.732 703.528 466.754 703.392C468.776 703.122 470.146 701.332 470.146 698.827C470.146 695.056 466.795 689.037 463.281 687.227C459.766 685.088 456.579 687.076 456.579 690.847Z" fill="#8EBCAF"/>
<path d="M456.579 690.847C456.579 694.618 459.521 700.308 463.281 702.529C464.543 703.275 465.732 703.528 466.754 703.392C468.776 703.122 470.146 701.332 470.146 698.827C470.146 695.056 466.795 689.037 463.281 687.227C459.766 685.088 456.579 687.076 456.579 690.847Z" fill="#8EBCAF"/>
<ellipse rx="3.65257" ry="3.34819" transform="matrix(-1 0 0 1 589.215 595.325)" fill="#7C8082"/>
<path d="M515.885 639.129L585.28 597.173C588.613 595.158 592.867 597.558 592.867 601.452V679.943L515.885 727.427V639.129Z" fill="url(#paint33_linear)"/>
<path d="M518.32 708.251L587.908 670.281C591.24 668.463 595.303 670.875 595.303 674.67V680.856L518.32 723.774V708.251Z" fill="#3A7496"/>
<path d="M529.231 643.242L581.639 611.748C584.972 609.745 589.215 612.145 589.215 616.033V651.951C589.215 655.47 587.366 658.729 584.346 660.534L531.947 691.856C528.614 693.849 524.382 691.448 524.382 687.565V651.813C524.382 648.303 526.222 645.05 529.231 643.242Z" fill="url(#paint34_linear)"/>
<path d="M546.601 635.812L529.355 683.295C527.73 687.77 532.685 691.769 536.716 689.236L545.993 683.404L550.863 680.343L564.059 672.048C565.961 670.853 567.405 669.052 568.158 666.936L584.559 620.88C586.13 616.467 581.315 612.51 577.29 614.907L568.517 620.132L550.863 680.343L545.993 683.404L564.256 622.67L550.884 630.634C548.902 631.815 547.389 633.644 546.601 635.812Z" fill="url(#paint35_linear)"/>
<path d="M529.231 642.633L581.639 611.138C584.972 609.136 589.215 611.536 589.215 615.424V616.406C589.215 619.941 587.349 623.213 584.306 625.013L531.927 655.998C528.594 657.969 524.382 655.567 524.382 651.694V651.204C524.382 647.694 526.222 644.441 529.231 642.633Z" fill="#363E44"/>
<path d="M520.083 717.509L591.371 674.476C594.704 672.465 598.955 674.865 598.955 678.757V679.778C598.955 683.281 597.122 686.528 594.123 688.339L522.834 731.371C519.502 733.383 515.25 730.983 515.25 727.091V726.07C515.25 722.567 517.083 719.319 520.083 717.509Z" fill="#363E44"/>
<path d="M575.279 690.901C575.279 694.62 576.237 697.87 577.655 700.111C579.093 702.383 580.767 703.316 582.215 703.316C583.662 703.316 585.336 702.383 586.774 700.111C588.192 697.87 589.15 694.62 589.15 690.901C589.15 687.182 588.192 683.932 586.774 681.691C585.336 679.419 583.662 678.486 582.215 678.486C580.767 678.486 579.093 679.419 577.655 681.691C576.237 683.932 575.279 687.182 575.279 690.901Z" stroke="#62747C" stroke-width="5"/>
<path d="M548.494 706.12C548.494 709.839 549.452 713.088 550.87 715.329C552.308 717.602 553.982 718.534 555.429 718.534C556.877 718.534 558.551 717.602 559.989 715.329C561.407 713.088 562.365 709.839 562.365 706.12C562.365 702.4 561.407 699.151 559.989 696.91C558.551 694.638 556.877 693.705 555.429 693.705C553.982 693.705 552.308 694.638 550.87 696.91C549.452 699.151 548.494 702.4 548.494 706.12Z" stroke="#62747C" stroke-width="5"/>
<path d="M581.751 691.6L570.387 682.704L571.761 697.071L581.751 691.6Z" stroke="#B24B53" stroke-width="5"/>
<path d="M548.127 690.586C547.021 690.31 546.241 689.321 546.232 688.181C546.223 687.04 546.986 686.038 548.088 685.745L552.407 684.593L565.573 678.01C566.286 677.654 567.125 677.659 567.834 678.023C568.542 678.387 569.035 679.066 569.16 679.853L572.507 700.855C572.666 701.85 572.211 702.844 571.354 703.374C570.498 703.905 569.406 703.869 568.586 703.283L552.232 691.609L548.127 690.586Z" stroke="#B24B53" stroke-width="5" stroke-linejoin="round"/>
<path d="M563.275 679.571C562.308 681.053 563.598 682.968 565.335 682.628L570.368 681.64C571.772 681.365 572.441 679.747 571.642 678.56L569.413 675.253C568.613 674.066 566.863 674.079 566.08 675.277L563.275 679.571Z" fill="#363E44"/>
<path d="M554.303 719.043L584.477 700.655C586.02 699.715 587.998 700.826 587.998 702.633C587.998 704.248 587.156 705.747 585.777 706.588L555.602 724.976C554.059 725.916 552.081 724.806 552.081 722.998C552.081 721.383 552.923 719.884 554.303 719.043Z" fill="#363E44"/>
<path d="M576.945 621.057C576.945 623.255 575.876 623.445 574.557 623.445V622.649C575.436 622.649 576.149 621.758 576.149 620.658C576.149 619.559 575.436 618.668 574.557 618.668C573.678 618.668 572.965 619.559 572.965 620.658C572.965 621.681 573.581 622.523 574.375 622.636V623.458C573.581 623.571 572.965 624.413 572.965 625.435C572.965 626.534 573.678 627.425 574.557 627.425C575.436 627.425 576.149 626.534 576.149 625.435L576.626 626.629C576.213 628.057 575.441 629.017 574.557 629.017C573.238 629.017 572.169 626.879 572.169 624.241V621.057C572.169 618.858 573.238 617.076 574.557 617.076C575.876 617.076 576.945 618.858 576.945 621.057Z" fill="#E3A66E"/>
<path d="M582.518 617.873C582.518 620.071 581.448 620.261 580.129 620.261V619.465C581.009 619.465 581.722 618.574 581.722 617.475C581.722 616.376 581.009 615.485 580.129 615.485C579.25 615.485 578.537 616.376 578.537 617.475C578.537 618.497 579.154 619.339 579.947 619.452V620.274C579.154 620.387 578.537 621.229 578.537 622.251C578.537 623.35 579.25 624.242 580.129 624.242C581.009 624.242 581.722 623.35 581.722 622.251L582.198 623.445C581.785 624.873 581.013 625.834 580.129 625.834C578.81 625.834 577.741 623.695 577.741 621.057V617.873C577.741 615.675 578.81 613.893 580.129 613.893C581.448 613.893 582.518 615.675 582.518 617.873Z" fill="#E3A66E"/>
<rect width="10.3489" height="3.65257" rx="1.82628" transform="matrix(-0.866025 0.5 0.5 0.866025 557.559 615.109)" fill="#E3A66E"/>
<rect width="10.3489" height="3.65257" rx="1.82628" transform="matrix(-0.866025 0.5 0.5 0.866025 572.17 606.586)" fill="#E3A66E"/>
<rect width="10.3489" height="3.65257" rx="1.82628" transform="matrix(-0.866025 0.5 0.5 0.866025 541.732 624.85)" fill="#E3A66E"/>
<rect width="6.18018" height="2.18124" rx="1.09062" transform="matrix(-0.866025 0.5 0.5 0.866025 534.188 705.234)" fill="#E3A66E"/>
<rect width="6.18018" height="2.18124" rx="1.09062" transform="matrix(-0.866025 0.5 0.5 0.866025 588.732 671.725)" fill="#E3A66E"/>
<path d="M584.083 670.411C582.671 671.874 584.089 674.266 586.05 673.729L587.452 673.345C588.321 673.107 588.924 672.317 588.923 671.416L588.923 670.349C588.923 668.55 586.734 667.666 585.485 668.96L584.083 670.411Z" fill="#C4C4C4"/>
<path d="M530.858 702.038C532.833 701.553 534.187 703.982 532.736 705.407L531.297 706.821C530.654 707.452 529.668 707.576 528.889 707.122L527.608 706.377C526.054 705.472 526.391 703.135 528.138 702.706L530.858 702.038Z" fill="#C4C4C4"/>
<path fill-rule="evenodd" clip-rule="evenodd" d="M455.267 617.508C453.586 617.748 453.346 618.108 453.225 619.79V747.979C453.466 750.261 457.549 751.102 457.789 747.979L457.669 619.79C457.549 617.988 457.069 617.508 455.267 617.508Z" fill="#4D4D4D"/>
<path fill-rule="evenodd" clip-rule="evenodd" d="M571.52 475.502C570.8 475.983 570.8 475.983 570.32 476.703L570.199 477.544V815.495C570.199 815.495 569.479 817.177 572.481 817.778L573.322 817.658C574.042 817.177 574.042 817.177 574.523 816.457L574.643 815.616V477.544C574.643 477.544 575.364 475.862 572.361 475.262C572.121 475.382 571.881 475.382 571.52 475.502Z" fill="#4D4D4D"/>
<path fill-rule="evenodd" clip-rule="evenodd" d="M548.101 512.145C547.381 512.625 547.381 512.625 546.9 513.346L546.78 514.187V801.92L546.9 802.761C547.741 803.962 548.341 804.082 548.942 804.202L549.782 804.082C550.503 803.602 550.503 803.602 550.983 802.881L551.104 802.04V514.187L550.983 513.346C549.903 511.664 549.182 511.904 548.101 512.145Z" fill="#4D4D4D"/>
<path fill-rule="evenodd" clip-rule="evenodd" d="M524.8 545.064C524.079 545.544 524.079 545.544 523.599 546.265L523.479 547.106V788.345C523.479 788.345 522.758 790.027 525.761 790.628L526.601 790.508C527.322 790.027 527.322 790.027 527.802 789.306L527.922 788.465V547.226C527.922 547.226 528.643 545.544 525.64 544.943C525.28 544.943 525.04 545.064 524.8 545.064Z" fill="#4D4D4D"/>
<path fill-rule="evenodd" clip-rule="evenodd" d="M501.626 573.295C500.184 573.896 500.064 574.497 499.944 575.458V775.009C500.184 777.411 504.148 778.252 504.508 775.009V575.458C504.268 573.295 503.667 572.815 501.626 573.295Z" fill="#4D4D4D"/>
<path fill-rule="evenodd" clip-rule="evenodd" d="M478.209 597.323C476.648 597.804 476.648 598.044 476.528 599.486V761.433C476.768 763.836 480.732 764.557 481.092 761.433V599.486C480.972 598.405 480.852 598.405 480.611 598.044C480.131 597.444 479.771 596.963 478.209 597.323Z" fill="#4D4D4D"/>
<path fill-rule="evenodd" clip-rule="evenodd" d="M431.731 633.244C430.17 633.604 429.809 634.205 429.809 635.526V734.521C429.93 736.083 430.53 736.323 431.251 736.563C432.572 737.164 434.253 736.083 434.373 734.521V635.526C434.133 633.604 433.052 633.124 431.731 633.244Z" fill="#4D4D4D"/>
<path fill-rule="evenodd" clip-rule="evenodd" d="M385.013 648.625C383.932 648.745 383.092 649.706 382.972 650.908V707.253C383.092 708.815 383.692 709.055 384.413 709.295C385.734 709.896 387.415 708.815 387.535 707.253V650.908C387.415 649.586 386.334 648.625 385.013 648.625Z" fill="#4D4D4D"/>
<path fill-rule="evenodd" clip-rule="evenodd" d="M408.31 643.939C407.229 644.179 406.388 645.02 406.268 646.221V720.948C406.388 723.231 410.592 724.312 410.832 720.948V646.221C410.832 644.9 409.751 643.819 408.31 643.939Z" fill="#4D4D4D"/>
<path fill-rule="evenodd" clip-rule="evenodd" d="M361.596 646.818C360.515 646.938 359.555 647.9 359.555 649.101V693.793C359.555 694.874 359.915 695.114 360.155 695.355C361.476 696.676 363.878 695.835 363.998 693.793V649.101C363.998 647.78 362.917 646.818 361.596 646.818Z" fill="#4D4D4D"/>
<path fill-rule="evenodd" clip-rule="evenodd" d="M338.181 637.57C337.1 637.69 336.14 638.651 336.14 639.852V680.459C336.26 682.742 340.463 683.703 340.703 680.459V639.852C340.583 638.531 339.502 637.45 338.181 637.57Z" fill="#4D4D4D"/>
<path fill-rule="evenodd" clip-rule="evenodd" d="M314.76 619.785C313.559 619.905 312.719 620.866 312.719 622.068V666.76C312.839 668.081 313.319 668.441 313.799 668.682C315.121 669.523 317.042 668.682 317.162 666.76V622.068C317.162 620.746 316.081 619.785 314.76 619.785Z" fill="#4D4D4D"/>
<path fill-rule="evenodd" clip-rule="evenodd" d="M291.337 594.559C290.257 594.679 289.416 595.64 289.296 596.841V653.307C289.416 655.709 293.619 656.43 293.859 653.307V596.841C293.739 595.52 292.779 594.559 291.337 594.559Z" fill="#4D4D4D"/>
<path fill-rule="evenodd" clip-rule="evenodd" d="M267.923 562.242C266.843 562.482 266.002 563.323 265.882 564.524V639.851C266.002 641.894 266.963 642.014 267.923 642.134C269.124 642.254 270.325 641.173 270.445 639.851V564.524C270.325 563.203 269.364 562.121 267.923 562.242Z" fill="#4D4D4D"/>
<path fill-rule="evenodd" clip-rule="evenodd" d="M244.504 524.878C243.424 525.119 242.703 525.599 242.583 527.161V626.276C242.703 628.678 246.906 629.519 247.146 626.276V527.161C247.026 525.839 246.306 524.758 244.504 524.878Z" fill="#4D4D4D"/>
<path fill-rule="evenodd" clip-rule="evenodd" d="M220.843 481.989C219.402 482.47 219.162 482.71 219.042 484.152V612.701C219.162 615.103 223.245 615.944 223.605 612.701V484.152C223.485 483.191 223.365 483.191 223.245 482.83C222.765 482.35 222.405 481.869 220.843 481.989Z" fill="#4D4D4D"/>
<path fill-rule="evenodd" clip-rule="evenodd" d="M197.424 434.893C195.863 435.373 195.863 435.613 195.743 437.055V599.243C195.983 601.646 199.946 602.487 200.307 599.243V437.055C200.066 434.412 199.106 434.532 197.424 434.893Z" fill="#4D4D4D"/>
<path fill-rule="evenodd" clip-rule="evenodd" d="M174.006 384.436C173.046 384.796 172.565 385.036 172.325 386.598V585.669C172.565 588.071 176.528 588.792 176.889 585.669V386.598C176.648 384.556 176.048 384.075 174.006 384.436Z" fill="#4D4D4D"/>
<path fill-rule="evenodd" clip-rule="evenodd" d="M150.347 327.249C149.146 328.09 149.026 328.691 148.906 329.291V572.092L149.146 572.933L149.627 573.654L150.347 574.135L151.188 574.255L152.029 574.135L152.749 573.654L153.23 572.933L153.35 572.092V329.412L153.23 328.571C152.749 327.85 152.749 327.85 152.029 327.369C152.029 327.249 151.308 327.129 150.347 327.249Z" fill="#4D4D4D"/>
<path fill-rule="evenodd" clip-rule="evenodd" d="M126.93 268.384C126.45 268.745 125.849 268.985 125.489 270.426V558.64L125.609 559.481L126.09 560.202L126.81 560.682L127.651 560.803L128.491 560.682L129.212 560.202L129.692 559.481L129.812 558.64V270.426L129.692 269.586C129.212 268.865 129.212 268.865 128.491 268.384C128.612 268.384 127.891 268.144 126.93 268.384Z" fill="#4D4D4D"/>
<path fill-rule="evenodd" clip-rule="evenodd" d="M103.51 205.191C102.309 206.032 102.189 206.632 102.069 207.233V545.064L102.189 545.905L102.67 546.626L103.39 547.106L104.231 547.227L105.071 547.106L105.792 546.626L106.272 545.905L106.393 545.064V207.233L106.272 206.392C105.792 205.671 105.792 205.671 105.071 205.191C105.192 205.191 104.471 204.95 103.51 205.191Z" fill="#4D4D4D"/>
<path fill-rule="evenodd" clip-rule="evenodd" d="M80.0923 136.951L79.1315 137.552L78.411 138.393L78.0507 139.474L78.1708 140.555C100.749 210.476 126.929 279.556 155.032 347.194C184.695 418.317 216.64 488.838 257.593 553.353C276.087 582.427 295.783 611.02 323.285 632.885C337.816 644.418 355.23 652.588 373.725 653.789C398.704 655.471 423.444 645.259 445.061 630.843C476.766 609.698 502.827 580.865 526.245 550.71C553.627 515.509 577.886 477.906 598.302 438.62C598.302 438.62 599.503 437.899 598.062 435.136L597.222 434.415C596.141 434.055 596.141 434.055 594.94 434.175L593.979 434.776C593.018 435.977 592.418 437.299 591.697 438.62C571.281 477.185 547.502 514.068 520.601 548.427C497.783 577.501 472.563 605.373 442.179 625.677C415.758 643.337 382.852 654.75 352.348 643.217C331.571 635.408 314.998 619.069 300.467 602.37C278.129 576.66 259.995 547.466 243.061 517.792C203.19 447.751 171.244 373.385 141.821 298.778C121.045 246.037 101.469 193.176 83.9353 139.114L83.3348 137.792L82.3741 137.071L81.2932 136.711C80.8129 136.831 80.4526 136.831 80.0923 136.951Z" fill="#404040"/>
<path d="M571.653 483.009C569.133 483.009 567.09 480.966 567.09 478.444C567.09 475.923 569.133 473.879 571.653 473.879C574.174 473.879 576.217 475.923 576.217 478.444C576.217 480.966 574.174 483.009 571.653 483.009Z" fill="#F9F1B7"/>
<path d="M595.854 439.158C593.334 439.158 591.291 437.114 591.291 434.593C591.291 432.071 593.334 430.027 595.854 430.027C598.375 430.027 600.418 432.071 600.418 434.593C600.418 437.114 598.375 439.158 595.854 439.158Z" fill="#F9F1B7"/>
<path d="M547.948 519.252C545.428 519.252 543.385 517.208 543.385 514.686C543.385 512.165 545.428 510.121 547.948 510.121C550.469 510.121 552.512 512.165 552.512 514.686C552.512 517.208 550.469 519.252 547.948 519.252Z" fill="#F9F1B7"/>
<path d="M524.704 550.947C522.184 550.947 520.14 548.903 520.14 546.382C520.14 543.86 522.184 541.816 524.704 541.816C527.224 541.816 529.268 543.86 529.268 546.382C529.268 548.903 527.224 550.947 524.704 550.947Z" fill="#F9F1B7"/>
<path d="M501.804 578.591C499.283 578.591 497.24 576.548 497.24 574.026C497.24 571.505 499.283 569.461 501.804 569.461C504.324 569.461 506.367 571.505 506.367 574.026C506.367 576.548 504.324 578.591 501.804 578.591Z" fill="#F9F1B7"/>
<path d="M477.88 603.947C475.359 603.947 473.316 601.903 473.316 599.382C473.316 596.86 475.359 594.816 477.88 594.816C480.4 594.816 482.443 596.86 482.443 599.382C482.443 601.903 480.4 603.947 477.88 603.947Z" fill="#F9F1B7"/>
<path d="M454.61 622.695C452.09 622.695 450.047 620.651 450.047 618.13C450.047 615.608 452.09 613.564 454.61 613.564C457.131 613.564 459.174 615.608 459.174 618.13C459.174 620.651 457.131 622.695 454.61 622.695Z" fill="#F9F1B7"/>
<path d="M431.028 638.857C428.508 638.857 426.465 636.813 426.465 634.292C426.465 631.771 428.508 629.727 431.028 629.727C433.549 629.727 435.592 631.771 435.592 634.292C435.592 636.813 433.549 638.857 431.028 638.857Z" fill="#F9F1B7"/>
<path d="M408.02 648.996C405.5 648.996 403.457 646.952 403.457 644.431C403.457 641.909 405.5 639.865 408.02 639.865C410.541 639.865 412.584 641.909 412.584 644.431C412.584 646.952 410.541 648.996 408.02 648.996Z" fill="#F9F1B7"/>
<path d="M384.718 654.174C382.197 654.174 380.154 652.13 380.154 649.608C380.154 647.087 382.197 645.043 384.718 645.043C387.238 645.043 389.281 647.087 389.281 649.608C389.281 652.13 387.238 654.174 384.718 654.174Z" fill="#F9F1B7"/>
<path d="M361.136 652.298C358.615 652.298 356.572 650.255 356.572 647.733C356.572 645.212 358.615 643.168 361.136 643.168C363.656 643.168 365.699 645.212 365.699 647.733C365.699 650.255 363.656 652.298 361.136 652.298Z" fill="#F9F1B7"/>
<path d="M338.067 642.933C335.547 642.933 333.504 640.889 333.504 638.368C333.504 635.847 335.547 633.803 338.067 633.803C340.588 633.803 342.631 635.847 342.631 638.368C342.631 640.889 340.588 642.933 338.067 642.933Z" fill="#F9F1B7"/>
<path d="M314.995 626.342C312.475 626.342 310.431 624.298 310.431 621.776C310.431 619.255 312.475 617.211 314.995 617.211C317.515 617.211 319.559 619.255 319.559 621.776C319.559 624.298 317.515 626.342 314.995 626.342Z" fill="#F9F1B7"/>
<path d="M292.063 601.56C289.543 601.56 287.5 599.516 287.5 596.995C287.5 594.474 289.543 592.43 292.063 592.43C294.584 592.43 296.627 594.474 296.627 596.995C296.627 599.516 294.584 601.56 292.063 601.56Z" fill="#F9F1B7"/>
<path d="M268.608 569.588C266.088 569.588 264.045 567.544 264.045 565.022C264.045 562.501 266.088 560.457 268.608 560.457C271.129 560.457 273.172 562.501 273.172 565.022C273.172 567.544 271.129 569.588 268.608 569.588Z" fill="#F9F1B7"/>
<path d="M245.661 532.472C243.141 532.472 241.097 530.428 241.097 527.907C241.097 525.386 243.141 523.342 245.661 523.342C248.182 523.342 250.225 525.386 250.225 527.907C250.225 530.428 248.182 532.472 245.661 532.472Z" fill="#F9F1B7"/>
<path d="M222.509 490.826C219.988 490.826 217.945 488.782 217.945 486.261C217.945 483.739 219.988 481.695 222.509 481.695C225.029 481.695 227.072 483.739 227.072 486.261C227.072 488.782 225.029 490.826 222.509 490.826Z" fill="#F9F1B7"/>
<path d="M222.509 490.826C219.988 490.826 217.945 488.782 217.945 486.261C217.945 483.739 219.988 481.695 222.509 481.695C225.029 481.695 227.072 483.739 227.072 486.261C227.072 488.782 225.029 490.826 222.509 490.826Z" fill="#F9F1B7"/>
<path d="M198.69 443.728C196.17 443.728 194.127 441.684 194.127 439.163C194.127 436.642 196.17 434.598 198.69 434.598C201.211 434.598 203.254 436.642 203.254 439.163C203.254 441.684 201.211 443.728 198.69 443.728Z" fill="#F9F1B7"/>
<path d="M174.94 391.402C172.42 391.402 170.377 389.358 170.377 386.837C170.377 384.315 172.42 382.271 174.94 382.271C177.461 382.271 179.504 384.315 179.504 386.837C179.504 389.358 177.461 391.402 174.94 391.402Z" fill="#F9F1B7"/>
<path d="M152.198 337.986C149.678 337.986 147.635 335.942 147.635 333.421C147.635 330.899 149.678 328.855 152.198 328.855C154.719 328.855 156.762 330.899 156.762 333.421C156.762 335.942 154.719 337.986 152.198 337.986Z" fill="#F9F1B7"/>
<path d="M127.96 276.718C125.439 276.718 123.396 274.675 123.396 272.153C123.396 269.632 125.439 267.588 127.96 267.588C130.48 267.588 132.523 269.632 132.523 272.153C132.523 274.675 130.48 276.718 127.96 276.718Z" fill="#F9F1B7"/>
<path d="M105.292 213.851C102.772 213.851 100.728 211.807 100.728 209.286C100.728 206.765 102.772 204.721 105.292 204.721C107.812 204.721 109.855 206.765 109.855 209.286C109.855 211.807 107.812 213.851 105.292 213.851Z" fill="#F9F1B7"/>
<path d="M80.9813 143.4C78.4609 143.4 76.4178 141.356 76.4178 138.835C76.4178 136.313 78.4609 134.27 80.9813 134.27C83.5017 134.27 85.5449 136.313 85.5449 138.835C85.5449 141.356 83.5017 143.4 80.9813 143.4Z" fill="#F9F1B7"/>
<path fill-rule="evenodd" clip-rule="evenodd" d="M595.855 855.961V828.93L572.437 842.385L595.855 855.961Z" fill="#3F5F5C"/>
<path fill-rule="evenodd" clip-rule="evenodd" d="M408.691 747.832V720.801L385.273 734.256L408.691 747.832Z" fill="#3F5F5C"/>
<path fill-rule="evenodd" clip-rule="evenodd" d="M221.402 639.711V612.68L197.984 626.135L221.402 639.711Z" fill="#3F5F5C"/>
<path fill-rule="evenodd" clip-rule="evenodd" d="M595.855 828.93L572.437 815.475V842.506L580.243 838.061L595.855 828.93Z" fill="#3F5F5C"/>
<path fill-rule="evenodd" clip-rule="evenodd" d="M408.691 720.803L385.273 707.348V734.379L408.691 720.803Z" fill="#3F5F5C"/>
<path fill-rule="evenodd" clip-rule="evenodd" d="M221.402 612.678L197.984 599.223V626.254L221.402 612.678Z" fill="#3F5F5C"/>
<path fill-rule="evenodd" clip-rule="evenodd" d="M572.438 815.355V842.386L549.019 801.779L572.438 815.355Z" fill="#3F5F5C"/>
<path fill-rule="evenodd" clip-rule="evenodd" d="M385.271 707.23V734.261L361.853 693.654L385.271 707.23Z" fill="#3F5F5C"/>
<path fill-rule="evenodd" clip-rule="evenodd" d="M198.113 599.103V626.134L174.695 585.527L198.113 599.103Z" fill="#3F5F5C"/>
<path fill-rule="evenodd" clip-rule="evenodd" d="M549.019 828.93V801.898L572.438 842.505L549.019 828.93Z" fill="#3F5F5C"/>
<path fill-rule="evenodd" clip-rule="evenodd" d="M361.853 720.803V693.771L385.271 734.378L361.853 720.803Z" fill="#3F5F5C"/>
<path fill-rule="evenodd" clip-rule="evenodd" d="M174.693 612.678V585.646L198.111 626.253L174.693 612.678Z" fill="#3F5F5C"/>
<path fill-rule="evenodd" clip-rule="evenodd" d="M549.068 828.928V801.896L525.65 815.352L549.068 828.928Z" fill="#3F5F5C"/>
<path fill-rule="evenodd" clip-rule="evenodd" d="M361.912 720.803V693.771L338.494 707.227L361.912 720.803Z" fill="#3F5F5C"/>
<path fill-rule="evenodd" clip-rule="evenodd" d="M174.617 612.678V585.646L151.199 599.102L174.617 612.678Z" fill="#3F5F5C"/>
<path fill-rule="evenodd" clip-rule="evenodd" d="M549.068 801.897L525.65 788.441V815.473L549.068 801.897Z" fill="#3F5F5C"/>
<path fill-rule="evenodd" clip-rule="evenodd" d="M361.912 693.776L338.494 680.32V707.352L361.912 693.776Z" fill="#3F5F5C"/>
<path fill-rule="evenodd" clip-rule="evenodd" d="M174.617 585.649L151.199 572.193V599.225L174.617 585.649Z" fill="#3F5F5C"/>
<path fill-rule="evenodd" clip-rule="evenodd" d="M525.65 788.322V815.353L502.232 774.746L525.65 788.322Z" fill="#3F5F5C"/>
<path fill-rule="evenodd" clip-rule="evenodd" d="M338.482 680.201V707.232L315.064 666.625L338.482 680.201Z" fill="#3F5F5C"/>
<path fill-rule="evenodd" clip-rule="evenodd" d="M151.197 572.074V599.105L127.779 558.498L151.197 572.074Z" fill="#3F5F5C"/>
<path fill-rule="evenodd" clip-rule="evenodd" d="M104.406 545.039V572.07L80.9878 531.463L104.406 545.039Z" fill="#3F5F5C"/>
<path fill-rule="evenodd" clip-rule="evenodd" d="M502.232 801.898V774.867L525.65 815.474L502.232 801.898Z" fill="#3F5F5C"/>
<path fill-rule="evenodd" clip-rule="evenodd" d="M315.064 693.772V666.74L338.482 707.347L315.064 693.772Z" fill="#3F5F5C"/>
<path fill-rule="evenodd" clip-rule="evenodd" d="M127.904 585.649V558.617L151.322 599.224L127.904 585.649Z" fill="#3F5F5C"/>
<path fill-rule="evenodd" clip-rule="evenodd" d="M81.1147 558.615V531.584L104.533 572.191L81.1147 558.615Z" fill="#3F5F5C"/>
<path fill-rule="evenodd" clip-rule="evenodd" d="M502.277 801.896V774.865L478.859 788.321L502.277 801.896Z" fill="#3F5F5C"/>
<path fill-rule="evenodd" clip-rule="evenodd" d="M315.105 693.775V666.744L291.687 680.2L315.105 693.775Z" fill="#3F5F5C"/>
<path fill-rule="evenodd" clip-rule="evenodd" d="M127.832 585.65V558.619L104.413 572.075L127.832 585.65Z" fill="#3F5F5C"/>
<path fill-rule="evenodd" clip-rule="evenodd" d="M502.277 774.866L478.859 761.41V788.441L502.277 774.866Z" fill="#3F5F5C"/>
<path fill-rule="evenodd" clip-rule="evenodd" d="M315.105 666.743L291.687 653.287V680.318L315.105 666.743Z" fill="#3F5F5C"/>
<path fill-rule="evenodd" clip-rule="evenodd" d="M127.834 558.616L104.415 545.16V572.191L127.834 558.616Z" fill="#3F5F5C"/>
<path fill-rule="evenodd" clip-rule="evenodd" d="M478.857 761.289V788.32L455.439 747.713L478.857 761.289Z" fill="#3F5F5C"/>
<path fill-rule="evenodd" clip-rule="evenodd" d="M291.688 653.166V680.197L268.269 639.59L291.688 653.166Z" fill="#3F5F5C"/>
<path fill-rule="evenodd" clip-rule="evenodd" d="M455.437 774.865V747.834L478.855 788.441L455.437 774.865Z" fill="#3F5F5C"/>
<path fill-rule="evenodd" clip-rule="evenodd" d="M268.269 666.742V639.711L291.688 680.318L268.269 666.742Z" fill="#3F5F5C"/>
<path fill-rule="evenodd" clip-rule="evenodd" d="M455.492 774.865V747.834L432.074 761.29L455.492 774.865Z" fill="#3F5F5C"/>
<path fill-rule="evenodd" clip-rule="evenodd" d="M268.195 666.74V639.709L244.777 653.165L268.195 666.74Z" fill="#3F5F5C"/>
<path fill-rule="evenodd" clip-rule="evenodd" d="M455.49 747.835L432.072 734.379V761.41L455.49 747.835Z" fill="#3F5F5C"/>
<path fill-rule="evenodd" clip-rule="evenodd" d="M268.195 639.711L244.777 626.256V653.287L268.195 639.711Z" fill="#3F5F5C"/>
<path fill-rule="evenodd" clip-rule="evenodd" d="M432.064 734.261V761.293L408.646 720.686L432.064 734.261Z" fill="#3F5F5C"/>
<path fill-rule="evenodd" clip-rule="evenodd" d="M244.898 626.136V653.168L221.48 612.561L244.898 626.136Z" fill="#3F5F5C"/>
<path fill-rule="evenodd" clip-rule="evenodd" d="M408.646 747.834V720.803L432.064 761.41L408.646 747.834Z" fill="#3F5F5C"/>
<path fill-rule="evenodd" clip-rule="evenodd" d="M221.48 639.711V612.68L244.898 653.287L221.48 639.711Z" fill="#3F5F5C"/>
<path fill-rule="evenodd" clip-rule="evenodd" d="M618.394 712.537C618.394 712.537 646.616 683.103 676.88 665.202C706.063 648.022 735.367 644.898 735.367 644.898L758.785 658.354C758.785 658.354 729.482 661.478 700.299 678.658C669.915 696.438 641.813 725.992 641.813 725.992L618.394 712.537Z" fill="#344D4B"/>
<path fill-rule="evenodd" clip-rule="evenodd" d="M618.399 673.912L641.818 687.367C641.818 687.367 659.592 688.689 688.655 671.869C717.718 655.05 755.908 621.651 758.91 619.729L735.492 606.273C732.489 608.196 694.299 641.594 665.236 658.414C636.173 675.233 618.399 673.912 618.399 673.912Z" fill="#5A827F"/>
<path fill-rule="evenodd" clip-rule="evenodd" d="M735.482 595.624L758.9 609.079L700.414 588.776L676.996 575.32L735.482 595.624Z" fill="#344D4B"/>
<path fill-rule="evenodd" clip-rule="evenodd" d="M758.832 501.239L735.413 487.783L676.927 575.605L700.346 589.06L758.832 501.239Z" fill="#5A827F"/>
<path fill-rule="evenodd" clip-rule="evenodd" d="M735.482 487.495L758.9 500.95L700.414 480.647L676.996 467.191L735.482 487.495Z" fill="#344D4B"/>
<path fill-rule="evenodd" clip-rule="evenodd" d="M758.832 392.827L735.413 379.371L676.927 467.193L700.346 480.648L758.832 392.827Z" fill="#5A827F"/>
<path fill-rule="evenodd" clip-rule="evenodd" d="M700.287 589.182L676.869 575.727L618.382 663.548L641.801 677.004L700.287 589.182Z" fill="#5A827F"/>
<path fill-rule="evenodd" clip-rule="evenodd" d="M676.925 575.317L700.344 588.773L641.857 568.469L618.439 555.014L676.925 575.317Z" fill="#344D4B"/>
<path fill-rule="evenodd" clip-rule="evenodd" d="M700.283 480.77L676.865 467.314L618.378 555.136L641.797 568.592L700.283 480.77Z" fill="#344D4B"/>
<path fill-rule="evenodd" clip-rule="evenodd" d="M676.933 467.194L700.352 480.65L641.865 460.346L618.447 446.891L676.933 467.194Z" fill="#5A827F"/>
<path fill-rule="evenodd" clip-rule="evenodd" d="M618.412 446.625C618.412 446.625 646.634 417.19 676.898 399.29C706.081 382.11 735.384 378.986 735.384 378.986L758.803 392.442C758.803 392.442 729.5 395.565 700.317 412.745C669.932 430.526 641.83 460.08 641.83 460.08L618.412 446.625Z" fill="#344D4B"/>
<path fill-rule="evenodd" clip-rule="evenodd" d="M618.412 419.595C618.412 419.595 646.634 390.161 676.898 372.26C706.081 355.081 735.384 351.957 735.384 351.957L758.803 365.533C758.803 365.533 729.5 368.656 700.317 385.836C669.932 403.617 641.83 433.171 641.83 433.171L618.412 419.595Z" fill="#97BCB9"/>
<path fill-rule="evenodd" clip-rule="evenodd" d="M619.221 984.3V443.674L595.802 430.219V970.844L619.221 984.3Z" fill="#344D4B"/>
<path fill-rule="evenodd" clip-rule="evenodd" d="M619.222 443.67L642.641 430.215V970.84L619.222 984.296V443.67Z" fill="url(#paint36_linear)"/>
<path fill-rule="evenodd" clip-rule="evenodd" d="M619.221 443.674V416.643L595.802 403.188V430.219L619.221 443.674Z" fill="#344D4B"/>
<path fill-rule="evenodd" clip-rule="evenodd" d="M619.222 443.674V416.643L642.641 403.188V430.219L619.222 443.674Z" fill="#5A827F"/>
<path fill-rule="evenodd" clip-rule="evenodd" d="M619.222 416.644L595.804 403.188L619.222 389.732L642.641 403.188L619.222 416.644Z" fill="url(#paint37_linear)"/>
<path fill-rule="evenodd" clip-rule="evenodd" d="M619.221 984.299V1011.33L595.802 997.875V970.844L619.221 984.299Z" fill="#4C4C4C"/>
<path fill-rule="evenodd" clip-rule="evenodd" d="M642.641 970.842V997.873L619.222 1011.33V984.297L642.641 970.842Z" fill="#808080"/>
<defs>
<linearGradient id="paint0_linear" x1="235.275" y1="40.4863" x2="235.275" y2="594.568" gradientUnits="userSpaceOnUse">
<stop stop-color="#5A827F"/>
<stop offset="1" stop-color="#344D4B"/>
</linearGradient>
<linearGradient id="paint1_linear" x1="223.566" y1="0" x2="223.566" y2="26.9111" gradientUnits="userSpaceOnUse">
<stop stop-color="#FBFFFB"/>
<stop offset="1" stop-color="#97BCB9"/>
</linearGradient>
<linearGradient id="paint2_linear" x1="490.601" y1="436.914" x2="490.601" y2="747.714" gradientUnits="userSpaceOnUse">
<stop stop-color="#BEBEBE"/>
<stop offset="1" stop-color="#888888"/>
</linearGradient>
<linearGradient id="paint3_linear" x1="759.591" y1="312.059" x2="759.591" y2="338.97" gradientUnits="userSpaceOnUse">
<stop stop-color="#FBFFFB"/>
<stop offset="1" stop-color="#97BCB9"/>
</linearGradient>
<linearGradient id="paint4_linear" x1="414.488" y1="409.869" x2="414.488" y2="849.218" gradientUnits="userSpaceOnUse">
<stop stop-color="#C0C0C0"/>
<stop offset="1" stop-color="#808080"/>
</linearGradient>
<linearGradient id="paint5_linear" x1="92.7028" y1="122.715" x2="92.7028" y2="676.796" gradientUnits="userSpaceOnUse">
<stop stop-color="#5A827F"/>
<stop offset="1" stop-color="#344D4B"/>
</linearGradient>
<linearGradient id="paint6_linear" x1="57.405" y1="95.4855" x2="80.9935" y2="109.14" gradientUnits="userSpaceOnUse">
<stop stop-color="#FBFFFB"/>
<stop offset="1" stop-color="#97BCB9"/>
</linearGradient>
<linearGradient id="paint7_linear" x1="350.197" y1="518.127" x2="350.197" y2="828.927" gradientUnits="userSpaceOnUse">
<stop stop-color="#B2B2B2"/>
<stop offset="1" stop-color="#878787"/>
</linearGradient>
<linearGradient id="paint8_linear" x1="352.408" y1="463.832" x2="255.92" y2="535.057" gradientUnits="userSpaceOnUse">
<stop stop-color="#8A8A8A"/>
<stop offset="1" stop-color="#425861"/>
</linearGradient>
<linearGradient id="paint9_linear" x1="366.714" y1="449.221" x2="224.568" y2="645.242" gradientUnits="userSpaceOnUse">
<stop stop-color="#D8E6E8"/>
<stop offset="0.327462" stop-color="#9DB1B7"/>
<stop offset="1" stop-color="#425861"/>
</linearGradient>
<linearGradient id="paint10_linear" x1="360.22" y1="447.365" x2="234.918" y2="620.158" gradientUnits="userSpaceOnUse">
<stop stop-color="#D8E6E8"/>
<stop offset="1" stop-color="#9DB1B7"/>
</linearGradient>
<linearGradient id="paint11_linear" x1="291.392" y1="496.265" x2="293.36" y2="669.289" gradientUnits="userSpaceOnUse">
<stop stop-color="#A1B6BB"/>
<stop offset="1" stop-color="#406376"/>
</linearGradient>
<linearGradient id="paint12_linear" x1="285.304" y1="487.438" x2="285.304" y2="880.206" gradientUnits="userSpaceOnUse">
<stop stop-color="#445C6C"/>
<stop offset="1" stop-color="#406376"/>
</linearGradient>
<linearGradient id="paint13_linear" x1="286.891" y1="486.525" x2="286.891" y2="879.293" gradientUnits="userSpaceOnUse">
<stop stop-color="#377BA3"/>
<stop offset="1" stop-color="#406376"/>
</linearGradient>
<linearGradient id="paint14_linear" x1="288.108" y1="468.262" x2="288.108" y2="861.031" gradientUnits="userSpaceOnUse">
<stop stop-color="#E3A66E"/>
<stop offset="1" stop-color="#406376"/>
</linearGradient>
<linearGradient id="paint15_linear" x1="267.269" y1="557.277" x2="267.269" y2="589.724" gradientUnits="userSpaceOnUse">
<stop stop-color="#60737C"/>
<stop offset="1" stop-color="#363E44"/>
</linearGradient>
<linearGradient id="paint16_linear" x1="267.269" y1="557.277" x2="267.269" y2="589.724" gradientUnits="userSpaceOnUse">
<stop stop-color="#60737C"/>
<stop offset="1" stop-color="#363E44"/>
</linearGradient>
<linearGradient id="paint17_linear" x1="398.536" y1="496.402" x2="398.536" y2="889.171" gradientUnits="userSpaceOnUse">
<stop stop-color="#425868"/>
<stop offset="1" stop-color="#4C6C7E"/>
</linearGradient>
<linearGradient id="paint18_linear" x1="399.753" y1="500.055" x2="399.753" y2="892.823" gradientUnits="userSpaceOnUse">
<stop stop-color="#9AAFB4"/>
<stop offset="1" stop-color="#4C6C7E"/>
</linearGradient>
<linearGradient id="paint19_linear" x1="404.624" y1="503.098" x2="404.624" y2="895.866" gradientUnits="userSpaceOnUse">
<stop stop-color="#D1E0E2"/>
<stop offset="0.510417" stop-color="#4C6C7E"/>
</linearGradient>
<linearGradient id="paint20_linear" x1="408.886" y1="505.533" x2="408.886" y2="898.302" gradientUnits="userSpaceOnUse">
<stop stop-color="#9AAFB4"/>
<stop offset="1" stop-color="#4C6C7E"/>
</linearGradient>
<linearGradient id="paint21_linear" x1="413.755" y1="508.576" x2="413.755" y2="901.345" gradientUnits="userSpaceOnUse">
<stop stop-color="#D1E0E2"/>
<stop offset="0.510417" stop-color="#4C6C7E"/>
</linearGradient>
<linearGradient id="paint22_linear" x1="484.206" y1="556.669" x2="401.414" y2="626.068" gradientUnits="userSpaceOnUse">
<stop stop-color="#8A8A8A"/>
<stop offset="1" stop-color="#425861"/>
</linearGradient>
<linearGradient id="paint23_linear" x1="522.557" y1="545.407" x2="380.412" y2="741.428" gradientUnits="userSpaceOnUse">
<stop stop-color="#D8E6E8"/>
<stop offset="0.327462" stop-color="#9DB1B7"/>
<stop offset="1" stop-color="#425861"/>
</linearGradient>
<linearGradient id="paint24_linear" x1="516.063" y1="543.55" x2="390.761" y2="716.343" gradientUnits="userSpaceOnUse">
<stop stop-color="#D8E6E8"/>
<stop offset="1" stop-color="#9DB1B7"/>
</linearGradient>
<linearGradient id="paint25_linear" x1="447.233" y1="592.448" x2="449.202" y2="726.512" gradientUnits="userSpaceOnUse">
<stop stop-color="#9BAFB5"/>
<stop offset="1" stop-color="#406376"/>
</linearGradient>
<linearGradient id="paint26_linear" x1="441.146" y1="583.621" x2="441.146" y2="976.39" gradientUnits="userSpaceOnUse">
<stop stop-color="#445C6C"/>
<stop offset="1" stop-color="#406376"/>
</linearGradient>
<linearGradient id="paint27_linear" x1="442.733" y1="582.708" x2="442.733" y2="975.477" gradientUnits="userSpaceOnUse">
<stop stop-color="#377BA3"/>
<stop offset="1" stop-color="#406376"/>
</linearGradient>
<linearGradient id="paint28_linear" x1="443.95" y1="564.446" x2="443.95" y2="957.214" gradientUnits="userSpaceOnUse">
<stop stop-color="#E3A66E"/>
<stop offset="1" stop-color="#406376"/>
</linearGradient>
<linearGradient id="paint29_linear" x1="410.329" y1="643.111" x2="410.329" y2="675.558" gradientUnits="userSpaceOnUse">
<stop stop-color="#60737C"/>
<stop offset="1" stop-color="#363E44"/>
</linearGradient>
<linearGradient id="paint30_linear" x1="410.329" y1="643.111" x2="410.329" y2="675.558" gradientUnits="userSpaceOnUse">
<stop stop-color="#60737C"/>
<stop offset="1" stop-color="#363E44"/>
</linearGradient>
<linearGradient id="paint31_linear" x1="465.116" y1="677.811" x2="465.116" y2="710.257" gradientUnits="userSpaceOnUse">
<stop stop-color="#60737C"/>
<stop offset="1" stop-color="#363E44"/>
</linearGradient>
<linearGradient id="paint32_linear" x1="465.116" y1="677.811" x2="465.116" y2="710.257" gradientUnits="userSpaceOnUse">
<stop stop-color="#60737C"/>
<stop offset="1" stop-color="#363E44"/>
</linearGradient>
<linearGradient id="paint33_linear" x1="554.376" y1="592.586" x2="554.515" y2="741.428" gradientUnits="userSpaceOnUse">
<stop stop-color="#AEC0C5"/>
<stop offset="1" stop-color="#4C6C7E"/>
</linearGradient>
<linearGradient id="paint34_linear" x1="566.995" y1="607.195" x2="566.995" y2="833.928" gradientUnits="userSpaceOnUse">
<stop stop-color="#404950"/>
<stop offset="1" stop-color="#4C6C7E"/>
</linearGradient>
<linearGradient id="paint35_linear" x1="568.517" y1="615.11" x2="550.863" y2="678.725" gradientUnits="userSpaceOnUse">
<stop stop-color="#A3BFBB"/>
<stop offset="1" stop-color="#435059"/>
</linearGradient>
<linearGradient id="paint36_linear" x1="630.931" y1="430.215" x2="630.931" y2="984.296" gradientUnits="userSpaceOnUse">
<stop stop-color="#5A827F"/>
<stop offset="1" stop-color="#344D4B"/>
</linearGradient>
<linearGradient id="paint37_linear" x1="595.51" y1="403.251" x2="619.222" y2="416.644" gradientUnits="userSpaceOnUse">
<stop stop-color="#FBFFFB"/>
<stop offset="1" stop-color="#97BCB9"/>
</linearGradient>
</defs>
</svg>
