<svg width="1037" height="683" viewBox="0 0 1037 683" fill="none" xmlns="http://www.w3.org/2000/svg">
<path fill-rule="evenodd" clip-rule="evenodd" d="M285.101 475.961C301.136 468.318 317.035 468.156 320.582 475.597C324.129 483.04 313.99 495.287 297.956 502.93C281.921 510.573 266.022 510.736 262.475 503.294C258.928 495.851 269.066 483.604 285.101 475.961Z" fill="#3A4B45" fill-opacity="0.31"/>
<path fill-rule="evenodd" clip-rule="evenodd" d="M284.815 448.07L302.632 478.759L295.161 491.435L280.275 490.562L284.815 448.07Z" fill="#4C462A"/>
<path fill-rule="evenodd" clip-rule="evenodd" d="M263.685 334.756C263.918 333.127 265.177 331.836 266.799 331.561C268.422 331.286 270.035 332.091 270.792 333.551L319.896 428.333C322.422 433.206 322.065 439.075 318.968 443.609C312.788 452.647 301.927 466.987 293.059 470.516C284.267 474.013 265.725 471.538 254.316 469.494C248.913 468.526 245.248 463.451 246.026 458.018C249.684 432.486 259.695 362.611 263.685 334.756Z" fill="#215945"/>
<path fill-rule="evenodd" clip-rule="evenodd" d="M265.965 340.831C266.279 339.307 267.492 338.129 269.024 337.865C270.557 337.598 272.097 338.296 272.905 339.626C281.971 354.528 300.862 385.586 308.32 397.846C310.354 401.188 310.992 405.197 310.099 409.006C308.679 415.025 306.413 423.706 304.655 426.032C302.327 429.113 285.918 401.99 292.016 429.471C292.669 432.418 286.816 426.494 281.901 431.167C278.978 433.946 279.532 462.038 274.429 448.526C267.866 431.15 260.852 446.617 258.986 446.851C258.088 446.963 257.187 446.99 256.298 446.952C253.318 446.853 250.533 445.445 248.687 443.102C246.841 440.762 246.123 437.723 246.723 434.803C250.888 414.173 261.567 362.222 265.965 340.831Z" fill="#1B7252"/>
<path fill-rule="evenodd" clip-rule="evenodd" d="M262.854 328.084C263.223 326.588 264.462 325.465 265.985 325.244C267.51 325.024 269.018 325.748 269.796 327.078C277.565 340.358 292.997 366.733 300.926 380.286C304.202 385.884 303.484 392.958 299.151 397.784C295.071 402.554 290.03 408.11 285.847 410.799C283.227 412.484 280.126 402.771 277.583 403.647C275.624 404.321 279.874 417.406 276.944 417.917C274.058 418.418 269.029 422.73 267.22 419.689C260.595 408.538 263.838 420.328 262.147 420.654C259.866 421.091 257.45 421.685 255.066 422.348C251.601 423.235 247.926 422.236 245.385 419.719C242.846 417.202 241.814 413.535 242.671 410.063C248.457 386.493 258.426 346.048 262.854 328.084Z" fill="#277A4B"/>
<path fill-rule="evenodd" clip-rule="evenodd" d="M58.658 648.606C74.1309 639.242 90.2214 637.468 94.5689 644.65C98.9148 651.831 89.8827 665.266 74.4097 674.63C58.9368 683.996 42.8463 685.768 38.4988 678.587C34.1529 671.406 43.185 657.972 58.658 648.606Z" fill="#3A4B45" fill-opacity="0.31"/>
<path fill-rule="evenodd" clip-rule="evenodd" d="M52.9648 596.137L77.5187 648.354L73.0626 660.097L60.4674 656.43L52.9648 596.137Z" fill="#4C462A"/>
<path fill-rule="evenodd" clip-rule="evenodd" d="M48.2323 593.977C48.8183 593.515 49.5303 593.237 50.2753 593.177C55.6845 592.75 78.9971 590.905 92.2696 589.855C94.5126 589.677 96.6927 590.66 98.0458 592.46C99.3988 594.259 99.7359 596.626 98.9405 598.732C97.9386 600.556 96.7951 602.691 95.2971 605.072C93.9976 607.137 86.8494 609.744 87.4511 612.492C90.8756 628.135 75.5302 619.367 70.718 625.307C67.9709 628.697 68.371 638.399 66.0492 639.572C63.7494 640.736 48.2418 644.465 45.093 643.264C40.4714 641.503 39.1073 637.802 33.528 639.175C11.2597 644.658 7.22884 635.103 6.62397 629.858C6.43338 628.117 7.15324 626.4 8.52995 625.315C15.9191 619.432 42.9444 598.142 48.2323 593.977Z" fill="#215945"/>
<path fill-rule="evenodd" clip-rule="evenodd" d="M39.0854 567.783L81.5049 576.406C81.5049 576.406 93.4763 575.681 95.1082 578.83C96.7401 581.979 97.2189 595.853 91.2978 595.297C80.6512 594.298 94.7947 596.422 80.6827 608.341C77.8978 610.694 69.3697 602.913 65.3231 607.582C62.7619 610.54 74.5914 608.618 69.02 615.42C67.5063 617.268 59.5123 613.037 55.9413 617.167C51.6994 622.073 50.5227 627.443 46.7533 628.93C42.9839 630.416 43.8078 608.53 33.3234 626.084C30.8551 630.214 25.0489 631.479 18.8774 629.524C13.3469 627.772 -1.13524 618.795 0.521846 613.733C3.88958 603.442 39.0854 567.783 39.0854 567.783Z" fill="#277A4B"/>
<path fill-rule="evenodd" clip-rule="evenodd" d="M16.3593 567.98C16.9878 567.448 17.4242 566.722 17.599 565.917C21.6567 547.354 37.8716 546.846 54.9103 551.003C58.8703 551.969 66.2846 548.683 70.0603 550.083C82.8429 554.823 89.5847 566.147 86.4595 572.317C83.6242 577.918 78.9727 586.949 77.1675 589.365C71.9553 596.345 72.3349 587.747 66.4752 592.399C63.9912 594.371 53.7761 571.473 50.2651 589.077C49.8539 591.145 60.0327 600.993 57.1155 601.806C54.2424 602.608 33.198 583.551 41.3889 606.377C45.8498 618.808 38.0275 607.368 36.3452 607.869C31.4385 609.327 20.9478 613.051 14.8471 613.98C7.9321 615.034 5.57248 612.692 3.56255 602.956C2.72613 598.9 0.193256 585.003 3.2113 577.446C5.47641 571.775 12.0055 571.542 16.3593 567.98Z" fill="#508A4A"/>
<path fill-rule="evenodd" clip-rule="evenodd" d="M456.751 400.741C473.837 392.597 490.776 392.424 494.557 400.353C498.336 408.284 487.533 421.333 470.447 429.477C453.363 437.622 436.422 437.795 432.643 429.866C428.862 421.935 439.665 408.886 456.751 400.741Z" fill="#3A4B45" fill-opacity="0.31"/>
<path fill-rule="evenodd" clip-rule="evenodd" d="M456.513 369.312L475.497 402.012L467.536 415.517L451.676 414.588L456.513 369.312Z" fill="#4C462A"/>
<path fill-rule="evenodd" clip-rule="evenodd" d="M434.088 249.697C434.321 248.068 435.58 246.778 437.202 246.502C438.825 246.228 440.438 247.032 441.195 248.493L494.142 350.691C496.659 355.55 496.314 361.399 493.241 365.929C486.724 375.519 474.899 391.293 465.277 395.121C455.736 398.915 435.422 396.111 423.333 393.912C417.942 392.931 414.294 387.865 415.071 382.442C418.922 355.55 429.879 279.072 434.088 249.697Z" fill="#215945"/>
<path fill-rule="evenodd" clip-rule="evenodd" d="M436.549 255.772C436.862 254.249 438.077 253.071 439.61 252.806C441.142 252.54 442.681 253.238 443.489 254.567C453.096 270.36 473.874 304.519 481.76 317.483C483.79 320.821 484.431 324.822 483.543 328.626C482.039 335.046 479.561 344.642 477.647 347.175C475.166 350.458 457.683 321.558 464.179 350.839C464.877 353.98 458.639 347.666 453.402 352.647C450.288 355.608 450.878 385.542 445.441 371.143C438.449 352.628 430.974 369.109 428.985 369.358C427.421 369.554 425.85 369.506 424.344 369.308C421.558 368.939 419.05 367.427 417.422 365.135C415.791 362.845 415.188 359.98 415.755 357.226C420.148 335.558 431.896 278.409 436.549 255.772Z" fill="#1B7252"/>
<path fill-rule="evenodd" clip-rule="evenodd" d="M433.242 243.026C433.61 241.529 434.85 240.406 436.373 240.186C437.898 239.965 439.405 240.69 440.183 242.019C448.461 256.169 465.545 285.368 473.993 299.806C477.243 305.36 476.565 312.371 472.312 317.199C467.895 322.445 462.247 328.763 457.595 331.754C454.804 333.55 451.499 323.201 448.79 324.133C446.703 324.851 451.23 338.795 448.11 339.338C445.033 339.872 439.675 344.469 437.748 341.227C430.688 329.345 434.144 341.909 432.341 342.254C429.587 342.783 426.651 343.525 423.786 344.344C420.316 345.263 416.617 344.281 414.057 341.764C411.498 339.247 410.457 335.567 411.315 332.082C417.501 306.89 428.532 262.134 433.242 243.026Z" fill="#277A4B"/>
<path fill-rule="evenodd" clip-rule="evenodd" d="M149.621 544.646C165.094 535.28 181.184 533.508 185.532 540.689C189.878 547.87 180.846 561.304 165.373 570.67C149.9 580.034 133.809 581.808 129.462 574.627C125.116 567.445 134.148 554.011 149.621 544.646Z" fill="#3A4B45" fill-opacity="0.31"/>
<path fill-rule="evenodd" clip-rule="evenodd" d="M143.928 492.174L168.482 544.391L164.025 556.134L151.43 552.467L143.928 492.174Z" fill="#4C462A"/>
<path fill-rule="evenodd" clip-rule="evenodd" d="M139.195 490.016C139.781 489.553 140.493 489.276 141.238 489.216C146.647 488.789 169.96 486.944 183.232 485.894C185.476 485.716 187.656 486.699 189.009 488.497C190.362 490.298 190.699 492.665 189.903 494.771C188.902 496.595 187.758 498.73 186.26 501.112C184.96 503.177 177.812 505.782 178.414 508.531C181.838 524.174 166.495 515.406 161.681 521.346C158.934 524.736 159.334 534.438 157.012 535.611C154.712 536.774 139.205 540.504 136.056 539.303C131.434 537.542 130.07 533.841 124.491 535.214C102.223 540.697 98.1917 531.142 97.5869 525.897C97.3963 524.155 98.1161 522.438 99.4928 521.354C106.882 515.471 133.907 494.181 139.195 490.016Z" fill="#215945"/>
<path fill-rule="evenodd" clip-rule="evenodd" d="M130.048 463.822L172.468 472.446C172.468 472.446 184.439 471.72 186.071 474.869C187.703 478.018 188.183 491.894 182.261 491.338C171.614 490.339 185.758 492.461 171.646 504.382C168.861 506.733 160.333 498.952 156.286 503.622C153.725 506.581 165.554 504.659 159.983 511.459C158.469 513.308 150.475 509.077 146.904 513.207C142.662 518.114 141.486 523.484 137.716 524.969C133.947 526.456 134.771 504.571 124.286 522.123C121.818 526.255 116.012 527.518 109.84 525.565C104.31 523.813 89.8276 514.834 91.4847 509.773C94.8525 499.483 130.048 463.822 130.048 463.822Z" fill="#277A4B"/>
<path fill-rule="evenodd" clip-rule="evenodd" d="M107.322 464.02C107.951 463.486 108.387 462.762 108.562 461.955C112.62 443.392 128.834 442.886 145.873 447.042C149.833 448.009 157.249 444.723 161.023 446.123C173.807 450.861 180.548 462.185 177.422 468.357C174.587 473.958 169.936 482.989 168.13 485.403C162.918 492.385 163.298 483.787 157.438 488.439C154.954 490.411 144.739 467.513 141.229 485.115C140.817 487.185 150.996 497.033 148.08 497.846C145.205 498.646 124.161 479.591 132.352 502.417C136.813 514.847 128.99 503.408 127.308 503.909C122.401 505.367 111.911 509.091 105.81 510.02C98.895 511.074 96.5354 508.732 94.5255 498.994C93.689 494.94 91.1561 481.043 94.1742 473.486C96.4393 467.815 102.968 467.58 107.322 464.02Z" fill="#508A4A"/>
<path fill-rule="evenodd" clip-rule="evenodd" d="M110.737 657.177C122.633 651.507 134.428 651.385 137.06 656.908C139.692 662.429 132.171 671.514 120.274 677.185C108.378 682.856 96.5829 682.977 93.9508 677.456C91.3187 671.933 98.8417 662.848 110.737 657.177Z" fill="#3A4B45" fill-opacity="0.31"/>
<path fill-rule="evenodd" clip-rule="evenodd" d="M110.574 633.941L123.793 656.709L118.249 666.113L107.205 665.465L110.574 633.941Z" fill="#4C462A"/>
<path fill-rule="evenodd" clip-rule="evenodd" d="M94.4073 552.132C94.6404 550.505 95.899 549.214 97.5214 548.938C99.1422 548.664 100.757 549.469 101.513 550.929L135.475 616.483C138.037 621.424 137.632 627.38 134.428 631.932C129.718 638.572 122.571 647.475 116.631 649.838C110.748 652.178 98.9816 650.915 90.5197 649.532C85.0554 648.625 81.3176 643.518 82.102 638.036C84.92 618.348 91.3499 573.471 94.4073 552.132Z" fill="#215945"/>
<path fill-rule="evenodd" clip-rule="evenodd" d="M96.1315 558.207C96.445 556.682 97.6595 555.506 99.1921 555.24C100.725 554.973 102.264 555.673 103.072 557.002C109.814 568.085 121.615 587.487 127.232 596.719C129.292 600.105 129.919 604.174 128.976 608.024C127.926 612.286 126.485 617.465 125.337 618.985C123.609 621.271 111.434 601.148 115.958 621.537C116.443 623.724 112.101 619.327 108.454 622.794C106.287 624.856 106.698 645.699 102.911 635.673C98.0422 622.783 92.8394 634.257 91.4533 634.43C91.4533 634.43 91.4533 634.432 91.4517 634.432C88.8463 634.758 86.2426 633.806 84.4595 631.878C82.6764 629.949 81.9329 627.279 82.4621 624.706C85.5479 609.692 92.6819 574.991 96.1315 558.207Z" fill="#1B7252"/>
<path fill-rule="evenodd" clip-rule="evenodd" d="M93.6904 548.612C94.059 547.116 95.2971 545.993 96.8219 545.772C98.3467 545.55 99.8541 546.276 100.632 547.606C106.216 557.151 115.485 572.993 121.193 582.749C124.641 588.642 123.649 596.124 118.781 600.913C116.258 603.532 113.618 606.167 111.325 607.642C109.381 608.891 107.081 601.686 105.194 602.335C103.742 602.836 106.894 612.544 104.72 612.922C102.579 613.295 98.8475 616.494 97.5055 614.237C92.5909 605.964 94.9962 614.711 93.7408 614.952C93.2698 615.044 92.7926 615.143 92.309 615.25C88.8814 615.968 85.3262 614.877 82.8926 612.358C80.4605 609.838 79.4933 606.246 80.3313 602.847C84.4394 586.142 90.466 561.694 93.6904 548.612Z" fill="#277A4B"/>
<path fill-rule="evenodd" clip-rule="evenodd" d="M589.101 383.086C600.997 377.417 612.792 377.296 615.424 382.817C618.056 388.338 610.533 397.425 598.637 403.096C586.741 408.766 574.946 408.886 572.314 403.365C569.682 397.844 577.204 388.757 589.101 383.086Z" fill="#3A4B45" fill-opacity="0.31"/>
<path fill-rule="evenodd" clip-rule="evenodd" d="M588.936 359.857L602.155 382.627L596.612 392.03L585.568 391.383L588.936 359.857Z" fill="#4C462A"/>
<path fill-rule="evenodd" clip-rule="evenodd" d="M572.873 278.043C573.108 276.414 574.366 275.123 575.987 274.849C577.609 274.573 579.224 275.378 579.98 276.838L613.943 342.392C616.502 347.334 616.099 353.291 612.895 357.842C608.185 364.481 601.039 373.386 595.097 375.748C589.215 378.087 577.447 376.824 568.985 375.441C563.523 374.534 559.783 369.429 560.569 363.945C563.387 344.257 569.817 299.382 572.873 278.043Z" fill="#215945"/>
<path fill-rule="evenodd" clip-rule="evenodd" d="M574.5 284.12C574.814 282.596 576.026 281.42 577.559 281.154C579.092 280.887 580.632 281.587 581.44 282.915C588.182 293.998 599.983 313.399 605.599 322.633C607.659 326.019 608.288 330.087 607.344 333.936C606.295 338.2 604.854 343.378 603.704 344.898C601.976 347.185 589.803 327.062 594.327 347.45C594.812 349.636 590.469 345.241 586.823 348.708C584.654 350.77 585.065 371.611 581.28 361.587C576.411 348.696 571.206 360.171 569.822 360.344H569.82C567.215 360.67 564.611 359.719 562.828 357.791C561.045 355.863 560.3 353.193 560.829 350.621C563.916 335.604 571.049 300.903 574.5 284.12Z" fill="#1B7252"/>
<path fill-rule="evenodd" clip-rule="evenodd" d="M572.055 274.526C572.424 273.029 573.662 271.906 575.186 271.686C576.711 271.465 578.217 272.19 578.995 273.521C584.581 283.065 593.849 298.908 599.558 308.663C603.006 314.556 602.012 322.038 597.146 326.828C594.623 329.446 591.983 332.081 589.689 333.555C587.745 334.806 585.444 327.6 583.559 328.249C582.105 328.75 585.258 338.457 583.084 338.835C580.942 339.209 577.212 342.408 575.87 340.151C570.954 331.879 573.361 340.626 572.105 340.867C571.634 340.957 571.156 341.056 570.674 341.164C567.246 341.882 563.689 340.79 561.257 338.272C558.825 335.753 557.856 332.16 558.694 328.761C562.804 312.056 568.831 287.608 572.055 274.526Z" fill="#277A4B"/>
<path fill-rule="evenodd" clip-rule="evenodd" d="M891.937 216.125C903.833 210.454 915.627 210.333 918.26 215.854C920.892 221.376 913.37 230.462 901.473 236.132C889.577 241.803 877.782 241.924 875.15 236.402C872.518 230.881 880.039 221.795 891.937 216.125Z" fill="#3A4B45" fill-opacity="0.31"/>
<path fill-rule="evenodd" clip-rule="evenodd" d="M891.774 192.893L904.991 215.66L899.448 225.064L888.404 224.417L891.774 192.893Z" fill="#4C462A"/>
<path fill-rule="evenodd" clip-rule="evenodd" d="M875.607 111.078C875.84 109.449 877.099 108.158 878.721 107.884C880.342 107.608 881.956 108.413 882.713 109.875L916.675 175.427C919.236 180.37 918.831 186.326 915.627 190.877C910.918 197.518 903.771 206.421 897.831 208.783C891.948 211.124 880.181 209.859 871.719 208.476C866.255 207.569 862.516 202.464 863.302 196.981C866.12 177.292 872.549 132.417 875.607 111.078Z" fill="#215945"/>
<path fill-rule="evenodd" clip-rule="evenodd" d="M877.335 117.155C877.649 115.632 878.862 114.455 880.396 114.189C881.929 113.923 883.468 114.622 884.276 115.951C891.017 127.033 902.819 146.436 908.436 155.668C910.496 159.055 911.123 163.122 910.18 166.973C909.13 171.235 907.689 176.413 906.539 177.935C904.813 180.22 892.638 160.097 897.162 180.485C897.647 182.671 893.305 178.276 889.658 181.743C887.491 183.805 887.902 204.648 884.115 194.622C879.246 181.731 874.043 193.206 872.657 193.379C872.657 193.379 872.657 193.379 872.656 193.379C870.05 193.705 867.446 192.755 865.663 190.826C863.88 188.898 863.137 186.228 863.664 183.656C866.752 168.64 873.886 133.938 877.335 117.155Z" fill="#1B7252"/>
<path fill-rule="evenodd" clip-rule="evenodd" d="M874.89 107.561C875.259 106.066 876.497 104.943 878.022 104.721C879.547 104.5 881.054 105.226 881.832 106.556C887.416 116.101 896.684 131.943 902.393 141.698C905.841 147.592 904.849 155.075 899.981 159.863C897.458 162.483 894.818 165.118 892.524 166.592C890.581 167.841 888.281 160.635 886.394 161.285C884.94 161.785 888.093 171.493 885.92 171.872C883.779 172.244 880.047 175.445 878.705 173.187C873.791 164.915 876.196 173.662 874.941 173.903C874.47 173.992 873.992 174.092 873.509 174.199C870.081 174.919 866.526 173.825 864.092 171.307C861.66 168.788 860.692 165.197 861.531 161.796C865.639 145.091 871.666 120.644 874.89 107.561Z" fill="#277A4B"/>
<path fill-rule="evenodd" clip-rule="evenodd" d="M954.71 175.63C967.866 169.359 980.908 169.225 983.819 175.331C986.729 181.438 978.412 191.484 965.256 197.755C952.1 204.026 939.058 204.16 936.147 198.054C933.237 191.949 941.554 181.901 954.71 175.63Z" fill="#3A4B45" fill-opacity="0.31"/>
<path fill-rule="evenodd" clip-rule="evenodd" d="M954.551 148.785L969.169 173.963L963.038 184.362L950.826 183.647L954.551 148.785Z" fill="#4C462A"/>
<path fill-rule="evenodd" clip-rule="evenodd" d="M936.901 57.5195C937.134 55.8908 938.393 54.5992 940.015 54.3251C941.636 54.0495 943.251 54.8544 944.007 56.3146L982.578 130.765C985.124 135.677 984.739 141.596 981.583 146.139C976.399 153.552 968.129 164.085 961.299 166.802C954.535 169.493 940.737 167.875 931.327 166.279C925.889 165.345 922.183 160.253 922.966 154.792C926.053 133.232 933.545 80.944 936.901 57.5195Z" fill="#215945"/>
<path fill-rule="evenodd" clip-rule="evenodd" d="M938.762 63.5979C939.076 62.0731 940.29 60.8964 941.823 60.6302C943.356 60.364 944.895 61.0634 945.703 62.3928C953.188 74.6966 967.082 97.5382 973.287 107.741C975.336 111.108 975.97 115.15 975.047 118.984C973.878 123.814 972.188 130.041 970.853 131.806C968.943 134.334 955.481 112.082 960.483 134.627C961.02 137.045 956.217 132.184 952.184 136.018C949.787 138.299 950.242 161.346 946.054 150.259C940.671 136.004 934.916 148.694 933.385 148.886C933.382 148.886 933.378 148.886 933.375 148.888C930.494 149.245 927.618 148.194 925.647 146.062C923.677 143.93 922.856 140.98 923.441 138.135C926.915 121.231 935.032 81.7455 938.762 63.5979Z" fill="#1B7252"/>
<path fill-rule="evenodd" clip-rule="evenodd" d="M936.125 54.0023C936.494 52.5059 937.732 51.3827 939.257 51.1622C940.782 50.9417 942.288 51.6663 943.066 52.9957C949.351 63.7369 960.429 82.6722 966.848 93.6433C970.226 99.4179 969.347 106.736 964.696 111.545C961.646 114.877 958.269 118.386 955.39 120.239C953.24 121.62 950.696 113.651 948.61 114.369C947.002 114.922 950.49 125.659 948.086 126.076C945.717 126.489 941.591 130.027 940.108 127.532C934.672 118.383 937.334 128.056 935.944 128.322C934.931 128.518 933.886 128.749 932.83 129.008C929.388 129.787 925.788 128.729 923.316 126.212C920.845 123.693 919.854 120.073 920.698 116.647C925.337 97.7654 932.517 68.6404 936.125 54.0023Z" fill="#277A4B"/>
<path fill-rule="evenodd" clip-rule="evenodd" d="M1007.17 125.222C1020.33 118.953 1033.37 118.819 1036.28 124.925C1039.19 131.03 1030.88 141.078 1017.72 147.349C1004.56 153.62 991.522 153.754 988.611 147.647C985.702 141.541 994.019 131.493 1007.17 125.222Z" fill="#3A4B45" fill-opacity="0.31"/>
<path fill-rule="evenodd" clip-rule="evenodd" d="M1007.01 98.3828L1021.63 123.56L1015.5 133.96L1003.29 133.245L1007.01 98.3828Z" fill="#4C462A"/>
<path fill-rule="evenodd" clip-rule="evenodd" d="M989.364 7.1187C989.597 5.49154 990.856 4.19987 992.478 3.92421C994.099 3.65013 995.714 4.45506 996.47 5.91525L1035.04 80.3644C1037.59 85.2774 1037.2 91.1954 1034.05 95.7398C1028.86 103.153 1020.59 113.686 1013.76 116.401C1007 119.092 993.2 117.474 983.79 115.88C978.352 114.946 974.646 109.853 975.429 104.392C978.516 82.8312 986.007 30.5447 989.364 7.1187Z" fill="#215945"/>
<path fill-rule="evenodd" clip-rule="evenodd" d="M991.221 13.19C991.535 11.6668 992.749 10.4901 994.282 10.2239C995.814 9.95772 997.353 10.6571 998.161 11.985C1005.65 24.2887 1019.54 47.132 1025.75 57.3344C1027.8 60.7021 1028.43 64.7441 1027.51 68.5765C1026.34 73.4076 1024.65 79.6327 1023.31 81.3985C1021.4 83.9266 1007.94 61.6741 1012.94 84.2212C1013.48 86.6375 1008.68 81.7781 1004.64 85.6121C1002.25 87.8913 1002.7 110.939 998.513 99.8532C993.129 85.5978 987.375 98.2876 985.844 98.4797C985.84 98.4797 985.837 98.4797 985.834 98.4797C982.953 98.8389 980.077 97.7866 978.106 95.6554C976.136 93.5226 975.315 90.5723 975.9 87.7291C979.374 70.8227 987.491 31.3376 991.221 13.19Z" fill="#1B7252"/>
<path fill-rule="evenodd" clip-rule="evenodd" d="M988.588 3.59877C988.957 2.10392 990.195 0.980816 991.72 0.760291C993.245 0.53819 994.75 1.26435 995.528 2.5938C1001.81 13.335 1012.89 32.2702 1019.31 43.2413C1022.69 49.0159 1021.81 56.3326 1017.16 61.1432C1014.11 64.4747 1010.73 67.9827 1007.85 69.8351C1005.7 71.2181 1003.16 63.2493 1001.07 63.9676C999.465 64.5205 1002.95 75.2552 1000.55 75.6742C998.18 76.0869 994.054 79.6248 992.57 77.1282C987.134 67.9811 989.796 77.6543 988.407 77.9205C987.394 78.1142 986.348 78.3474 985.293 78.6041C981.851 79.3854 978.25 78.3269 975.779 75.8082C973.308 73.2894 972.317 69.6712 973.161 66.2436C977.8 47.3635 984.98 18.2369 988.588 3.59877Z" fill="#277A4B"/>
<path fill-rule="evenodd" clip-rule="evenodd" d="M816.951 243.084C825.019 239.237 833.018 239.155 834.802 242.901C836.587 246.645 831.487 252.807 823.418 256.652C815.35 260.497 807.352 260.579 805.567 256.835C803.782 253.091 808.883 246.929 816.951 243.084Z" fill="#3A4B45" fill-opacity="0.31"/>
<path fill-rule="evenodd" clip-rule="evenodd" d="M816.848 227.547L825.813 242.987L822.054 249.365L814.564 248.925L816.848 227.547Z" fill="#4C462A"/>
<path fill-rule="evenodd" clip-rule="evenodd" d="M805.366 177.236C805.599 175.608 806.86 174.316 808.48 174.042C810.103 173.766 811.718 174.571 812.474 176.031L832.39 214.474C835.065 219.637 834.496 225.884 830.931 230.479C827.921 234.36 824.19 238.457 820.978 239.735C817.769 241.011 811.979 240.707 806.85 240.05C804.138 239.713 801.676 238.298 800.017 236.126C798.358 233.954 797.643 231.207 798.031 228.502C799.926 215.22 803.33 191.46 805.366 177.236Z" fill="#215945"/>
<path fill-rule="evenodd" clip-rule="evenodd" d="M806.418 180.159C806.73 178.636 807.945 177.459 809.477 177.193C811.01 176.926 812.549 177.626 813.359 178.954C817.575 185.888 823.482 195.599 827.082 201.515C829.219 205.029 829.811 209.27 828.718 213.234C828.109 215.457 827.423 217.58 826.847 218.343C825.675 219.893 817.419 206.247 820.488 220.074C820.817 221.556 817.872 218.576 815.398 220.926C813.927 222.325 814.208 236.459 811.639 229.66C808.337 220.918 804.809 228.699 803.87 228.818C803.533 228.86 803.197 228.877 802.863 228.876C801.31 228.923 799.82 228.257 798.82 227.068C797.82 225.878 797.418 224.297 797.731 222.774C799.525 213.686 803.878 192.518 806.418 180.159Z" fill="#1B7252"/>
<path fill-rule="evenodd" clip-rule="evenodd" d="M804.652 173.719C805.02 172.223 806.26 171.1 807.785 170.879C809.31 170.658 810.815 171.383 811.594 172.712C814.742 178.096 818.891 185.185 822.149 190.753C826.183 197.647 824.071 206.495 817.357 210.824C817.348 210.825 817.338 210.832 817.33 210.838C816.012 211.686 814.451 206.798 813.172 207.239C812.186 207.577 814.325 214.162 812.85 214.418C811.398 214.671 808.869 216.841 807.958 215.31C804.625 209.699 806.257 215.631 805.405 215.795C805.405 215.795 805.403 215.795 805.403 215.797C802.853 216.285 800.232 215.442 798.444 213.56C796.658 211.679 795.952 209.016 796.573 206.495C799.063 196.395 802.451 182.65 804.652 173.719Z" fill="#277A4B"/>
<path fill-rule="evenodd" clip-rule="evenodd" d="M360.124 441.313C376.158 433.671 392.057 433.507 395.604 440.95C399.151 448.392 389.013 460.639 372.98 468.282C356.944 475.925 341.046 476.089 337.499 468.646C333.951 461.203 344.089 448.956 360.124 441.313Z" fill="#3A4B45" fill-opacity="0.31"/>
<path fill-rule="evenodd" clip-rule="evenodd" d="M359.837 413.42L377.655 444.108L370.183 456.783L355.299 455.912L359.837 413.42Z" fill="#4C462A"/>
<path fill-rule="evenodd" clip-rule="evenodd" d="M338.701 300.107C338.934 298.48 340.193 297.188 341.815 296.912C343.438 296.638 345.051 297.443 345.808 298.904L394.912 393.684C397.437 398.559 397.081 404.428 393.984 408.961C387.804 418 376.942 432.34 368.074 435.868C359.283 439.365 340.741 436.891 329.332 434.846C323.928 433.877 320.262 428.804 321.042 423.369C324.7 397.839 334.71 327.964 338.701 300.107Z" fill="#215945"/>
<path fill-rule="evenodd" clip-rule="evenodd" d="M340.989 306.182C341.301 304.657 342.516 303.48 344.048 303.214C345.581 302.948 347.12 303.647 347.93 304.977C356.993 319.878 375.886 350.937 383.343 363.197C385.378 366.54 386.016 370.548 385.121 374.357C383.703 380.374 381.437 389.055 379.679 391.383C377.349 394.464 360.942 367.341 367.04 394.822C367.693 397.769 361.84 391.845 356.924 396.518C354.002 399.297 354.556 427.389 349.453 413.877C342.891 396.501 335.876 411.968 334.01 412.201C333.11 412.314 332.209 412.341 331.322 412.302C328.342 412.204 325.557 410.796 323.711 408.454C321.865 406.111 321.145 403.074 321.747 400.154C325.912 379.522 336.591 327.573 340.989 306.182Z" fill="#1B7252"/>
<path fill-rule="evenodd" clip-rule="evenodd" d="M337.878 293.433C338.247 291.938 339.485 290.815 341.01 290.594C342.535 290.372 344.04 291.098 344.819 292.428C352.589 305.708 368.021 332.083 375.95 345.636C379.225 351.234 378.508 358.308 374.175 363.133C370.095 367.904 365.053 373.46 360.871 376.149C358.252 377.834 355.15 368.121 352.608 368.996C350.648 369.67 354.898 382.756 351.968 383.265C349.083 383.768 344.053 388.08 342.245 385.039C335.62 373.888 338.863 385.678 337.17 386.003C334.889 386.441 332.474 387.035 330.089 387.698C326.625 388.585 322.95 387.586 320.41 385.069C317.869 382.552 316.839 378.885 317.694 375.413C323.481 351.842 333.45 311.398 337.878 293.433Z" fill="#277A4B"/>
<path fill-rule="evenodd" clip-rule="evenodd" d="M410.801 413.65C410.978 411.99 412.223 410.641 413.865 410.332C415.506 410.025 417.155 410.829 417.924 412.311C426.451 428.77 441.393 457.613 441.393 457.613L454.339 486.867L399.504 519.138C399.504 519.138 407.55 444.008 410.801 413.65Z" fill="#215945"/>
<path fill-rule="evenodd" clip-rule="evenodd" d="M412.31 416.44C412.622 414.917 413.837 413.74 415.369 413.474C416.902 413.208 418.441 413.907 419.25 415.237C426.588 427.299 440.057 449.443 446.147 459.455C448.198 462.826 448.829 466.872 447.903 470.708C446.758 475.427 445.118 481.441 443.82 483.158C441.947 485.638 428.744 463.812 433.649 485.926C434.175 488.297 429.466 483.53 425.51 487.29C423.159 489.527 423.604 512.132 419.498 501.259C414.218 487.277 408.574 499.723 407.071 499.91C407.068 499.91 407.065 499.912 407.062 499.912C404.238 500.263 401.415 499.231 399.484 497.141C397.551 495.049 396.744 492.156 397.318 489.368C400.715 472.842 408.634 434.32 412.31 416.44Z" fill="#1B7252"/>
<path fill-rule="evenodd" clip-rule="evenodd" d="M409.691 406.846C410.06 405.35 411.299 404.226 412.824 404.006C414.347 403.785 415.855 404.51 416.633 405.841C422.779 416.346 433.49 434.653 439.769 445.384C443.16 451.179 442.261 458.526 437.572 463.333C434.623 466.526 431.392 469.859 428.629 471.636C426.52 472.991 424.025 465.176 421.979 465.881C420.404 466.422 423.822 476.953 421.465 477.362C419.142 477.767 415.095 481.237 413.641 478.789C408.31 469.817 410.92 479.304 409.557 479.566C408.655 479.739 407.724 479.942 406.783 480.169C403.345 480.938 399.753 479.873 397.288 477.354C394.824 474.835 393.837 471.222 394.681 467.801C399.214 449.351 406.159 421.177 409.691 406.846Z" fill="#277A4B"/>
<path fill-rule="evenodd" clip-rule="evenodd" d="M213.02 566.21C225.993 560.026 238.855 559.894 241.725 565.916C244.595 571.936 236.393 581.844 223.42 588.028C210.446 594.211 197.585 594.343 194.715 588.323C191.845 582.301 200.047 572.393 213.02 566.21Z" fill="#3A4B45" fill-opacity="0.31"/>
<path fill-rule="evenodd" clip-rule="evenodd" d="M212.773 542.58L227.188 567.406L221.144 577.662L209.102 576.957L212.773 542.58Z" fill="#4C462A"/>
<path fill-rule="evenodd" clip-rule="evenodd" d="M195.337 451.316C195.57 449.687 196.829 448.397 198.451 448.121C200.074 447.847 201.687 448.652 202.444 450.113L240.345 523.27C242.893 528.188 242.507 534.111 239.344 538.655C234.228 545.959 226.121 556.253 219.42 558.918C212.784 561.558 199.283 559.992 190.007 558.428C184.566 557.497 180.857 552.403 181.639 546.939C184.689 525.644 192.023 474.444 195.337 451.316Z" fill="#215945"/>
<path fill-rule="evenodd" clip-rule="evenodd" d="M197.192 457.391C197.506 455.868 198.72 454.691 200.253 454.425C201.785 454.159 203.324 454.858 204.132 456.188C211.51 468.317 225.098 490.654 231.221 500.718C233.27 504.089 233.902 508.134 232.977 511.968C231.825 516.719 230.172 522.791 228.864 524.522C226.98 527.014 213.705 505.072 218.638 527.304C219.167 529.687 214.431 524.896 210.455 528.676C208.091 530.925 208.538 553.652 204.41 542.72C199.101 528.662 193.426 541.175 191.915 541.364C191.915 541.364 191.915 541.364 191.914 541.364C189.072 541.72 186.234 540.684 184.288 538.581C182.344 536.478 181.533 533.565 182.11 530.76C185.529 514.128 193.501 475.345 197.192 457.391Z" fill="#1B7252"/>
<path fill-rule="evenodd" clip-rule="evenodd" d="M194.593 447.797C194.962 446.301 196.2 445.179 197.724 444.957C199.249 444.737 200.757 445.463 201.535 446.792C207.719 457.363 218.531 475.843 224.849 486.641C228.237 492.43 227.343 499.769 222.666 504.576C219.687 507.808 216.417 511.19 213.621 512.987C211.501 514.35 208.993 506.493 206.936 507.2C205.352 507.747 208.789 518.332 206.42 518.745C204.084 519.151 200.015 522.64 198.551 520.18C193.191 511.159 195.815 520.696 194.447 520.959C193.512 521.139 192.55 521.35 191.578 521.585C188.14 522.358 184.545 521.295 182.078 518.776C179.612 516.257 178.624 512.642 179.468 509.22C184.031 490.65 191.039 462.215 194.593 447.797Z" fill="#277A4B"/>
<path fill-rule="evenodd" clip-rule="evenodd" d="M532.293 396.579C547.766 387.215 563.857 385.441 568.203 392.622C572.55 399.804 563.516 413.238 548.043 422.603C532.571 431.969 516.48 433.741 512.134 426.56C507.787 419.378 516.82 405.945 532.293 396.579Z" fill="#3A4B45" fill-opacity="0.31"/>
<path fill-rule="evenodd" clip-rule="evenodd" d="M526.6 344.109L551.152 396.327L546.696 408.07L534.101 404.402L526.6 344.109Z" fill="#4C462A"/>
<path fill-rule="evenodd" clip-rule="evenodd" d="M521.866 341.95C522.453 341.488 523.164 341.209 523.909 341.149C529.318 340.722 552.632 338.878 565.903 337.827C568.148 337.649 570.328 338.632 571.679 340.433C573.033 342.231 573.37 344.599 572.574 346.705C571.572 348.529 570.43 350.663 568.932 353.045C567.633 355.11 560.485 357.717 561.085 360.464C564.509 376.107 549.165 367.34 544.352 373.28C541.606 376.67 542.005 386.371 539.684 387.545C537.385 388.709 521.875 392.437 518.727 391.237C514.105 389.476 512.741 385.774 507.162 387.148C484.893 392.631 480.864 383.076 480.259 377.831C480.067 376.09 480.788 374.371 482.164 373.288C489.554 367.404 516.58 346.114 521.866 341.95Z" fill="#215945"/>
<path fill-rule="evenodd" clip-rule="evenodd" d="M512.72 315.756L555.14 324.378C555.14 324.378 567.111 323.654 568.743 326.803C570.375 329.95 570.855 343.825 564.933 343.269C554.288 342.271 568.431 344.394 554.317 356.314C551.533 358.667 543.005 350.885 538.959 355.554C536.397 358.512 548.228 356.591 542.656 363.392C541.141 365.24 533.149 361.009 529.578 365.139C525.334 370.046 524.158 375.416 520.388 376.903C516.619 378.388 517.444 356.502 506.958 374.056C504.491 378.186 498.684 379.451 492.514 377.496C486.982 375.745 472.5 366.768 474.157 361.705C477.524 351.415 512.72 315.756 512.72 315.756Z" fill="#277A4B"/>
<path fill-rule="evenodd" clip-rule="evenodd" d="M489.993 315.953C490.622 315.421 491.058 314.695 491.234 313.89C495.29 295.326 511.507 294.819 528.546 298.976C532.506 299.941 539.92 296.656 543.694 298.056C556.478 302.794 563.219 314.12 560.093 320.29C557.258 325.891 552.607 334.921 550.803 337.338C545.591 344.317 545.97 335.72 540.111 340.372C537.625 342.344 527.41 319.445 523.9 337.05C523.488 339.118 533.667 348.966 530.751 349.779C527.878 350.58 506.832 331.524 515.024 354.35C519.485 366.781 511.661 355.34 509.981 355.841C505.072 357.3 494.582 361.024 488.481 361.953C481.568 363.007 479.206 360.665 477.198 350.927C476.362 346.872 473.827 332.976 476.847 325.418C479.112 319.748 485.641 319.515 489.993 315.953Z" fill="#508A4A"/>
<path fill-rule="evenodd" clip-rule="evenodd" d="M279.799 535.256C289.55 529.354 299.689 528.237 302.428 532.763C305.168 537.288 299.475 545.753 289.725 551.655C279.974 557.556 269.835 558.674 267.096 554.149C264.356 549.623 270.049 541.158 279.799 535.256Z" fill="#3A4B45" fill-opacity="0.31"/>
<path fill-rule="evenodd" clip-rule="evenodd" d="M276.258 504.779L291.731 537.685L288.922 545.085L280.985 542.774L276.258 504.779Z" fill="#4C462A"/>
<path fill-rule="evenodd" clip-rule="evenodd" d="M272.88 501.061C273.467 500.598 274.178 500.319 274.923 500.261C278.412 499.984 289.178 499.133 297.25 498.494C299.541 498.312 301.739 499.439 302.93 501.404C304.12 503.372 304.098 505.842 302.875 507.787C302.873 507.787 302.873 507.789 302.871 507.79C302.052 509.091 297.549 510.733 297.927 512.465C300.085 522.323 290.416 516.797 287.383 520.541C285.652 522.677 285.904 528.791 284.442 529.529C282.991 530.263 273.219 532.614 271.235 531.858C268.323 530.747 267.463 528.414 263.947 529.281C253.252 531.914 249.233 529.043 247.757 526.064C246.669 523.89 247.258 521.25 249.167 519.746C254.699 515.383 269.131 504.015 272.88 501.061Z" fill="#215945"/>
<path fill-rule="evenodd" clip-rule="evenodd" d="M267.457 485.877L294.188 491.311C294.188 491.311 301.733 490.855 302.76 492.839C303.789 494.822 304.091 503.566 300.36 503.217C293.651 502.587 302.563 503.924 293.67 511.436C291.915 512.918 286.542 508.015 283.992 510.959C282.377 512.822 289.833 511.611 286.322 515.897C285.367 517.061 280.33 514.394 278.08 516.998C275.407 520.09 274.665 523.473 272.29 524.409C269.914 525.346 270.434 511.556 263.826 522.617C262.272 525.219 258.613 526.016 254.723 524.784C251.239 523.681 242.113 518.023 243.157 514.834C245.279 508.349 267.457 485.877 267.457 485.877Z" fill="#277A4B"/>
<path fill-rule="evenodd" clip-rule="evenodd" d="M252.537 485.768C253.289 485.243 253.821 484.462 254.037 483.572C256.753 472.303 266.848 472.024 277.45 474.611C279.946 475.219 284.619 473.149 286.998 474.031C295.053 477.018 299.301 484.153 297.332 488.042C295.544 491.572 292.613 497.262 291.476 498.785C288.192 503.183 288.431 497.764 284.739 500.696C283.173 501.939 276.735 487.51 274.524 498.602C274.264 499.907 280.678 506.113 278.841 506.625C277.03 507.129 263.768 495.121 268.93 509.506C271.74 517.338 266.812 510.13 265.752 510.445C262.66 511.364 256.048 513.712 252.203 514.296C247.847 514.961 246.36 513.485 245.093 507.348C244.567 504.793 242.97 496.036 244.873 491.273C246.196 487.961 249.83 487.592 252.537 485.768Z" fill="#508A4A"/>
<path fill-rule="evenodd" clip-rule="evenodd" d="M345.365 481.7C355.116 475.797 365.255 474.681 367.994 479.206C370.734 483.732 365.042 492.197 355.292 498.097C345.542 503.999 335.401 505.116 332.662 500.591C329.924 496.065 335.615 487.6 345.365 481.7Z" fill="#3A4B45" fill-opacity="0.31"/>
<path fill-rule="evenodd" clip-rule="evenodd" d="M341.824 451.223L357.296 484.128L354.489 491.528L346.551 489.216L341.824 451.223Z" fill="#4C462A"/>
<path fill-rule="evenodd" clip-rule="evenodd" d="M338.445 447.505C339.032 447.043 339.744 446.764 340.489 446.705C343.978 446.429 354.743 445.577 362.816 444.939C365.106 444.758 367.305 445.884 368.494 447.85C369.685 449.817 369.665 452.287 368.441 454.232C368.439 454.232 368.438 454.234 368.438 454.234C367.619 455.537 363.114 457.178 363.493 458.911C365.651 468.768 355.981 463.242 352.949 466.987C351.218 469.121 351.47 475.234 350.007 475.975C348.557 476.707 338.785 479.059 336.8 478.301C333.888 477.192 333.029 474.859 329.513 475.724C318.818 478.358 314.798 475.486 313.324 472.509C312.235 470.335 312.824 467.695 314.734 466.191C320.266 461.828 334.696 450.458 338.445 447.505Z" fill="#215945"/>
<path fill-rule="evenodd" clip-rule="evenodd" d="M333.025 432.318L359.756 437.753C359.756 437.753 367.299 437.296 368.328 439.279C369.357 441.264 369.659 450.008 365.927 449.658C359.219 449.028 368.131 450.365 359.238 457.877C357.483 459.359 352.108 454.456 349.56 457.398C347.945 459.262 355.401 458.052 351.889 462.337C350.935 463.502 345.898 460.835 343.647 463.438C340.974 466.53 340.232 469.915 337.856 470.85C335.481 471.788 336.001 457.995 329.394 469.058C327.84 471.66 324.179 472.457 320.291 471.225C316.806 470.121 307.679 464.465 308.723 461.275C310.847 454.79 333.025 432.318 333.025 432.318Z" fill="#277A4B"/>
<path fill-rule="evenodd" clip-rule="evenodd" d="M318.101 432.215C318.852 431.69 319.384 430.909 319.6 430.019C322.314 418.748 332.411 418.47 343.014 421.056C345.509 421.666 350.181 419.596 352.559 420.476C360.615 423.463 364.863 430.6 362.894 434.488C361.106 438.018 358.176 443.709 357.039 445.23C353.755 449.63 353.994 444.211 350.301 447.143C348.735 448.385 342.299 433.955 340.087 445.049C339.827 446.352 346.241 452.558 344.403 453.072C342.593 453.576 329.33 441.568 334.492 455.951C337.304 463.784 332.373 456.576 331.315 456.891C328.221 457.811 321.612 460.157 317.767 460.743C313.41 461.406 311.921 459.932 310.656 453.795C310.129 451.24 308.533 442.482 310.434 437.72C311.757 434.406 315.391 434.039 318.101 432.215Z" fill="#508A4A"/>
<path fill-rule="evenodd" clip-rule="evenodd" d="M847.448 232.817C857.198 226.915 867.338 225.798 870.077 230.323C872.816 234.849 867.124 243.314 857.373 249.216C847.623 255.116 837.483 256.235 834.744 251.709C832.005 247.184 837.698 238.717 847.448 232.817Z" fill="#3A4B45" fill-opacity="0.31"/>
<path fill-rule="evenodd" clip-rule="evenodd" d="M843.906 202.338L859.379 235.243L856.571 242.644L848.633 240.333L843.906 202.338Z" fill="#4C462A"/>
<path fill-rule="evenodd" clip-rule="evenodd" d="M840.528 198.62C841.116 198.159 841.826 197.88 842.571 197.822C846.06 197.544 856.827 196.694 864.898 196.054C867.19 195.873 869.387 196.999 870.578 198.965C871.769 200.933 871.747 203.402 870.523 205.348C870.521 205.348 870.521 205.349 870.52 205.351C869.701 206.652 865.197 208.293 865.575 210.026C867.733 219.884 858.065 214.358 855.031 218.102C853.3 220.238 853.552 226.351 852.09 227.09C850.639 227.824 840.867 230.174 838.882 229.418C835.971 228.308 835.111 225.975 831.595 226.841C820.9 229.475 816.882 226.603 815.406 223.625C814.317 221.451 814.906 218.811 816.816 217.306C822.348 212.943 836.779 201.574 840.528 198.62Z" fill="#215945"/>
<path fill-rule="evenodd" clip-rule="evenodd" d="M835.106 183.436L861.836 188.87C861.836 188.87 869.38 188.413 870.409 190.398C871.437 192.381 871.74 201.125 868.008 200.775C861.299 200.145 870.212 201.482 861.318 208.994C859.563 210.477 854.191 205.573 851.64 208.516C850.026 210.379 857.481 209.169 853.97 213.455C853.015 214.619 847.978 211.953 845.729 214.556C843.054 217.647 842.314 221.032 839.938 221.968C837.563 222.905 838.083 209.114 831.475 220.175C829.92 222.777 826.261 223.574 822.372 222.343C818.886 221.24 809.761 215.582 810.805 212.392C812.927 205.907 835.106 183.436 835.106 183.436Z" fill="#277A4B"/>
<path fill-rule="evenodd" clip-rule="evenodd" d="M820.186 183.328C820.937 182.804 821.47 182.023 821.685 181.133C824.399 169.864 834.496 169.585 845.099 172.171C847.594 172.779 852.267 170.71 854.646 171.592C862.701 174.578 866.948 181.714 864.979 185.603C863.193 189.133 860.262 194.822 859.124 196.344C855.84 200.744 856.079 195.325 852.387 198.256C850.821 199.499 844.384 185.071 842.172 196.163C841.912 197.467 848.326 203.673 846.488 204.185C844.678 204.689 831.417 192.682 836.579 207.066C839.389 214.898 834.46 207.69 833.4 208.005C830.308 208.925 823.697 211.272 819.852 211.856C815.495 212.521 814.008 211.045 812.742 204.908C812.215 202.353 810.618 193.597 812.521 188.834C813.844 185.521 817.478 185.152 820.186 183.328Z" fill="#508A4A"/>
<path fill-rule="evenodd" clip-rule="evenodd" d="M996.11 150.909C1005.86 145.006 1016 143.89 1018.74 148.415C1021.48 152.941 1015.79 161.406 1006.04 167.306C996.285 173.208 986.145 174.325 983.406 169.8C980.667 165.274 986.36 156.809 996.11 150.909Z" fill="#3A4B45" fill-opacity="0.31"/>
<path fill-rule="evenodd" clip-rule="evenodd" d="M992.568 120.43L1008.04 153.335L1005.23 160.735L997.296 158.423L992.568 120.43Z" fill="#4C462A"/>
<path fill-rule="evenodd" clip-rule="evenodd" d="M989.19 116.712C989.778 116.25 990.49 115.972 991.235 115.912C994.723 115.636 1005.49 114.784 1013.56 114.146C1015.85 113.965 1018.05 115.091 1019.24 117.057C1020.43 119.024 1020.41 121.494 1019.19 123.439C1019.18 123.439 1019.18 123.441 1019.18 123.441C1018.36 124.742 1013.86 126.385 1014.24 128.118C1016.4 137.975 1006.73 132.449 1003.69 136.192C1001.96 138.328 1002.21 144.441 1000.75 145.182C999.303 145.914 989.531 148.266 987.546 147.508C984.633 146.399 983.773 144.066 980.258 144.931C969.562 147.565 965.544 144.693 964.068 141.716C962.979 139.543 963.569 136.902 965.479 135.398C971.01 131.035 985.441 119.665 989.19 116.712Z" fill="#215945"/>
<path fill-rule="evenodd" clip-rule="evenodd" d="M983.769 101.527L1010.5 106.962C1010.5 106.962 1018.04 106.505 1019.07 108.488C1020.1 110.473 1020.4 119.217 1016.67 118.867C1009.96 118.237 1018.88 119.574 1009.98 127.086C1008.23 128.568 1002.85 123.665 1000.3 126.607C998.688 128.471 1006.14 127.261 1002.63 131.546C1001.68 132.711 996.642 130.044 994.391 132.647C991.718 135.739 990.976 139.124 988.6 140.059C986.225 140.997 986.745 127.204 980.138 138.267C978.582 140.869 974.923 141.666 971.036 140.434C967.55 139.33 958.423 133.674 959.467 130.484C961.589 123.999 983.769 101.527 983.769 101.527Z" fill="#277A4B"/>
<path fill-rule="evenodd" clip-rule="evenodd" d="M968.849 101.422C969.599 100.897 970.133 100.116 970.347 99.2259C973.063 87.9555 983.16 87.6767 993.762 90.2631C996.258 90.8727 1000.93 88.803 1003.31 89.6835C1011.36 92.67 1015.61 99.8071 1013.64 103.695C1011.85 107.225 1008.92 112.916 1007.79 114.437C1004.5 118.837 1004.74 113.418 1001.05 116.35C999.484 117.593 993.047 103.162 990.834 114.256C990.574 115.559 996.99 121.765 995.152 122.277C993.34 122.783 980.079 110.775 985.241 125.158C988.052 132.991 983.122 125.783 982.062 126.098C978.97 127.018 972.359 129.364 968.515 129.95C964.159 130.613 962.67 129.139 961.405 123.002C960.877 120.447 959.28 111.689 961.183 106.927C962.506 103.613 966.14 103.246 968.849 101.422Z" fill="#508A4A"/>
</svg>
