<svg width="409" height="1253" viewBox="0 0 409 1253" fill="none" xmlns="http://www.w3.org/2000/svg">
<path d="M168.948 1252.97L0 1151.35L233.883 1021.99L408.73 1106.19L168.948 1252.97Z" fill="black" fill-opacity="0.15"/>
<path fill-rule="evenodd" clip-rule="evenodd" d="M248.227 453.652L30.002 579.643L160.71 655.11L378.936 529.119L248.227 453.652Z" fill="url(#paint0_linear)"/>
<path d="M159.255 654.731L378.621 530.209L371.847 1100.24L159.255 1222.18V654.731Z" fill="url(#paint1_linear)"/>
<path fill-rule="evenodd" clip-rule="evenodd" d="M211.558 661.576L183.189 677.953V720.636L211.558 704.257V661.576Z" fill="#2F3944"/>
<path fill-rule="evenodd" clip-rule="evenodd" d="M262.855 630.074L234.486 646.451V689.134L262.855 672.755V630.074Z" fill="#2F3944"/>
<path fill-rule="evenodd" clip-rule="evenodd" d="M313.453 601.719L285.084 618.097V660.778L313.453 644.401V601.719Z" fill="#2F3944"/>
<path fill-rule="evenodd" clip-rule="evenodd" d="M362.48 573.365L334.111 589.744V632.427L362.48 616.048V573.365Z" fill="#2F3944"/>
<path fill-rule="evenodd" clip-rule="evenodd" d="M211.558 734.031L183.189 750.41V793.091L211.558 776.712V734.031Z" fill="#2F3944"/>
<path fill-rule="evenodd" clip-rule="evenodd" d="M262.855 705.678L234.486 722.056V764.737L262.855 748.36V705.678Z" fill="#2F3944"/>
<path fill-rule="evenodd" clip-rule="evenodd" d="M313.453 677.328L285.084 693.707V736.389L313.453 720.011V677.328Z" fill="#2F3944"/>
<path fill-rule="evenodd" clip-rule="evenodd" d="M362.48 648.973L334.111 665.35V708.032L362.48 691.654V648.973Z" fill="#2F3944"/>
<path fill-rule="evenodd" clip-rule="evenodd" d="M212.152 803.342L183.783 819.721V862.402L212.152 846.023V803.342Z" fill="#2F3944"/>
<path fill-rule="evenodd" clip-rule="evenodd" d="M263.443 771.838L235.074 788.217V830.898L263.443 814.521V771.838Z" fill="#2F3944"/>
<path fill-rule="evenodd" clip-rule="evenodd" d="M313.943 743.486L285.574 759.865V802.548L313.943 786.169V743.486Z" fill="#2F3944"/>
<path fill-rule="evenodd" clip-rule="evenodd" d="M363.074 715.133L334.705 731.512V774.194L363.074 757.815V715.133Z" fill="#2F3944"/>
<path fill-rule="evenodd" clip-rule="evenodd" d="M212.152 869.5L183.783 885.879V928.56L212.152 912.181V869.5Z" fill="#2F3944"/>
<path fill-rule="evenodd" clip-rule="evenodd" d="M263.443 837.996L235.074 854.375V897.056L263.443 880.679V837.996Z" fill="#2F3944"/>
<path fill-rule="evenodd" clip-rule="evenodd" d="M313.943 809.643L285.574 826.021V868.704L313.943 852.325V809.643Z" fill="#2F3944"/>
<path fill-rule="evenodd" clip-rule="evenodd" d="M363.074 781.287L334.705 797.666V840.349L363.074 823.97V781.287Z" fill="#2F3944"/>
<path fill-rule="evenodd" clip-rule="evenodd" d="M211.558 935.656L183.189 952.035V994.716L211.558 978.337V935.656Z" fill="#2F3944"/>
<path fill-rule="evenodd" clip-rule="evenodd" d="M262.855 907.303L234.486 923.681V966.362L262.855 949.985V907.303Z" fill="#2F3944"/>
<path fill-rule="evenodd" clip-rule="evenodd" d="M313.453 878.951L285.084 895.33V938.012L313.453 921.634V878.951Z" fill="#2F3944"/>
<path fill-rule="evenodd" clip-rule="evenodd" d="M362.48 850.598L334.111 866.976V909.659L362.48 893.28V850.598Z" fill="#2F3944"/>
<path fill-rule="evenodd" clip-rule="evenodd" d="M212.152 1001.81L183.783 1018.19V1060.87L212.152 1044.5V1001.81Z" fill="#2F3944"/>
<path fill-rule="evenodd" clip-rule="evenodd" d="M263.443 973.461L235.074 989.84V1032.52L263.443 1016.14V973.461Z" fill="#2F3944"/>
<path fill-rule="evenodd" clip-rule="evenodd" d="M313.943 945.107L285.574 961.486V1004.17L313.943 987.79V945.107Z" fill="#2F3944"/>
<path fill-rule="evenodd" clip-rule="evenodd" d="M363.074 916.756L334.705 933.135V975.817L363.074 959.438V916.756Z" fill="#2F3944"/>
<path fill-rule="evenodd" clip-rule="evenodd" d="M212.152 1071.12L183.783 1087.49V1130.18L212.152 1113.8V1071.12Z" fill="#2F3944"/>
<path fill-rule="evenodd" clip-rule="evenodd" d="M263.443 1039.62L235.074 1056V1098.68L263.443 1082.3V1039.62Z" fill="#2F3944"/>
<path fill-rule="evenodd" clip-rule="evenodd" d="M313.943 1011.26L285.574 1027.64V1070.32L313.943 1053.95V1011.26Z" fill="#2F3944"/>
<path fill-rule="evenodd" clip-rule="evenodd" d="M363.074 982.912L334.705 999.291V1041.97L363.074 1025.59V982.912Z" fill="#2F3944"/>
<path fill-rule="evenodd" clip-rule="evenodd" d="M212.152 1137.28L183.783 1153.65V1196.33L212.152 1179.95V1137.28Z" fill="#2F3944"/>
<path fill-rule="evenodd" clip-rule="evenodd" d="M263.443 1108.93L235.074 1125.31V1168L263.443 1151.62V1108.93Z" fill="#2F3944"/>
<path fill-rule="evenodd" clip-rule="evenodd" d="M313.943 1077.42L285.574 1093.8V1136.48L313.943 1120.11V1077.42Z" fill="#2F3944"/>
<path fill-rule="evenodd" clip-rule="evenodd" d="M363.074 1049.07L334.705 1065.45V1108.14L363.074 1091.76V1049.07Z" fill="#2F3944"/>
<path d="M159.253 653.764L32.7949 577.309V1148.95L159.253 1222.5V653.764Z" fill="url(#paint2_linear)"/>
<path fill-rule="evenodd" clip-rule="evenodd" d="M73.7857 644.137L43.9707 626.924V670.251L73.7857 687.464V644.137Z" fill="#425861"/>
<path fill-rule="evenodd" clip-rule="evenodd" d="M130.396 675.641L100.578 658.428V701.755L130.396 718.968V675.641Z" fill="#425861"/>
<path fill-rule="evenodd" clip-rule="evenodd" d="M73.7857 710.296L43.9707 693.082V736.409L73.7857 753.622V710.296Z" fill="#425861"/>
<path fill-rule="evenodd" clip-rule="evenodd" d="M130.396 744.95L100.578 727.736V771.063L130.396 788.277V744.95Z" fill="#425861"/>
<path fill-rule="evenodd" clip-rule="evenodd" d="M73.7857 779.604L43.9707 762.391V805.718L73.7857 822.931V779.604Z" fill="#425861"/>
<path fill-rule="evenodd" clip-rule="evenodd" d="M130.396 811.108L100.578 793.895V837.221L130.396 854.435V811.108Z" fill="#425861"/>
<path fill-rule="evenodd" clip-rule="evenodd" d="M73.7857 845.762L43.9707 828.549V871.876L73.7857 889.089V845.762Z" fill="#425861"/>
<path fill-rule="evenodd" clip-rule="evenodd" d="M130.396 877.264L100.578 860.051V903.378L130.396 920.591V877.264Z" fill="#425861"/>
<path fill-rule="evenodd" clip-rule="evenodd" d="M73.7857 911.919L43.9707 894.705V938.032L73.7857 955.246V911.919Z" fill="#425861"/>
<path fill-rule="evenodd" clip-rule="evenodd" d="M130.396 946.573L100.578 929.359V972.686L130.396 989.898V946.573Z" fill="#425861"/>
<path fill-rule="evenodd" clip-rule="evenodd" d="M73.7857 981.229L43.9707 964.016V1007.34L73.7857 1024.56V981.229Z" fill="#425861"/>
<path fill-rule="evenodd" clip-rule="evenodd" d="M130.396 1012.73L100.578 995.516V1038.84L130.396 1056.05V1012.73Z" fill="#425861"/>
<path fill-rule="evenodd" clip-rule="evenodd" d="M73.7857 1047.38L43.9707 1030.17V1073.5L73.7857 1090.72V1047.38Z" fill="#425861"/>
<path fill-rule="evenodd" clip-rule="evenodd" d="M130.396 1078.89L100.578 1061.67V1105L130.396 1122.2V1078.89Z" fill="#425861"/>
<path fill-rule="evenodd" clip-rule="evenodd" d="M73.7857 1113.54L43.9707 1096.33V1139.66L73.7857 1156.88V1113.54Z" fill="#425861"/>
<path fill-rule="evenodd" clip-rule="evenodd" d="M130.396 1148.2L100.578 1130.98V1174.32L130.396 1191.53V1148.2Z" fill="#425861"/>
<path fill-rule="evenodd" clip-rule="evenodd" d="M107.11 510.123L106.59 557.624C126.084 588.943 215.327 603.572 269.876 557.571V504.059C219.706 541.957 165.379 543.32 107.11 510.123Z" fill="url(#paint3_linear)"/>
<path d="M190.009 601.316C253.792 601.316 305.499 576.329 305.499 545.506C305.499 514.684 253.792 489.697 190.009 489.697C151.331 489.697 117.093 498.886 96.1338 512.992L106.457 520.344L122.264 527.441L106.457 557.443V535.829L75.7168 553.571C83.8043 580.572 131.894 601.316 190.009 601.316Z" fill="black" fill-opacity="0.15"/>
<ellipse cx="186.357" cy="467.298" rx="117.425" ry="71.6165" fill="#32474F"/>
<ellipse cx="186.357" cy="446.007" rx="117.425" ry="76.778" fill="url(#paint4_linear)"/>
<ellipse cx="186.357" cy="439.233" rx="117.425" ry="62.9063" fill="#32474F"/>
<ellipse cx="186.034" cy="419.229" rx="130.006" ry="62.9063" fill="url(#paint5_linear)"/>
<ellipse cx="186.038" cy="413.423" rx="111.296" ry="54.5188" fill="url(#paint6_linear)"/>
<ellipse cx="185.707" cy="409.877" rx="60.6482" ry="36.1308" fill="url(#paint7_linear)"/>
<ellipse cx="181.52" cy="399.551" rx="51.9381" ry="32.9049" fill="url(#paint8_linear)"/>
<path d="M178.498 4.69336L186.805 390.989C186.911 395.938 182.929 400.007 177.978 400.007C173.019 400.007 169.032 395.923 169.152 390.965L178.498 4.69336Z" fill="url(#paint9_linear)"/>
<path fill-rule="evenodd" clip-rule="evenodd" d="M159.784 265.301C163.722 263.486 172.496 261.477 172.496 261.477L172.165 277.929C176.607 280.555 180.781 280.634 184.656 277.709L184.278 261.743C184.278 261.743 200.991 264.493 204.692 267.265C215.041 275.007 211.734 286.698 197.305 293.357C182.876 300.015 162.746 299.134 152.397 291.392C142.048 283.65 145.356 271.959 159.784 265.301Z" fill="url(#paint10_linear)"/>
<path fill-rule="evenodd" clip-rule="evenodd" d="M170.559 196.375C171.52 195.934 173.82 195.429 173.82 195.429L173.694 202.93C176.876 204.947 179.837 204.661 182.609 202.416L182.42 195.318C182.42 195.318 187.335 196.205 188.611 197.164C192.769 200.275 191.446 204.973 185.65 207.649C179.853 210.324 171.756 209.969 167.598 206.858C163.439 203.747 164.763 199.05 170.559 196.375Z" fill="url(#paint11_linear)"/>
<path fill-rule="evenodd" clip-rule="evenodd" d="M170.761 120.983C172.305 120.273 175.707 119.792 175.707 119.792L175.676 126.76C177.314 128.27 178.936 128.251 180.543 126.704L180.417 119.709C180.417 119.709 187.159 120.536 188.813 121.774C192.971 124.885 191.632 129.582 185.836 132.257C180.039 134.933 171.958 134.579 167.784 131.468C163.626 128.357 164.964 123.66 170.761 120.983Z" fill="url(#paint12_linear)"/>
<path fill-rule="evenodd" clip-rule="evenodd" d="M245.868 0L179.143 38.5241L178.561 106.008L245.868 67.153V0Z" fill="#B24B53"/>
<path fill-rule="evenodd" clip-rule="evenodd" d="M225.807 12.6016L199.407 27.8414L198.84 95.3253L224.547 81.1896L225.807 12.6016Z" fill="#C8C8C8"/>
<path fill-rule="evenodd" clip-rule="evenodd" d="M211.909 64.6296L207.687 68.7818L213.531 66.7876L213.074 73.6884L214.744 72.989L214.665 66.7057L219.47 64.6311L217.091 63.957L221.895 57.4988L220.115 55.7818L222.777 51.7919L220.241 52.4125L222.336 46.0551L216.004 51.4296L216.02 37.8027L214.224 43.2938L211.909 38.0216L210.948 44.3586L208.632 41.8478L210.081 53.4128L202.001 52.0943L204.616 55.6069L202.032 58.5589L206.222 61.2697L201.891 65.0344L211.909 64.6296Z" fill="#B24B53"/>
<defs>
<linearGradient id="paint0_linear" x1="99.1287" y1="498.162" x2="362.99" y2="656.973" gradientUnits="userSpaceOnUse">
<stop stop-color="#B0CDAE"/>
<stop offset="1" stop-color="#425861"/>
</linearGradient>
<linearGradient id="paint1_linear" x1="272.487" y1="576.985" x2="272.487" y2="1222.18" gradientUnits="userSpaceOnUse">
<stop stop-color="#6B797D"/>
<stop offset="1" stop-color="#406376"/>
</linearGradient>
<linearGradient id="paint2_linear" x1="96.0238" y1="577.309" x2="96.0238" y2="1222.5" gradientUnits="userSpaceOnUse">
<stop stop-color="#8D9F96"/>
<stop offset="1" stop-color="#4C6C7E"/>
</linearGradient>
<linearGradient id="paint3_linear" x1="101.491" y1="466.976" x2="269.879" y2="545.451" gradientUnits="userSpaceOnUse">
<stop stop-color="#B0CDAE"/>
<stop offset="1" stop-color="#425861"/>
</linearGradient>
<linearGradient id="paint4_linear" x1="139.876" y1="402.03" x2="390.867" y2="470.78" gradientUnits="userSpaceOnUse">
<stop stop-color="#C8E3CB"/>
<stop offset="1" stop-color="#32474F"/>
</linearGradient>
<linearGradient id="paint5_linear" x1="134.573" y1="383.198" x2="397.31" y2="480.445" gradientUnits="userSpaceOnUse">
<stop stop-color="#C8E3CB"/>
<stop offset="1" stop-color="#32474F"/>
</linearGradient>
<linearGradient id="paint6_linear" x1="141.983" y1="382.196" x2="308.728" y2="472.919" gradientUnits="userSpaceOnUse">
<stop stop-color="#EAFCEC"/>
<stop offset="1" stop-color="#629A90"/>
</linearGradient>
<linearGradient id="paint7_linear" x1="284.511" y1="446.008" x2="129.131" y2="380.333" gradientUnits="userSpaceOnUse">
<stop stop-color="#32474F"/>
<stop offset="1" stop-color="#7EACA4"/>
</linearGradient>
<linearGradient id="paint8_linear" x1="160.961" y1="380.704" x2="246.646" y2="416.751" gradientUnits="userSpaceOnUse">
<stop stop-color="#FBFFFB"/>
<stop offset="1" stop-color="#57B4A3"/>
</linearGradient>
<linearGradient id="paint9_linear" x1="124.301" y1="148.862" x2="299.996" y2="414.53" gradientUnits="userSpaceOnUse">
<stop stop-color="#CBE7CD"/>
<stop offset="1" stop-color="#4C696C"/>
</linearGradient>
<linearGradient id="paint10_linear" x1="146.364" y1="263.836" x2="239.494" y2="290.782" gradientUnits="userSpaceOnUse">
<stop stop-color="#E3FFE0"/>
<stop offset="1" stop-color="#425861"/>
</linearGradient>
<linearGradient id="paint11_linear" x1="146.286" y1="264.018" x2="239.416" y2="290.964" gradientUnits="userSpaceOnUse">
<stop stop-color="#E3FFE0"/>
<stop offset="1" stop-color="#425861"/>
</linearGradient>
<linearGradient id="paint12_linear" x1="146.283" y1="262.276" x2="239.413" y2="289.221" gradientUnits="userSpaceOnUse">
<stop stop-color="#E3FFE0"/>
<stop offset="1" stop-color="#425861"/>
</linearGradient>
</defs>
</svg>
