<svg width="180" height="444" viewBox="0 0 180 444" fill="none" xmlns="http://www.w3.org/2000/svg">
<path d="M87.5059 442.658L12.3895 396.732C9.60794 395.032 9.66178 390.973 12.4875 389.347L87.6018 346.117C88.9039 345.368 90.5029 345.354 91.8183 346.079L170.163 389.31C173.078 390.919 173.132 395.09 170.26 396.774L91.9173 442.699C90.5517 443.499 88.8564 443.483 87.5059 442.658Z" fill="black" fill-opacity="0.15"/>
<circle cx="89.9388" cy="47.1263" r="20.888" fill="#DEDCCA"/>
<circle cx="85.6233" cy="42.1194" r="10.3577" fill="#FDFBEB"/>
<circle cx="89.9388" cy="114.452" r="20.888" fill="#DEDCCA"/>
<circle cx="85.6233" cy="109.448" r="10.3577" fill="#FDFBEB"/>
<path d="M89.8105 409.648V347.336L103.837 339.404L111.346 395.666L89.8105 409.648Z" fill="#34352D"/>
<path d="M75.6102 339.389L89.7657 346.466V410.166L66.4609 397.219L75.6102 339.389Z" fill="url(#paint0_linear)"/>
<path d="M89.8093 347.285L103.922 339.579C103.46 339.172 102.692 337.691 100.892 337.068C99.0907 336.445 99.0445 334.904 99.2466 334.211L89.8093 339.579V347.285Z" fill="url(#paint1_linear)"/>
<path d="M89.8137 347.371L75.7012 339.492C76.1601 339.088 77.0096 337.668 78.7995 337.049C80.5893 336.43 80.6352 334.899 80.4344 334.211L89.8137 339.543V347.371Z" fill="url(#paint2_linear)"/>
<rect x="80.4434" y="40.7422" width="18.6438" height="300.373" fill="#34352D"/>
<rect x="82.8594" y="40.7422" width="10.0124" height="300.373" fill="#474842"/>
<circle cx="158.988" cy="134.13" r="20.888" fill="#DEDCCA"/>
<circle cx="154.672" cy="129.125" r="10.3577" fill="#FDFBEB"/>
<path d="M150.529 107.029C158.47 113.071 160.369 111.172 167.102 107.029V118.078C160.968 122.114 157.384 122.485 150.529 118.078V107.029Z" fill="url(#paint3_linear)"/>
<ellipse cx="158.987" cy="108.755" rx="9.49455" ry="3.45256" fill="#6F6F6F"/>
<path d="M108.69 119.711C107.546 120.287 113.316 125.561 115.03 123.324C117.619 119.944 117.429 121.25 117.429 115.754C117.429 109.379 112.466 110.417 106.805 111.453C102.276 112.282 98.5234 123.534 98.7521 128.313C100.296 133.84 119.17 140.654 124.797 134.851C131.83 127.596 130.619 117.672 133.878 111.453C137.138 105.235 138.668 92.8735 146.044 92.873C153.29 92.8726 155.456 103.802 154.998 107.775C155.627 110.596 157.642 102.031 164.947 105.285C173.867 109.258 168.035 117.203 161.86 117.203" stroke="#34352D" stroke-width="8.588" stroke-linecap="round" stroke-linejoin="round"/>
<circle cx="89.9408" cy="166.931" r="20.888" fill="#DEDCCA"/>
<circle cx="85.6253" cy="161.926" r="10.3577" fill="#FDFBEB"/>
<path d="M81.4805 139.83C89.4214 145.872 91.3203 143.973 98.0528 139.83V150.878C91.9188 154.915 88.3352 155.286 81.4805 150.878V139.83Z" fill="url(#paint4_linear)"/>
<ellipse cx="89.9379" cy="141.556" rx="9.49455" ry="3.45256" fill="#6F6F6F"/>
<circle cx="20.888" cy="133.786" r="20.888" fill="#DEDCCA"/>
<circle cx="16.5725" cy="128.78" r="10.3577" fill="#FDFBEB"/>
<path d="M12.084 108.41C20.0249 114.452 21.9238 112.553 28.6563 108.41V119.458C22.5223 123.495 18.9387 123.866 12.084 119.458V108.41Z" fill="url(#paint5_linear)"/>
<ellipse cx="20.5414" cy="110.136" rx="9.49455" ry="3.45256" fill="#6F6F6F"/>
<path d="M69.9117 119.803C71.0638 120.381 65.2508 125.672 63.5245 123.428C60.9155 120.037 61.1077 121.347 61.1077 115.833C61.1077 109.436 66.1077 110.477 71.8106 111.517C76.373 112.349 80.154 123.639 79.9236 128.434C78.3682 133.981 59.353 140.818 53.6847 134.994C46.5992 127.715 47.8189 117.756 44.5354 111.517C41.2519 105.277 39.7098 92.8735 32.2788 92.873C24.9788 92.8726 22.797 103.839 23.2578 107.826C22.6241 110.657 20.595 102.062 13.2345 105.327C4.24808 109.314 10.1238 117.286 16.3452 117.286" stroke="#34352D" stroke-width="8.588" stroke-linecap="round" stroke-linejoin="round"/>
<circle cx="138.277" cy="56.4525" r="20.888" fill="#DEDCCA"/>
<circle cx="133.961" cy="51.4456" r="10.3577" fill="#FDFBEB"/>
<path d="M129.822 29.3516C137.763 35.3936 139.662 33.4946 146.395 29.3516V40.3998C140.261 44.4365 136.677 44.8072 129.822 40.3998V29.3516Z" fill="url(#paint6_linear)"/>
<ellipse cx="138.28" cy="31.0776" rx="9.49455" ry="3.45256" fill="#6F6F6F"/>
<path d="M104.653 49.444C103.502 50.0194 103.41 53.4481 104.653 56.6244C106.207 60.5947 112.037 50.4798 112.037 49.444C112.037 48.4082 108.451 43.4021 102.754 44.4378C98.1968 45.2665 97.5178 55.0257 97.748 59.8018C99.3017 65.3258 108.486 65.6021 114.148 59.8018C121.226 52.5514 118.636 36.326 121.916 30.1114C125.196 23.8967 126.193 21.4087 133.616 21.4082C140.908 21.4077 138.392 26.1409 137.931 30.1114C138.564 32.931 140.591 24.3705 147.944 27.6228C156.92 31.5935 151.051 39.5342 144.836 39.5342" stroke="#34352D" stroke-width="6.441" stroke-linecap="round" stroke-linejoin="round"/>
<circle cx="89.9408" cy="82.3411" r="20.888" fill="#DEDCCA"/>
<circle cx="85.6253" cy="77.3362" r="10.3577" fill="#FDFBEB"/>
<path d="M81.4805 55.2402C89.4214 61.2822 91.3203 59.3833 98.0528 55.2402V66.2884C91.9188 70.3252 88.3352 70.6958 81.4805 66.2884V55.2402Z" fill="url(#paint7_linear)"/>
<ellipse cx="89.9379" cy="56.9662" rx="9.49455" ry="3.45256" fill="#6F6F6F"/>
<circle cx="41.6009" cy="56.1068" r="20.888" fill="#DEDCCA"/>
<circle cx="37.2854" cy="51.0999" r="10.3577" fill="#FDFBEB"/>
<path d="M32.7988 30.7305C40.7397 36.7725 42.6386 34.8735 49.3711 30.7305V41.7787C43.2372 45.8154 39.6536 46.1861 32.7988 41.7787V30.7305Z" fill="url(#paint8_linear)"/>
<ellipse cx="41.2563" cy="32.4565" rx="9.49455" ry="3.45256" fill="#6F6F6F"/>
<path d="M77.2865 49.5564C78.4386 50.1342 78.5307 53.5765 77.2865 56.7656C75.7312 60.7519 69.8946 50.5963 69.8946 49.5564C69.8946 48.5165 73.4846 43.4903 79.1876 44.5302C83.7499 45.3621 84.4296 55.1605 84.1992 59.9557C82.6438 65.5019 73.45 65.7793 67.7816 59.9557C60.6962 52.6762 63.2884 36.3858 60.0049 30.1463C56.7214 23.9067 55.7237 21.4087 48.2926 21.4082C40.9927 21.4077 43.5114 26.1599 43.9722 30.1463C43.3386 32.9772 41.3094 24.3824 33.9489 27.6477C24.9625 31.6344 30.8382 39.6068 37.0596 39.6068" stroke="#34352D" stroke-width="6.441" stroke-linecap="round" stroke-linejoin="round"/>
<circle cx="89.9388" cy="20.888" r="20.888" fill="#DEDCCA"/>
<circle cx="85.6233" cy="15.8831" r="10.3577" fill="#FDFBEB"/>
<defs>
<linearGradient id="paint0_linear" x1="76.3007" y1="339.389" x2="111.265" y2="358.862" gradientUnits="userSpaceOnUse">
<stop offset="0.0586993" stop-color="#6F6F6F"/>
<stop offset="1" stop-color="#34352D"/>
</linearGradient>
<linearGradient id="paint1_linear" x1="102.71" y1="310.921" x2="101.671" y2="351.181" gradientUnits="userSpaceOnUse">
<stop stop-color="#95AC9E"/>
<stop offset="1" stop-color="#34352D"/>
</linearGradient>
<linearGradient id="paint2_linear" x1="71.8051" y1="329.189" x2="92.1575" y2="364.597" gradientUnits="userSpaceOnUse">
<stop stop-color="#95AC9E"/>
<stop offset="1" stop-color="#34352D"/>
</linearGradient>
<linearGradient id="paint3_linear" x1="154.672" y1="109.273" x2="160.196" y2="130.852" gradientUnits="userSpaceOnUse">
<stop stop-color="#352D2D"/>
<stop offset="1" stop-color="#6F6F6F"/>
</linearGradient>
<linearGradient id="paint4_linear" x1="85.6235" y1="142.074" x2="91.1477" y2="163.653" gradientUnits="userSpaceOnUse">
<stop stop-color="#352D2D"/>
<stop offset="1" stop-color="#6F6F6F"/>
</linearGradient>
<linearGradient id="paint5_linear" x1="16.2271" y1="110.654" x2="21.7512" y2="132.233" gradientUnits="userSpaceOnUse">
<stop stop-color="#352D2D"/>
<stop offset="1" stop-color="#6F6F6F"/>
</linearGradient>
<linearGradient id="paint6_linear" x1="133.965" y1="31.5957" x2="139.489" y2="53.1743" gradientUnits="userSpaceOnUse">
<stop stop-color="#352D2D"/>
<stop offset="1" stop-color="#6F6F6F"/>
</linearGradient>
<linearGradient id="paint7_linear" x1="85.6235" y1="57.4844" x2="91.1477" y2="79.0629" gradientUnits="userSpaceOnUse">
<stop stop-color="#352D2D"/>
<stop offset="1" stop-color="#6F6F6F"/>
</linearGradient>
<linearGradient id="paint8_linear" x1="36.9419" y1="32.9746" x2="42.466" y2="54.5532" gradientUnits="userSpaceOnUse">
<stop stop-color="#352D2D"/>
<stop offset="1" stop-color="#6F6F6F"/>
</linearGradient>
</defs>
</svg>
