<svg width="1903" height="2285" viewBox="0 0 1903 2285" fill="none" xmlns="http://www.w3.org/2000/svg">
<path fill-rule="evenodd" clip-rule="evenodd" d="M1120.72 892.273L15.9712 1495.41L15.9711 1524.08L728.54 1941.44C757.613 1958.23 793.433 1958.23 822.505 1941.45C1004.8 1836.21 1664.87 1455.15 1860.07 1342.46C1871.08 1336.11 1877.76 1324.28 1877.51 1311.58C1877.26 1298.87 1870.13 1287.31 1858.9 1281.38C1678.06 1186.06 1120.72 892.273 1120.72 892.273Z" fill="#8A8A8A"/>
<path d="M740.663 1915.85L27.2946 1501.31L1132.85 866.68C1132.85 866.68 1690.19 1160.47 1871.02 1255.79C1882.26 1261.72 1889.39 1273.28 1889.63 1285.98C1889.88 1298.68 1883.2 1310.51 1872.2 1316.87C1676.99 1429.56 1016.92 1810.61 834.628 1915.85C805.556 1932.64 769.736 1932.63 740.663 1915.85Z" fill="#A3BFBB"/>
<path d="M16.4648 1495.61L1118.45 872.681C1118.45 872.681 1131.73 237.621 1139.5 35.8471C1139.98 23.3055 1133.61 11.4948 1122.86 5.01139C1112.12 -1.47205 1098.7 -1.60121 1087.83 4.6743C894.994 116.006 242.953 492.462 62.8743 596.431C34.1557 613.012 16.4648 643.655 16.4648 676.816V1495.61Z" fill="#B1B1B1"/>
<path d="M29.3613 1500.43L1132 867.199C1132 867.199 1144.62 242.557 1152.39 40.7834C1152.88 28.2434 1146.5 16.4311 1135.76 9.9477C1125.01 3.46584 1111.59 3.33668 1100.72 9.61062C907.891 120.943 255.852 497.399 75.7708 601.367C47.0522 617.949 29.3613 648.591 29.3613 681.754V1500.43Z" fill="#3E454A"/>
<path fill-rule="evenodd" clip-rule="evenodd" d="M1086.36 96.3516L97.5859 667.218V1376.05L1052.49 824.736L1086.36 96.3516Z" fill="url(#paint0_linear)"/>
<path d="M539.208 1724.28L173.912 1513.12C163.43 1507.06 163.435 1491.92 173.921 1485.87L1131.09 933.429C1136.03 930.579 1142.12 930.624 1147.02 933.546L1500.44 1144.53C1510.72 1150.67 1510.65 1165.58 1500.31 1171.62L555.021 1724.24C550.14 1727.09 544.103 1727.1 539.208 1724.28Z" fill="#404950"/>
<path d="M1178.1 1675.25L955.798 1553.84C944.914 1547.9 944.867 1532.28 955.715 1526.27L1302.17 1334.32C1306.89 1331.71 1312.62 1331.69 1317.35 1334.29L1531.42 1451.56C1542.16 1457.45 1542.35 1472.82 1531.75 1478.97L1193.53 1675.05C1188.78 1677.81 1182.93 1677.89 1178.1 1675.25Z" fill="#768A87"/>
<path d="M1183.27 1683.96L960.962 1562.55C950.078 1556.61 950.031 1540.99 960.879 1534.98L1307.33 1343.03C1312.05 1340.42 1317.78 1340.41 1322.52 1343L1536.58 1460.27C1547.33 1466.16 1547.51 1481.53 1536.91 1487.68L1198.7 1683.77C1193.94 1686.52 1188.09 1686.6 1183.27 1683.96Z" fill="url(#paint1_linear)"/>
<defs>
<linearGradient id="paint0_linear" x1="574.55" y1="236.843" x2="1086.36" y2="736.2" gradientUnits="userSpaceOnUse">
<stop stop-color="#185163"/>
<stop offset="0.46558" stop-color="#45BF95"/>
<stop offset="0.836624" stop-color="#E6E4B7"/>
</linearGradient>
<linearGradient id="paint1_linear" x1="1248.46" y1="1338.83" x2="1730.1" y2="1613.69" gradientUnits="userSpaceOnUse">
<stop stop-color="#8BA29F"/>
<stop offset="1" stop-color="#768A87"/>
</linearGradient>
</defs>
</svg>
