<svg width="1186" height="1030" viewBox="0 0 1186 1030" fill="none" xmlns="http://www.w3.org/2000/svg">
<path fill-rule="evenodd" clip-rule="evenodd" d="M216.143 900.236C220.844 893.768 219.583 749.899 255.327 662.962C293.281 570.644 326.322 595.831 344.874 529.788C360.246 475.068 396.973 280.699 429.105 261.439C461.239 242.18 503.745 306.679 543.914 301.268C577.685 296.719 592.974 224.104 637.634 212.346C730.857 187.801 793.542 284.869 875.522 249.449C909.439 234.795 994.448 246.913 1058.99 269.055C1105.55 285.031 1177.37 345.3 1161.06 354.336" fill="url(#paint0_linear)"/>
<path fill-rule="evenodd" clip-rule="evenodd" d="M214.898 603.264C214.898 603.264 227.889 548.468 235.543 542.49C255.61 526.82 264.424 546.838 264.424 546.838L273.21 481.317C273.21 481.317 289.995 458.013 302.652 457.221C318.641 456.221 350.463 487.146 369.145 475.31C416.387 445.382 356.56 578.839 347.817 583.21C339.991 587.123 214.271 732.225 214.271 733.062" fill="url(#paint1_linear)"/>
<path fill-rule="evenodd" clip-rule="evenodd" d="M1063.36 117.461C1033.89 50.6526 1111.53 51.3803 1113.38 48.6096C1139.14 9.97205 1103.86 21.8773 1144.21 1.04395C1154.45 -4.2392 1185.3 24.448 1185.3 24.448L1180.65 107.194C1180.65 107.194 1088.41 109.983 1068.73 109.983C1067.04 109.983 1062.28 109.145 1062.28 111.059" fill="url(#paint2_linear)"/>
<path fill-rule="evenodd" clip-rule="evenodd" d="M403.765 771.109C384.609 790.509 432.436 684.218 436.025 675.847C464.455 609.509 529.949 487.459 569.707 427.914C580.319 412.021 613.45 413.511 662.54 408.982C686.539 406.769 763.451 461.196 763.451 461.196L748.455 397.707L783.542 368.988C783.542 368.988 928.008 422.214 1004.78 422.214" fill="url(#paint3_linear)"/>
<path fill-rule="evenodd" clip-rule="evenodd" d="M384.064 342.31C376.029 363.537 358.116 420.887 354.958 442.99C352.854 457.723 336.314 533.791 347.244 544.722C348.536 546.013 379.966 496.225 373.446 475.855C365.843 452.103 410.995 443.152 424.798 422.45C434.153 408.417 428.733 399.21 446.638 403.801C460.289 407.303 472.301 478.72 477.915 473.108C484.17 466.853 477.953 384.699 484.367 378.287C493.56 369.092 514.32 383.576 522.366 376.233C539.065 360.994 541.155 331.538 554.105 322.906C574.322 309.428 598.556 332.387 618.799 318.891C653.771 295.577 634.396 241.164 722.641 238.608C724.574 238.552 726.043 234.115 724.695 231.419C703.942 189.913 602.332 213.028 571.665 233.473C553.538 245.557 547.604 274.623 526.979 281.497C514.646 285.608 480.432 278.127 471.606 271.742C425.674 238.516 408.015 279.033 384.064 342.31Z" fill="url(#paint4_linear)"/>
<path fill-rule="evenodd" clip-rule="evenodd" d="M490.879 289.688C490.879 289.688 523.909 306.363 541.14 313.013C573.416 325.468 684.534 364.421 684.534 364.421C684.534 364.421 586.019 291.895 566.23 291.895C553.156 291.895 546.957 304.161 513.891 285.003C512.47 284.18 454.843 263.116 456.082 261.875" fill="url(#paint5_linear)"/>
<path fill-rule="evenodd" clip-rule="evenodd" d="M702.871 211.465C772.455 220.366 816.705 268.746 856.772 255.389C861.133 253.936 864.237 345.453 864.237 345.453C844.757 318.084 795.745 260.91 761.743 255.244" fill="url(#paint6_linear)"/>
<path fill-rule="evenodd" clip-rule="evenodd" d="M168.548 667.717C221.522 617.887 219.622 532.85 244.756 604.405C261.339 651.617 317.696 737.346 350.817 753.906C361.098 759.047 429.518 745.209 429.518 745.209C429.518 745.209 35.5671 1008.29 0.835938 1029.29C3.73427 990.65 36.1609 884.214 36.1609 884.214C36.1609 884.214 68.9341 827.366 80.6345 807.583C115.975 747.827 136.355 791.965 165.705 732.143" fill="url(#paint7_linear)"/>
<path fill-rule="evenodd" clip-rule="evenodd" d="M121.952 960.027C106.881 931.546 196.164 763.115 212.585 730.275C217.742 719.96 222.129 707.935 226.141 694.976C242.546 641.994 252.711 573.396 283.807 542.301C297.26 528.847 327.979 493.853 357.895 484.723C397.349 472.682 516.42 468.685 520.529 470.053C569.081 486.237 611.467 503.548 661.949 516.168C703.023 526.437 827.831 526.93 877.153 526.93" fill="#546B4C"/>
<path fill-rule="evenodd" clip-rule="evenodd" d="M831.766 410.359C845.24 302.974 878.558 137.905 935.182 81.4974C935.783 80.8973 940.412 81.4974 941.353 81.4974C955.198 81.4974 975.666 84.9387 983.011 92.256C987.541 96.7683 1002.83 80.1933 1004.61 78.423C1009.45 73.6052 1026.88 82.3699 1032.38 76.8858C1038.5 70.7954 1050.62 69.4756 1057.07 63.0528C1072.48 47.6953 1180.59 66.6469 1180.59 66.6469L1180.89 343.488L989.182 464.202L720.223 614.496" fill="#546B4C"/>
<path fill-rule="evenodd" clip-rule="evenodd" d="M443.705 496.764C464.16 500.855 488.083 521.589 502.362 535.868C522.62 556.126 576.655 606.291 576.655 606.291C576.655 606.291 583.567 576.061 579.668 563.777C571.999 539.61 552.415 525.095 565.6 528.083C599.5 535.765 692.65 518.274 692.65 518.274C692.65 518.274 592.33 496.783 591.011 495.466C564.383 468.837 472.455 460.872 429.351 470.699C404.94 476.266 377.233 476.557 353.773 485.03" fill="#3A654D"/>
<path fill-rule="evenodd" clip-rule="evenodd" d="M986.998 93.6793C1048.44 89.0845 1073.58 146.13 1127.4 156.415C1181.08 166.675 1179.14 240.065 1179.14 240.065L1181.9 66.5547C1181.9 66.5547 1062.01 77.4533 1046.66 92.8035" fill="#3A654D"/>
<path fill-rule="evenodd" clip-rule="evenodd" d="M899.285 202.211C891.972 254.837 906.017 305.084 936.436 335.502C950.806 349.871 930.57 400.311 930.57 417.62C930.57 434.682 961.079 480.294 961.079 480.294L844.543 543.697C844.543 543.697 869.626 414.042 873.87 409.799C881.297 402.373 870.819 367.02 875.824 357.008C892.362 323.933 859.17 233.355 868.772 214.152C890.389 170.918 892.455 150.022 915.286 104.357" fill="#3A654D"/>
<path fill-rule="evenodd" clip-rule="evenodd" d="M991.169 140.72C999.582 165.504 1038.75 223.525 1059.62 244.397C1071.41 256.19 1179.33 255.746 1179.33 255.746L1181.21 346.58C1181.21 346.58 1028.87 296.541 1013.81 253.906C1004.4 227.263 914.85 95.821 940.365 85.4531" fill="#3A654D"/>
<path fill-rule="evenodd" clip-rule="evenodd" d="M222.852 712.373C239.775 712.373 280.776 731.422 296.757 727.427C345.302 715.29 347.392 757.347 380.514 773.909C390.795 779.049 459.214 765.212 459.214 765.212C459.214 765.212 47.9713 1000.1 13.2402 1021.1C16.1401 982.458 77.884 946.556 77.884 946.556C77.884 946.556 92.9143 874.274 104.615 854.49C139.955 794.734 166.051 811.967 195.402 752.145" fill="#3A654D"/>
<defs>
<linearGradient id="paint0_linear" x1="524.863" y1="262.896" x2="814.844" y2="667.486" gradientUnits="userSpaceOnUse">
<stop stop-color="#A2D6E0"/>
<stop offset="1" stop-color="#418187"/>
</linearGradient>
<linearGradient id="paint1_linear" x1="214.271" y1="595.129" x2="387.119" y2="595.129" gradientUnits="userSpaceOnUse">
<stop stop-color="#40718D"/>
<stop offset="1" stop-color="#7BA9C3"/>
</linearGradient>
<linearGradient id="paint2_linear" x1="1056.7" y1="58.927" x2="1185.3" y2="58.927" gradientUnits="userSpaceOnUse">
<stop stop-color="#40718D"/>
<stop offset="1" stop-color="#7BA9C3"/>
</linearGradient>
<linearGradient id="paint3_linear" x1="399.255" y1="571.229" x2="1004.78" y2="571.229" gradientUnits="userSpaceOnUse">
<stop stop-color="#40718D"/>
<stop offset="1" stop-color="#7BA9C3"/>
</linearGradient>
<linearGradient id="paint4_linear" x1="450.981" y1="199.275" x2="668.656" y2="416.037" gradientUnits="userSpaceOnUse">
<stop stop-color="#DFE8E0"/>
<stop offset="1" stop-color="#AFD4B4"/>
</linearGradient>
<linearGradient id="paint5_linear" x1="456.063" y1="313.149" x2="684.534" y2="313.149" gradientUnits="userSpaceOnUse">
<stop stop-color="#40718D"/>
<stop offset="1" stop-color="#7BA9C3"/>
</linearGradient>
<linearGradient id="paint6_linear" x1="702.871" y1="278.459" x2="864.237" y2="278.459" gradientUnits="userSpaceOnUse">
<stop stop-color="#40718D"/>
<stop offset="1" stop-color="#7BA9C3"/>
</linearGradient>
<linearGradient id="paint7_linear" x1="0.835465" y1="803.102" x2="429.519" y2="803.102" gradientUnits="userSpaceOnUse">
<stop stop-color="#40718D"/>
<stop offset="1" stop-color="#7BA9C3"/>
</linearGradient>
</defs>
</svg>
