<svg width="728" height="813" viewBox="0 0 728 813" fill="none" xmlns="http://www.w3.org/2000/svg">
<path fill-rule="evenodd" clip-rule="evenodd" d="M290.458 401.872C497.669 336.108 691.244 362.573 722.466 460.954C753.689 559.316 647.926 678.309 440.717 744.091C350.101 772.85 187.731 777.24 187.731 777.24C187.731 777.24 161.379 817.961 116.353 811.669C81.6813 806.816 13.8281 707.281 5.26624 680.299C-25.956 581.937 83.248 467.637 290.458 401.872Z" fill="black" fill-opacity="0.15"/>
<path fill-rule="evenodd" clip-rule="evenodd" d="M236.562 441.701L242.477 248.371L118.003 338.682L65.6113 307.453L67.6109 506.08L120.041 541.237L236.562 441.701Z" fill="#576B70"/>
<path fill-rule="evenodd" clip-rule="evenodd" d="M194.876 216.379L242.477 248.284L118.003 338.595L65.6113 307.365L85.1808 293.59L194.876 216.379Z" fill="url(#paint0_linear)"/>
<path fill-rule="evenodd" clip-rule="evenodd" d="M454.851 354.365L445.418 159.506L595.859 249.07L658.344 216.934V417.232L595.859 453.314L454.851 354.365Z" fill="#576B70"/>
<path fill-rule="evenodd" clip-rule="evenodd" d="M502.145 127.514L445.418 160.254L595.859 249.818L658.344 217.682L634.696 204.032L502.145 127.514Z" fill="url(#paint1_linear)"/>
<path fill-rule="evenodd" clip-rule="evenodd" d="M389.859 468.593C431.851 447.051 509.485 394.919 545.651 335.908C575.407 287.367 590.172 266.145 590.172 266.145L577.888 474.227C577.888 474.227 581.251 523.427 436.209 604.282C331.204 662.812 225.176 654.956 163.053 645.589C139.365 642.016 101.08 608.387 101.08 608.387L97.834 475.72C97.834 475.72 155.211 505.528 212.835 511.713C275.038 518.396 350.127 488.98 389.859 468.593Z" fill="#703E41"/>
<path fill-rule="evenodd" clip-rule="evenodd" d="M286.693 275.509C413.713 199.702 462.407 192.947 571.306 253.629C628.911 285.729 549.524 389.015 412.268 481.175C293.483 560.945 174.687 540.505 118.436 506.112C49.428 463.898 163.828 348.828 286.693 275.509Z" fill="#B24B53"/>
<path fill-rule="evenodd" clip-rule="evenodd" d="M626.65 301.695C617.537 347.553 614.82 361.079 572.395 379.102L573.552 492.768C573.552 492.768 600.026 488.201 608.999 482.655C617.785 477.216 627.384 459.424 627.384 459.424L626.65 301.695Z" fill="#808080"/>
<path fill-rule="evenodd" clip-rule="evenodd" d="M396.8 536.316C371.038 574.051 327.603 583.934 288.006 574.815L289.163 688.499C289.163 688.499 336.435 701.137 354.281 698.275C371.349 695.538 396.235 671.33 396.235 671.33L396.8 536.316Z" fill="#808080"/>
<path d="M302.831 554.088H291.338V677.549H302.831V554.088Z" fill="#333333"/>
<path d="M331.049 561.201H319.557V684.663H331.049V561.201Z" fill="#333333"/>
<path d="M359.042 557.641H347.549V681.102H359.042V557.641Z" fill="#333333"/>
<path d="M380.034 543.426H368.541V666.888H380.034V543.426Z" fill="#333333"/>
<path d="M397.923 532.762H386.43V656.223H397.923V532.762Z" fill="#333333"/>
<path d="M592.667 362.129H581.174V485.59H592.667V362.129Z" fill="#333333"/>
<path d="M612.44 351.465H600.947V474.927H612.44V351.465Z" fill="#333333"/>
<path d="M629.538 319.471H618.045V442.933H629.538V319.471Z" fill="#333333"/>
<path fill-rule="evenodd" clip-rule="evenodd" d="M49.1641 609.315L50.2554 415.451L200.697 504.998L263.182 472.88V673.178L200.697 709.241L49.1641 609.315Z" fill="#576B70"/>
<path fill-rule="evenodd" clip-rule="evenodd" d="M107.006 383.457L50.2793 416.215L200.721 505.762L263.206 473.644L239.557 459.993L107.006 383.457Z" fill="url(#paint2_linear)"/>
<path fill-rule="evenodd" clip-rule="evenodd" d="M170.025 728.247L200.318 710.366V610.973L171.422 628.676L170.025 728.247Z" fill="#703E41"/>
<path fill-rule="evenodd" clip-rule="evenodd" d="M28.9473 543.069L53.1291 525.65L200.371 610.025L171.475 627.728L170.078 727.299L30.3497 646.622L28.9473 543.069Z" fill="#B24B53"/>
<path fill-rule="evenodd" clip-rule="evenodd" d="M51.6152 593.195L139.719 646.18L138.51 707.928L52.1289 657.414L51.6152 593.195Z" fill="#738694"/>
<path fill-rule="evenodd" clip-rule="evenodd" d="M584.162 594.563L590.077 401.232L465.602 491.543L413.211 460.314L415.212 658.941L467.643 694.099L584.162 594.563Z" fill="#576B70"/>
<path fill-rule="evenodd" clip-rule="evenodd" d="M542.478 369.238L590.077 401.143L465.602 491.454L413.211 460.225L432.782 446.45L542.478 369.238Z" fill="url(#paint3_linear)"/>
<path fill-rule="evenodd" clip-rule="evenodd" d="M476.273 696.413L449.533 678.514V578.979L475.039 596.699L476.273 696.413Z" fill="#703E41"/>
<path fill-rule="evenodd" clip-rule="evenodd" d="M600.858 511.095L579.511 493.658L449.533 578.139L475.039 595.86L476.273 695.574L599.619 614.79L600.858 511.095Z" fill="#B24B53"/>
<path fill-rule="evenodd" clip-rule="evenodd" d="M580.855 561.205L503.082 614.261L504.15 676.098L580.402 625.53L580.855 561.205Z" fill="#576B70"/>
<mask id="mask0" mask-type="alpha" maskUnits="userSpaceOnUse" x="130" y="70" width="368" height="373">
<path fill-rule="evenodd" clip-rule="evenodd" d="M316.693 70.648C418.024 71.9455 499.227 156.284 497.917 258.877C496.605 361.47 413.274 443.712 311.943 442.414C210.614 441.117 129.411 356.778 130.721 254.185C132.031 151.592 215.363 69.3504 316.693 70.648Z" fill="#6C7686"/>
</mask>
<g mask="url(#mask0)">
<path fill-rule="evenodd" clip-rule="evenodd" d="M318.427 69.1753C419.758 70.4728 500.961 154.812 499.651 257.405C498.34 359.998 415.009 442.239 313.678 440.941C212.349 439.644 131.145 355.305 132.455 252.712C133.765 150.119 217.098 67.8778 318.427 69.1753Z" fill="#6C7686"/>
<path fill-rule="evenodd" clip-rule="evenodd" d="M322.385 276.478L258.791 238.033L323.354 202.164L322.385 276.478Z" fill="#889FB0"/>
<path fill-rule="evenodd" clip-rule="evenodd" d="M391.374 315.58L327.781 277.116L392.344 241.266L391.374 315.58Z" fill="url(#paint4_linear)"/>
<path fill-rule="evenodd" clip-rule="evenodd" d="M392.932 319.475L454.753 356.836L391.988 391.709L392.932 319.475Z" fill="url(#paint5_linear)"/>
<path fill-rule="evenodd" clip-rule="evenodd" d="M326.391 280.363L388.212 317.725L325.449 352.598L326.391 280.363Z" fill="url(#paint6_linear)"/>
<path fill-rule="evenodd" clip-rule="evenodd" d="M327.057 202.164L388.878 239.543L326.115 274.399L327.057 202.164Z" fill="url(#paint7_linear)"/>
<path fill-rule="evenodd" clip-rule="evenodd" d="M329.499 120.398L391.319 157.76L328.555 192.633L329.499 120.398Z" fill="#9EC7C1"/>
<path fill-rule="evenodd" clip-rule="evenodd" d="M329.499 42.1934L391.319 79.5724L328.555 114.428L329.499 42.1934Z" fill="#9EC7C1"/>
<path fill-rule="evenodd" clip-rule="evenodd" d="M256.177 155.611L192.584 117.165L257.147 81.2969L256.177 155.611Z" fill="#9EC7C1"/>
<path fill-rule="evenodd" clip-rule="evenodd" d="M325.054 194.713L261.461 156.249L326.024 120.398L325.054 194.713Z" fill="url(#paint8_linear)"/>
<path fill-rule="evenodd" clip-rule="evenodd" d="M389.261 393.771L325.668 355.325L390.229 319.475L389.261 393.771Z" fill="url(#paint9_linear)"/>
<path fill-rule="evenodd" clip-rule="evenodd" d="M393.153 233.8L329.561 195.355L394.124 159.504L393.153 233.8Z" fill="url(#paint10_linear)"/>
<path fill-rule="evenodd" clip-rule="evenodd" d="M460.032 276.478L396.438 238.033L461.001 202.164L460.032 276.478Z" fill="url(#paint11_linear)"/>
<path fill-rule="evenodd" clip-rule="evenodd" d="M326.174 358.576L387.995 395.955L325.232 430.828L326.174 358.576Z" fill="url(#paint12_linear)"/>
<path fill-rule="evenodd" clip-rule="evenodd" d="M396.934 401.234L458.755 438.614L395.99 473.469L396.934 401.234Z" fill="url(#paint13_linear)"/>
<path fill-rule="evenodd" clip-rule="evenodd" d="M257.403 319.475L319.224 356.854L256.461 391.709L257.403 319.475Z" fill="url(#paint14_linear)"/>
<path fill-rule="evenodd" clip-rule="evenodd" d="M126.202 155.945L188.022 193.324L125.26 228.18L126.202 155.945Z" fill="#B5E9DD"/>
<path fill-rule="evenodd" clip-rule="evenodd" d="M258.405 241.266L320.224 278.627L257.461 313.5L258.405 241.266Z" fill="url(#paint15_linear)"/>
<path fill-rule="evenodd" clip-rule="evenodd" d="M259.409 159.504L321.229 196.865L258.467 231.738L259.409 159.504Z" fill="#B5E9DD"/>
<path fill-rule="evenodd" clip-rule="evenodd" d="M260.292 81.2969L322.112 118.676L259.35 153.531L260.292 81.2969Z" fill="#9EC7C1"/>
<path fill-rule="evenodd" clip-rule="evenodd" d="M324.501 116.507L260.908 78.0616L325.471 42.1934L324.501 116.507Z" fill="#B5E9DD"/>
<path fill-rule="evenodd" clip-rule="evenodd" d="M393.37 155.593L329.777 117.148L394.34 81.2969L393.37 155.593Z" fill="#9EC7C1"/>
<path fill-rule="evenodd" clip-rule="evenodd" d="M455.915 354.66L392.322 316.214L456.885 280.363L455.915 354.66Z" fill="url(#paint16_linear)"/>
<path fill-rule="evenodd" clip-rule="evenodd" d="M458.917 198.269L395.324 159.824L459.887 123.955L458.917 198.269Z" fill="#9EC7C1"/>
<path fill-rule="evenodd" clip-rule="evenodd" d="M527.897 237.369L464.305 198.923L528.868 163.055L527.897 237.369Z" fill="url(#paint17_linear)"/>
<path fill-rule="evenodd" clip-rule="evenodd" d="M260.292 397.678L322.112 435.057L259.35 469.912L260.292 397.678Z" fill="url(#paint18_linear)"/>
<path fill-rule="evenodd" clip-rule="evenodd" d="M188.196 355.021L250.016 392.383L187.252 427.256L188.196 355.021Z" fill="url(#paint19_linear)"/>
<path fill-rule="evenodd" clip-rule="evenodd" d="M192.415 42.1934L254.235 79.5726L191.473 114.428L192.415 42.1934Z" fill="#91C7B5"/>
<path fill-rule="evenodd" clip-rule="evenodd" d="M190.309 276.811L252.13 314.19L189.367 349.045L190.309 276.811Z" fill="url(#paint20_linear)"/>
<path fill-rule="evenodd" clip-rule="evenodd" d="M190.079 198.605L251.899 235.985L189.137 270.84L190.079 198.605Z" fill="url(#paint21_linear)"/>
<path fill-rule="evenodd" clip-rule="evenodd" d="M456.921 436.425L393.328 397.979L457.891 362.129L456.921 436.425Z" fill="url(#paint22_linear)"/>
<path fill-rule="evenodd" clip-rule="evenodd" d="M393.823 471.992L330.23 433.546L394.794 397.678L393.823 471.992Z" fill="url(#paint23_linear)"/>
<path fill-rule="evenodd" clip-rule="evenodd" d="M525.02 319.117L461.428 280.671L525.991 244.82L525.02 319.117Z" fill="url(#paint24_linear)"/>
<path fill-rule="evenodd" clip-rule="evenodd" d="M194.643 433.227L256.464 470.606L193.701 505.461L194.643 433.227Z" fill="url(#paint25_linear)"/>
<path fill-rule="evenodd" clip-rule="evenodd" d="M122.546 312.359L184.366 349.721L121.604 384.594L122.546 312.359Z" fill="url(#paint26_linear)"/>
<path fill-rule="evenodd" clip-rule="evenodd" d="M124.424 234.156L186.245 271.536L123.482 306.391L124.424 234.156Z" fill="url(#paint27_linear)"/>
<path fill-rule="evenodd" clip-rule="evenodd" d="M253.739 312.023L190.146 273.577L254.71 237.709L253.739 312.023Z" fill="url(#paint28_linear)"/>
<path fill-rule="evenodd" clip-rule="evenodd" d="M186.974 269.349L123.381 230.903L187.944 195.053L186.974 269.349Z" fill="#91C7B5"/>
<path fill-rule="evenodd" clip-rule="evenodd" d="M322.726 354.659L259.133 316.214L323.696 280.363L322.726 354.659Z" fill="url(#paint29_linear)"/>
<path fill-rule="evenodd" clip-rule="evenodd" d="M460.03 283.924L521.851 321.285L459.088 356.158L460.03 283.924Z" fill="#527B76"/>
<path fill-rule="evenodd" clip-rule="evenodd" d="M394.436 241.266L454.994 279.498L394.889 312.896L394.436 241.266Z" fill="url(#paint30_linear)"/>
<path fill-rule="evenodd" clip-rule="evenodd" d="M396.155 163.055L457.976 200.434L395.213 235.289L396.155 163.055Z" fill="url(#paint31_linear)"/>
<path fill-rule="evenodd" clip-rule="evenodd" d="M397.274 81.2969L459.094 118.676L396.33 153.531L397.274 81.2969Z" fill="url(#paint32_linear)"/>
<path fill-rule="evenodd" clip-rule="evenodd" d="M322.495 429.335L258.902 390.89L323.465 355.021L322.495 429.335Z" fill="url(#paint33_linear)"/>
<path fill-rule="evenodd" clip-rule="evenodd" d="M184.86 429.318L121.268 390.872L185.831 355.021L184.86 429.318Z" fill="url(#paint34_linear)"/>
<path fill-rule="evenodd" clip-rule="evenodd" d="M256.288 468.437L192.695 429.974L257.258 394.123L256.288 468.437Z" fill="url(#paint35_linear)"/>
<path fill-rule="evenodd" clip-rule="evenodd" d="M253.292 390.226L189.699 351.78L254.262 315.912L253.292 390.226Z" fill="url(#paint36_linear)"/>
<path fill-rule="evenodd" clip-rule="evenodd" d="M465.143 205.717L526.964 243.078L464.199 277.951L465.143 205.717Z" fill="#9EC7C1"/>
<path fill-rule="evenodd" clip-rule="evenodd" d="M465.034 123.955L526.854 161.334L464.09 196.19L465.034 123.955Z" fill="url(#paint37_linear)"/>
<path fill-rule="evenodd" clip-rule="evenodd" d="M255.405 233.818L191.812 195.372L256.376 159.504L255.405 233.818Z" fill="#9EC7C1"/>
<path fill-rule="evenodd" clip-rule="evenodd" d="M187.075 351.125L123.482 312.679L188.044 276.811L187.075 351.125Z" fill="url(#paint38_linear)"/>
<path fill-rule="evenodd" clip-rule="evenodd" d="M191.864 120.398L253.684 157.778L190.92 192.633L191.864 120.398Z" fill="#91C7B5"/>
<path fill-rule="evenodd" clip-rule="evenodd" d="M188.852 191.144L125.26 152.698L189.821 116.848L188.852 191.144Z" fill="#B5E9DD"/>
<path d="M134.949 245.406L48.6035 195.549L161.054 458.821L344.111 312.113L502.176 424.855L659.367 187.64L547.493 194.696L460.459 91.9609L442.555 112.526" stroke="#C2C2C2" stroke-width="0.00156317" stroke-miterlimit="1.5" stroke-linecap="round" stroke-linejoin="bevel"/>
<path d="M346.074 719.23L344.1 312.359" stroke="#C2C2C2" stroke-width="0.00156317" stroke-miterlimit="1.5" stroke-linecap="round" stroke-linejoin="bevel"/>
</g>
<path fill-rule="evenodd" clip-rule="evenodd" d="M717.051 82.7539L641.819 126.196L641.172 202.285L717.051 158.464L717.051 82.7539Z" fill="#B24B53"/>
<path fill-rule="evenodd" clip-rule="evenodd" d="M694.343 95.7969L664.584 112.984L663.938 189.073L692.926 173.12L694.343 95.7969Z" fill="#C8C8C8"/>
<path fill-rule="evenodd" clip-rule="evenodd" d="M678.799 154.014L674.033 158.7L680.618 156.461L680.113 164.239L681.997 163.442L681.906 156.366L687.322 154.014L684.643 153.255L690.052 145.99L688.047 144.036L691.044 139.54L688.193 140.242L690.539 133.071L683.405 139.141L683.427 123.775L681.396 129.96L678.799 124.022L677.7 131.174L675.098 128.328L676.735 141.38L667.621 139.881L670.567 143.846L667.661 147.185L672.371 150.239L667.496 154.469L678.799 154.014Z" fill="#B24B53"/>
<path fill-rule="evenodd" clip-rule="evenodd" d="M421.594 215.072L346.362 258.514L345.715 334.604L421.594 290.783L421.594 215.072Z" fill="#B24B53"/>
<path fill-rule="evenodd" clip-rule="evenodd" d="M398.882 228.115L369.123 245.302L368.477 321.392L397.465 305.438L398.882 228.115Z" fill="#C8C8C8"/>
<path fill-rule="evenodd" clip-rule="evenodd" d="M383.326 286.332L378.561 291.018L385.145 288.779L384.641 296.557L386.524 295.761L386.433 288.685L391.849 286.332L389.171 285.574L394.579 278.308L392.574 276.354L395.571 271.858L392.72 272.56L395.067 265.389L387.932 271.46L387.955 256.094L385.923 262.278L383.326 256.34L382.227 263.492L379.625 260.647L381.262 273.698L372.149 272.199L375.095 276.164L372.188 279.503L376.899 282.557L372.023 286.788L383.326 286.332Z" fill="#B24B53"/>
<path fill-rule="evenodd" clip-rule="evenodd" d="M139.877 88.2109L64.6449 131.653L63.998 207.742L139.877 163.921L139.877 88.2109Z" fill="#B24B53"/>
<path fill-rule="evenodd" clip-rule="evenodd" d="M117.173 101.252L87.4145 118.439L86.7676 194.528L115.756 178.575L117.173 101.252Z" fill="#C8C8C8"/>
<path fill-rule="evenodd" clip-rule="evenodd" d="M101.621 159.471L96.8555 164.157L103.44 161.918L102.935 169.696L104.819 168.899L104.728 161.823L110.144 159.471L107.466 158.712L112.874 151.447L110.869 149.493L113.866 144.997L111.015 145.699L113.361 138.528L106.227 144.598L106.25 129.232L104.218 135.417L101.621 129.479L100.522 136.631L97.9198 133.785L99.5569 146.837L90.4435 145.338L93.3897 149.303L90.4834 152.642L95.1937 155.696L90.3184 159.926L101.621 159.471Z" fill="#B24B53"/>
<path fill-rule="evenodd" clip-rule="evenodd" d="M528.289 -1.22466e-06L453.057 43.4419L452.41 119.531L528.289 75.7102L528.289 -1.22466e-06Z" fill="#B24B53"/>
<path fill-rule="evenodd" clip-rule="evenodd" d="M505.571 13.0449L475.813 30.2318L475.166 106.321L504.154 90.3676L505.571 13.0449Z" fill="#C8C8C8"/>
<path fill-rule="evenodd" clip-rule="evenodd" d="M490.039 71.268L485.273 75.9535L491.858 73.715L491.353 81.4929L493.237 80.6961L493.146 73.6202L498.562 71.268L495.884 70.5091L501.292 63.2436L499.287 61.2896L502.284 56.7937L499.433 57.4956L501.779 50.3248L494.645 56.3951L494.668 41.0293L492.636 47.2136L490.039 41.2759L488.94 48.4277L486.338 45.5822L487.975 58.6337L478.861 57.135L481.808 61.0999L478.901 64.4387L483.612 67.4929L478.736 71.7232L490.039 71.268Z" fill="#B24B53"/>
<path d="M126.26 246.965L62.252 209.62L170.959 464.137L347.917 322.308L500.717 431.298L652.672 201.991L544.523 208.787L460.39 109.479L446.534 119.215" stroke="#C2C2C2" stroke-width="6.88995" stroke-miterlimit="1.5" stroke-linecap="round" stroke-linejoin="bevel"/>
<path d="M349.749 715.526L347.84 322.221" stroke="#C2C2C2" stroke-width="6.88995" stroke-miterlimit="1.5" stroke-linecap="round" stroke-linejoin="bevel"/>
<path d="M652.549 201.936L652.549 501.605" stroke="#C2C2C2" stroke-width="6.88995" stroke-miterlimit="1.5" stroke-linecap="round" stroke-linejoin="bevel"/>
<path d="M62.0504 209.678L59.0977 528.651" stroke="#C2C2C2" stroke-width="6.88995" stroke-miterlimit="1.5" stroke-linecap="round" stroke-linejoin="bevel"/>
<defs>
<linearGradient id="paint0_linear" x1="242.76" y1="276.456" x2="507.116" y2="588.893" gradientUnits="userSpaceOnUse">
<stop stop-color="#9EC7C1"/>
<stop offset="1" stop-color="#56958C"/>
</linearGradient>
<linearGradient id="paint1_linear" x1="242.738" y1="276.355" x2="507.094" y2="588.792" gradientUnits="userSpaceOnUse">
<stop stop-color="#9EC7C1"/>
<stop offset="1" stop-color="#56958C"/>
</linearGradient>
<linearGradient id="paint2_linear" x1="242.755" y1="274.821" x2="507.112" y2="587.258" gradientUnits="userSpaceOnUse">
<stop stop-color="#9EC7C1"/>
<stop offset="1" stop-color="#56958C"/>
</linearGradient>
<linearGradient id="paint3_linear" x1="242.694" y1="277.541" x2="507.05" y2="589.978" gradientUnits="userSpaceOnUse">
<stop stop-color="#9EC7C1"/>
<stop offset="1" stop-color="#56958C"/>
</linearGradient>
<linearGradient id="paint4_linear" x1="180.211" y1="-32.4228" x2="453.32" y2="519.601" gradientUnits="userSpaceOnUse">
<stop stop-color="#91C7B5"/>
<stop offset="0.43" stop-color="#7696AE"/>
<stop offset="1" stop-color="#23333E"/>
</linearGradient>
<linearGradient id="paint5_linear" x1="180.198" y1="-33.5929" x2="453.306" y2="518.431" gradientUnits="userSpaceOnUse">
<stop stop-color="#91C7B5"/>
<stop offset="0.43" stop-color="#7696AE"/>
<stop offset="1" stop-color="#23333E"/>
</linearGradient>
<linearGradient id="paint6_linear" x1="180.223" y1="-32.019" x2="453.331" y2="520.004" gradientUnits="userSpaceOnUse">
<stop stop-color="#91C7B5"/>
<stop offset="0.43" stop-color="#7696AE"/>
<stop offset="1" stop-color="#23333E"/>
</linearGradient>
<linearGradient id="paint7_linear" x1="186.156" y1="-39.139" x2="453.324" y2="521.235" gradientUnits="userSpaceOnUse">
<stop stop-color="#CAA9BE"/>
<stop offset="0.43" stop-color="#7696AE"/>
<stop offset="1" stop-color="#47677F"/>
</linearGradient>
<linearGradient id="paint8_linear" x1="180.183" y1="-32.4959" x2="453.292" y2="519.528" gradientUnits="userSpaceOnUse">
<stop stop-color="#91C7B5"/>
<stop offset="0.43" stop-color="#7696AE"/>
<stop offset="1" stop-color="#23333E"/>
</linearGradient>
<linearGradient id="paint9_linear" x1="180.186" y1="-31.477" x2="453.293" y2="520.546" gradientUnits="userSpaceOnUse">
<stop stop-color="#91C7B5"/>
<stop offset="0.43" stop-color="#7696AE"/>
<stop offset="1" stop-color="#23333E"/>
</linearGradient>
<linearGradient id="paint10_linear" x1="186.162" y1="-42.1449" x2="453.33" y2="518.229" gradientUnits="userSpaceOnUse">
<stop stop-color="#CAA9BE"/>
<stop offset="0.43" stop-color="#7696AE"/>
<stop offset="1" stop-color="#47677F"/>
</linearGradient>
<linearGradient id="paint11_linear" x1="180.198" y1="-33.3807" x2="453.307" y2="518.644" gradientUnits="userSpaceOnUse">
<stop stop-color="#91C7B5"/>
<stop offset="0.43" stop-color="#7696AE"/>
<stop offset="1" stop-color="#23333E"/>
</linearGradient>
<linearGradient id="paint12_linear" x1="180.196" y1="-31.5506" x2="453.305" y2="520.473" gradientUnits="userSpaceOnUse">
<stop stop-color="#91C7B5"/>
<stop offset="0.43" stop-color="#7696AE"/>
<stop offset="1" stop-color="#23333E"/>
</linearGradient>
<linearGradient id="paint13_linear" x1="180.206" y1="-33.3991" x2="453.314" y2="518.624" gradientUnits="userSpaceOnUse">
<stop stop-color="#91C7B5"/>
<stop offset="0.43" stop-color="#7696AE"/>
<stop offset="1" stop-color="#23333E"/>
</linearGradient>
<linearGradient id="paint14_linear" x1="186.155" y1="-39.5473" x2="453.323" y2="520.827" gradientUnits="userSpaceOnUse">
<stop stop-color="#CAA9BE"/>
<stop offset="0.43" stop-color="#7696AE"/>
<stop offset="1" stop-color="#47677F"/>
</linearGradient>
<linearGradient id="paint15_linear" x1="186.151" y1="-40.225" x2="453.319" y2="520.149" gradientUnits="userSpaceOnUse">
<stop stop-color="#CAA9BE"/>
<stop offset="0.43" stop-color="#7696AE"/>
<stop offset="1" stop-color="#47677F"/>
</linearGradient>
<linearGradient id="paint16_linear" x1="186.161" y1="-41.6704" x2="453.329" y2="518.703" gradientUnits="userSpaceOnUse">
<stop stop-color="#CAA9BE"/>
<stop offset="0.43" stop-color="#7696AE"/>
<stop offset="1" stop-color="#47677F"/>
</linearGradient>
<linearGradient id="paint17_linear" x1="186.177" y1="-41.1886" x2="453.344" y2="519.184" gradientUnits="userSpaceOnUse">
<stop stop-color="#CAA9BE"/>
<stop offset="0.43" stop-color="#7696AE"/>
<stop offset="1" stop-color="#47677F"/>
</linearGradient>
<linearGradient id="paint18_linear" x1="186.189" y1="-39.3553" x2="453.357" y2="521.018" gradientUnits="userSpaceOnUse">
<stop stop-color="#CAA9BE"/>
<stop offset="0.43" stop-color="#7696AE"/>
<stop offset="1" stop-color="#47677F"/>
</linearGradient>
<linearGradient id="paint19_linear" x1="186.118" y1="-41.6996" x2="453.286" y2="518.674" gradientUnits="userSpaceOnUse">
<stop stop-color="#CAA9BE"/>
<stop offset="0.43" stop-color="#7696AE"/>
<stop offset="1" stop-color="#47677F"/>
</linearGradient>
<linearGradient id="paint20_linear" x1="186.216" y1="-41.8994" x2="453.384" y2="518.474" gradientUnits="userSpaceOnUse">
<stop stop-color="#CAA9BE"/>
<stop offset="0.43" stop-color="#7696AE"/>
<stop offset="1" stop-color="#47677F"/>
</linearGradient>
<linearGradient id="paint21_linear" x1="186.202" y1="-40.1204" x2="453.37" y2="520.253" gradientUnits="userSpaceOnUse">
<stop stop-color="#CAA9BE"/>
<stop offset="0.43" stop-color="#7696AE"/>
<stop offset="1" stop-color="#47677F"/>
</linearGradient>
<linearGradient id="paint22_linear" x1="180.268" y1="-32.1029" x2="453.376" y2="519.92" gradientUnits="userSpaceOnUse">
<stop stop-color="#91C7B5"/>
<stop offset="0.43" stop-color="#7696AE"/>
<stop offset="1" stop-color="#23333E"/>
</linearGradient>
<linearGradient id="paint23_linear" x1="180.203" y1="-31.9622" x2="453.313" y2="520.062" gradientUnits="userSpaceOnUse">
<stop stop-color="#91C7B5"/>
<stop offset="0.43" stop-color="#7696AE"/>
<stop offset="1" stop-color="#23333E"/>
</linearGradient>
<linearGradient id="paint24_linear" x1="180.223" y1="-32.2979" x2="453.332" y2="519.726" gradientUnits="userSpaceOnUse">
<stop stop-color="#91C7B5"/>
<stop offset="0.43" stop-color="#7696AE"/>
<stop offset="1" stop-color="#23333E"/>
</linearGradient>
<linearGradient id="paint25_linear" x1="180.25" y1="-32.2097" x2="453.358" y2="519.814" gradientUnits="userSpaceOnUse">
<stop stop-color="#91C7B5"/>
<stop offset="0.43" stop-color="#7696AE"/>
<stop offset="1" stop-color="#23333E"/>
</linearGradient>
<linearGradient id="paint26_linear" x1="186.127" y1="-41.4005" x2="453.295" y2="518.972" gradientUnits="userSpaceOnUse">
<stop stop-color="#CAA9BE"/>
<stop offset="0.43" stop-color="#7696AE"/>
<stop offset="1" stop-color="#47677F"/>
</linearGradient>
<linearGradient id="paint27_linear" x1="180.257" y1="-32.9728" x2="453.365" y2="519.05" gradientUnits="userSpaceOnUse">
<stop stop-color="#91C7B5"/>
<stop offset="0.43" stop-color="#7696AE"/>
<stop offset="1" stop-color="#23333E"/>
</linearGradient>
<linearGradient id="paint28_linear" x1="180.209" y1="-33.6852" x2="453.316" y2="518.337" gradientUnits="userSpaceOnUse">
<stop stop-color="#91C7B5"/>
<stop offset="0.43" stop-color="#7696AE"/>
<stop offset="1" stop-color="#23333E"/>
</linearGradient>
<linearGradient id="paint29_linear" x1="186.171" y1="-39.8212" x2="453.339" y2="520.552" gradientUnits="userSpaceOnUse">
<stop stop-color="#CAA9BE"/>
<stop offset="0.43" stop-color="#7696AE"/>
<stop offset="1" stop-color="#47677F"/>
</linearGradient>
<linearGradient id="paint30_linear" x1="186.13" y1="-40.8826" x2="453.298" y2="519.491" gradientUnits="userSpaceOnUse">
<stop stop-color="#CAA9BE"/>
<stop offset="0.43" stop-color="#7696AE"/>
<stop offset="1" stop-color="#47677F"/>
</linearGradient>
<linearGradient id="paint31_linear" x1="180.171" y1="-32.693" x2="453.28" y2="519.33" gradientUnits="userSpaceOnUse">
<stop stop-color="#91C7B5"/>
<stop offset="0.43" stop-color="#7696AE"/>
<stop offset="1" stop-color="#23333E"/>
</linearGradient>
<linearGradient id="paint32_linear" x1="186.134" y1="-42.2341" x2="453.302" y2="518.14" gradientUnits="userSpaceOnUse">
<stop stop-color="#CAA9BE"/>
<stop offset="0.43" stop-color="#7696AE"/>
<stop offset="1" stop-color="#47677F"/>
</linearGradient>
<linearGradient id="paint33_linear" x1="180.173" y1="-33.2736" x2="453.28" y2="518.749" gradientUnits="userSpaceOnUse">
<stop stop-color="#91C7B5"/>
<stop offset="0.43" stop-color="#7696AE"/>
<stop offset="1" stop-color="#23333E"/>
</linearGradient>
<linearGradient id="paint34_linear" x1="180.223" y1="-30.9986" x2="453.33" y2="521.024" gradientUnits="userSpaceOnUse">
<stop stop-color="#91C7B5"/>
<stop offset="0.43" stop-color="#7696AE"/>
<stop offset="1" stop-color="#23333E"/>
</linearGradient>
<linearGradient id="paint35_linear" x1="180.166" y1="-31.0734" x2="453.276" y2="520.951" gradientUnits="userSpaceOnUse">
<stop stop-color="#91C7B5"/>
<stop offset="0.43" stop-color="#7696AE"/>
<stop offset="1" stop-color="#23333E"/>
</linearGradient>
<linearGradient id="paint36_linear" x1="186.194" y1="-41.8647" x2="453.361" y2="518.508" gradientUnits="userSpaceOnUse">
<stop stop-color="#CAA9BE"/>
<stop offset="0.43" stop-color="#7696AE"/>
<stop offset="1" stop-color="#47677F"/>
</linearGradient>
<linearGradient id="paint37_linear" x1="186.122" y1="-40.3856" x2="453.29" y2="519.988" gradientUnits="userSpaceOnUse">
<stop stop-color="#CAA9BE"/>
<stop offset="0.43" stop-color="#7696AE"/>
<stop offset="1" stop-color="#47677F"/>
</linearGradient>
<linearGradient id="paint38_linear" x1="186.17" y1="-39.234" x2="453.34" y2="521.141" gradientUnits="userSpaceOnUse">
<stop stop-color="#CAA9BE"/>
<stop offset="0.43" stop-color="#7696AE"/>
<stop offset="1" stop-color="#47677F"/>
</linearGradient>
</defs>
</svg>
