<svg width="452" height="351" viewBox="0 0 452 351" fill="none" xmlns="http://www.w3.org/2000/svg">
<path fill-rule="evenodd" clip-rule="evenodd" d="M279.783 144.725C277.788 144.725 275.828 145.247 274.097 146.239L32.1337 284.97C21.3537 291.15 24.2797 307.44 36.5369 309.483L57.4882 312.975C59.7483 313.352 62.0785 313.134 64.2244 312.331C151.015 279.852 217.768 230.102 287.606 164.174C295.059 157.138 290.032 144.725 279.783 144.725Z" fill="url(#paint0_linear)"/>
<path fill-rule="evenodd" clip-rule="evenodd" d="M373.424 182.176C371.429 182.176 369.469 182.698 367.738 183.69L125.774 322.421C114.994 328.602 117.92 344.891 130.177 346.934L151.129 350.426C153.389 350.803 155.719 350.585 157.865 349.782C244.656 317.303 311.409 267.553 381.247 201.625C388.7 194.589 383.673 182.176 373.424 182.176Z" fill="url(#paint1_linear)"/>
<path d="M223.434 271.675L215.5 246.285L254.22 224.068L271.676 246.285L223.434 271.675Z" fill="#7B8990"/>
<path d="M302.144 191.529L261.525 217.81L142.82 294.909V217.81C142.82 217.81 217.345 177.361 261.52 145.992C308.371 112.723 374.504 51.7324 374.504 51.7324L383.39 101.878C383.39 101.878 363.36 135.359 346.574 153.611C333.335 168.006 309.209 186.958 309.209 186.958L302.144 191.529Z" fill="url(#paint2_linear)"/>
<path d="M148.531 259.115V241.345C148.531 238.774 149.885 236.393 152.094 235.078C156.956 232.182 163.12 235.686 163.12 241.345V259.115C163.12 261.686 161.767 264.067 159.558 265.382C154.696 268.278 148.531 264.774 148.531 259.115Z" fill="#43525C"/>
<path d="M168.844 248.324V230.554C168.844 227.983 170.197 225.602 172.406 224.287C177.268 221.391 183.433 224.895 183.433 230.554V248.324C183.433 250.895 182.079 253.276 179.87 254.591C175.008 257.487 168.844 253.983 168.844 248.324Z" fill="#43525C"/>
<path d="M189.154 234.994V217.224C189.154 214.653 190.508 212.272 192.717 210.957C197.579 208.061 203.743 211.565 203.743 217.224V234.994C203.743 237.565 202.39 239.946 200.181 241.261C195.319 244.157 189.154 240.653 189.154 234.994Z" fill="#43525C"/>
<path d="M209.467 223.568V205.798C209.467 203.227 210.82 200.846 213.029 199.531C217.891 196.636 224.056 200.139 224.056 205.798V223.568C224.056 226.139 222.702 228.52 220.493 229.836C215.631 232.731 209.467 229.227 209.467 223.568Z" fill="#43525C"/>
<path d="M229.779 208.334V190.564C229.779 187.993 231.133 185.612 233.342 184.297C238.204 181.401 244.368 184.905 244.368 190.564V208.334C244.368 210.905 243.015 213.286 240.806 214.601C235.944 217.497 229.779 213.993 229.779 208.334Z" fill="#43525C"/>
<path d="M301.506 156.285V138.515C301.506 135.944 302.859 133.563 305.068 132.248C309.931 129.352 316.095 132.856 316.095 138.515V156.285C316.095 158.856 314.741 161.237 312.532 162.552C307.67 165.448 301.506 161.944 301.506 156.285Z" fill="#43525C"/>
<path d="M79.664 183.128L143.113 228.802V264.004C143.113 280.152 143.113 278.658 143.113 294.844C133.504 302.959 92.8003 308.492 75.5381 308.492C46.4411 308.492 13.332 294.525 13.332 276.12C13.332 261.493 25.6169 235.22 46.3393 230.735C46.3393 230.735 59.0344 201.853 61.5735 195.822C64.1125 189.791 77.9084 181.231 79.664 183.128Z" fill="url(#paint3_radial)"/>
<path d="M95.3642 218.725L70.6748 203.889C69.1837 202.992 67.2852 204.066 67.2852 205.806V222.841C67.2852 224.416 68.1126 225.874 69.4639 226.682L94.1487 241.438C95.64 242.329 97.534 241.255 97.534 239.517V222.561C97.534 220.99 96.7104 219.534 95.3642 218.725Z" fill="url(#paint4_linear)"/>
<path d="M87.1438 215.138L95.3086 237.618C96.0358 239.62 93.8185 241.409 92.0151 240.276L87.451 237.407L85.1788 235.979L78.9657 232.073C78.1148 231.538 77.4688 230.733 77.1316 229.786L69.3686 207.985C68.6654 206.011 70.8202 204.24 72.6211 205.313L76.942 207.886L85.1788 235.979L87.451 237.407L78.9302 209.07L85.2277 212.821C86.1145 213.349 86.7914 214.168 87.1438 215.138Z" fill="url(#paint5_linear)"/>
<path d="M127.102 237.768L102.413 222.932C100.922 222.035 99.0234 223.109 99.0234 224.849V241.884C99.0234 243.459 99.8508 244.917 101.202 245.725L125.887 260.481C127.378 261.372 129.272 260.298 129.272 258.56V241.604C129.272 240.033 128.449 238.577 127.102 237.768Z" fill="url(#paint6_linear)"/>
<path d="M118.882 234.181L127.047 256.661C127.774 258.663 125.557 260.452 123.753 259.319L119.189 256.45L116.917 255.021L110.704 251.116C109.853 250.581 109.207 249.776 108.87 248.829L101.107 227.028C100.404 225.054 102.558 223.283 104.359 224.356L108.68 226.929L116.917 255.021L119.189 256.45L110.669 228.113L116.966 231.864C117.853 232.392 118.53 233.211 118.882 234.181Z" fill="url(#paint7_linear)"/>
<path d="M80.558 53.9546C107.614 53.9546 192.188 104.913 210.426 116.098C212.485 117.361 213.241 119.865 212.012 121.944C207.662 129.302 195.22 145.261 168.326 147.264C168.326 147.264 51.2144 81.1371 43.3546 73.5574C35.4947 65.9776 50.1665 53.9546 80.558 53.9546Z" fill="#43525C"/>
<path d="M84.853 56.4937L214.313 121.388C216.609 122.539 217.625 125.222 216.344 127.449C211.893 135.188 199.422 151.545 172.719 153.611L47.6082 76.8966C59.6685 64.7455 67.603 58.7154 84.853 56.4937Z" fill="#38789D"/>
<path fill-rule="evenodd" clip-rule="evenodd" d="M365.302 47.9238C365.302 47.9238 271.101 85.8229 212.326 113.621C164.614 136.187 96.6667 172.708 74.0122 184.982C70.603 186.829 70.5599 191.658 73.8973 193.631L127.299 225.216C136.943 230.92 148.961 230.774 158.464 224.839L271.993 153.928L374.506 53.0019L365.302 47.9238Z" fill="url(#paint8_linear)"/>
<path d="M404.022 274.532C370.869 274.532 266.425 211.22 245.971 198.622C243.917 197.357 243.145 194.848 244.333 192.749C249.161 184.217 264.145 163.733 297.701 161.229C297.701 161.229 439.568 241.525 449.089 250.729C458.611 259.933 440.838 274.532 404.022 274.532Z" fill="#43525C"/>
<path d="M398.557 271.676L240.796 192.348C238.505 191.196 237.493 188.512 238.727 186.265C243.673 177.263 258.704 156.202 292.073 153.611L443.694 246.872C425.285 255.247 411.357 258.222 398.557 271.676Z" fill="#38789D"/>
<path d="M363.11 58.2357L327.347 84.6796C320.311 89.8821 310.459 84.1774 311.468 75.4855L319.207 8.84646C319.792 3.80377 324.064 0 329.14 0H344.888C349.285 0 353.167 2.87301 354.451 7.07888L366.728 47.2739C367.966 51.3255 366.516 55.7171 363.11 58.2357Z" fill="#38789D"/>
<path d="M329.756 64.427V30.1502V15.5508H335.151L340.547 33.9587H349.433L344.038 15.5508H349.433L358.32 44.4322L349.433 52.0492V44.4322H340.547V60.301L329.756 64.427Z" fill="#E3A66E"/>
<defs>
<linearGradient id="paint0_linear" x1="65.1214" y1="259.199" x2="95.9493" y2="317.291" gradientUnits="userSpaceOnUse">
<stop stop-color="#D8E6E8"/>
<stop offset="1" stop-color="#43525C"/>
</linearGradient>
<linearGradient id="paint1_linear" x1="158.762" y1="296.65" x2="189.59" y2="354.742" gradientUnits="userSpaceOnUse">
<stop stop-color="#DAF0E1"/>
<stop offset="1" stop-color="#43525C"/>
</linearGradient>
<linearGradient id="paint2_linear" x1="153.291" y1="188.522" x2="361.667" y2="193.99" gradientUnits="userSpaceOnUse">
<stop stop-color="#8BB8AC"/>
<stop offset="0.46875" stop-color="#7D958D"/>
<stop offset="1" stop-color="#38789D"/>
</linearGradient>
<radialGradient id="paint3_radial" cx="0" cy="0" r="1" gradientUnits="userSpaceOnUse" gradientTransform="translate(52.5 246) rotate(57.8581) scale(133.454 137.861)">
<stop stop-color="white"/>
<stop offset="0.572917" stop-color="#93BEB1"/>
<stop offset="1" stop-color="#7B8990"/>
</radialGradient>
<linearGradient id="paint4_linear" x1="77.6521" y1="201.852" x2="77.6521" y2="307.637" gradientUnits="userSpaceOnUse">
<stop stop-color="#404950"/>
<stop offset="1" stop-color="#4C6C7E"/>
</linearGradient>
<linearGradient id="paint5_linear" x1="76.942" y1="205.543" x2="85.1788" y2="235.224" gradientUnits="userSpaceOnUse">
<stop stop-color="#A3BFBB"/>
<stop offset="1" stop-color="#435059"/>
</linearGradient>
<linearGradient id="paint6_linear" x1="109.39" y1="220.895" x2="109.39" y2="326.68" gradientUnits="userSpaceOnUse">
<stop stop-color="#404950"/>
<stop offset="1" stop-color="#4C6C7E"/>
</linearGradient>
<linearGradient id="paint7_linear" x1="108.68" y1="224.586" x2="116.917" y2="254.267" gradientUnits="userSpaceOnUse">
<stop stop-color="#A3BFBB"/>
<stop offset="1" stop-color="#435059"/>
</linearGradient>
<linearGradient id="paint8_linear" x1="201.996" y1="62.5" x2="331.996" y2="205" gradientUnits="userSpaceOnUse">
<stop stop-color="#CBDADD"/>
<stop offset="0.346305" stop-color="#EAFCEC"/>
<stop offset="1" stop-color="#4380A2"/>
</linearGradient>
</defs>
</svg>
