<svg width="833" height="558" viewBox="0 0 833 558" fill="none" xmlns="http://www.w3.org/2000/svg">
<g filter="url(#filter0_d)">
<path fill-rule="evenodd" clip-rule="evenodd" d="M742.127 14.2773L822.044 114.621C822.044 114.621 825.183 84.0899 799.592 56.6023C774.758 29.6856 742.127 14.2773 742.127 14.2773Z" fill="#848484"/>
<path fill-rule="evenodd" clip-rule="evenodd" d="M779.996 45.8184C779.996 45.8184 801.115 57.1366 809.392 69.0257C817.578 80.7244 822.43 99.6523 822.05 114.68L616.922 232.619V140.075L779.996 45.8184Z" fill="#A5A5A5"/>
<path fill-rule="evenodd" clip-rule="evenodd" d="M547.793 100.066V192.611L617.34 232.749V140.204C617.34 140.204 596.697 118.518 582.617 110.243C568.437 101.873 547.793 100.066 547.793 100.066Z" fill="#4C4C4C"/>
<path fill-rule="evenodd" clip-rule="evenodd" d="M617.432 206.023L617.527 232.75L822.084 114.715C822.464 107.581 821.608 99.4965 818.944 89.7949L617.432 206.023Z" fill="#2A68B3"/>
<path fill-rule="evenodd" clip-rule="evenodd" d="M617.47 232.746L617.375 219.43L729.452 155.325C755.138 140.487 787.393 135.256 787.393 135.256L617.47 232.746Z" fill="#E5E5E5"/>
<path fill-rule="evenodd" clip-rule="evenodd" d="M617.432 206.022V203.454L818.183 87.5117L818.944 89.7944L617.432 206.022Z" fill="#FFE04C"/>
<path fill-rule="evenodd" clip-rule="evenodd" d="M627.439 153.156C627.439 151.919 628.105 150.873 629.152 150.302C634.865 146.973 653.892 136.035 663.024 130.709C664.071 130.139 665.308 130.139 666.354 130.709C667.4 131.28 668.066 132.421 668.066 133.563C668.066 142.694 668.066 160.194 668.066 165.996C668.066 167.232 667.4 168.279 666.354 168.85C660.646 172.178 641.619 183.116 632.487 188.443C631.44 189.013 630.203 189.013 629.152 188.443C628.105 187.872 627.439 186.731 627.439 185.589C627.439 176.364 627.439 158.958 627.439 153.156Z" fill="#4C4C4C" stroke="black" stroke-width="0.7031" stroke-miterlimit="1.0547" stroke-linejoin="round"/>
<path fill-rule="evenodd" clip-rule="evenodd" d="M679.484 123.14C679.484 121.903 680.15 120.857 681.197 120.286C682.719 119.335 685.192 118.004 687.38 116.672C688.427 116.102 689.664 116.102 690.71 116.672C691.757 117.243 692.423 118.384 692.423 119.526C692.423 128.656 692.423 146.157 692.423 151.959C692.423 153.195 691.757 154.242 690.71 154.813C689.188 155.764 686.715 157.095 684.526 158.427C683.48 158.997 682.243 158.997 681.197 158.427C680.15 157.856 679.484 156.715 679.484 155.573C679.484 146.347 679.484 128.942 679.484 123.14Z" fill="#4C4C4C" stroke="black" stroke-width="0.7031" stroke-miterlimit="1.0547" stroke-linejoin="round"/>
<path fill-rule="evenodd" clip-rule="evenodd" d="M704.43 108.734C704.43 107.497 705.096 106.451 706.142 105.88C707.664 104.929 710.138 103.597 712.326 102.266C713.372 101.695 714.609 101.695 715.655 102.266C716.702 102.837 717.368 103.978 717.368 105.119C717.368 114.25 717.368 131.751 717.368 137.553C717.368 138.789 716.702 139.835 715.655 140.406C714.133 141.357 711.66 142.688 709.472 144.02C708.425 144.591 707.189 144.591 706.142 144.02C705.096 143.45 704.43 142.308 704.43 141.167C704.43 131.941 704.43 114.535 704.43 108.734Z" fill="#4C4C4C" stroke="black" stroke-width="0.7031" stroke-miterlimit="1.0547" stroke-linejoin="round"/>
<path fill-rule="evenodd" clip-rule="evenodd" d="M728.893 94.6775C728.893 93.441 729.559 92.3949 730.605 91.824C736.313 88.4951 755.345 77.5571 764.478 72.2305C765.524 71.6601 766.761 71.6601 767.807 72.2305C768.854 72.8015 769.52 73.9428 769.52 75.0841C769.52 84.2148 769.52 101.716 769.52 107.518C769.52 108.754 768.854 109.8 767.807 110.371C762.099 113.7 743.068 124.638 733.935 129.964C732.888 130.535 731.651 130.535 730.605 129.964C729.559 129.394 728.893 128.252 728.893 127.111C728.893 117.885 728.893 100.479 728.893 94.6775Z" fill="#4C4C4C" stroke="black" stroke-width="0.7031" stroke-miterlimit="1.0547" stroke-linejoin="round"/>
<path fill-rule="evenodd" clip-rule="evenodd" d="M617.343 140.204C617.343 140.204 596.699 118.518 582.619 110.243C568.439 101.873 547.891 100.162 547.891 100.162L711.059 6C711.059 6 731.708 7.80715 745.788 16.0819C759.963 24.4519 780.517 46.0424 780.517 46.0424L617.343 140.204Z" fill="#E5E5E5"/>
<path fill-rule="evenodd" clip-rule="evenodd" d="M617.343 140.204C617.343 140.204 596.699 118.518 582.619 110.243C568.439 101.873 547.891 100.162 547.891 100.162L711.059 6C711.059 6 731.708 7.80715 745.788 16.0819C759.963 24.4519 780.517 46.0424 780.517 46.0424L617.343 140.204Z" fill="url(#paint0_linear)"/>
<path fill-rule="evenodd" clip-rule="evenodd" d="M612.902 142.742V235.287L449.734 329.448V236.904L612.902 142.742Z" fill="#A5A5A5"/>
<path fill-rule="evenodd" clip-rule="evenodd" d="M380.277 196.766V289.31L449.827 329.448V236.903C449.827 236.903 429.181 215.218 415.1 206.943C400.828 198.573 380.277 196.766 380.277 196.766Z" fill="#4C4C4C"/>
<path fill-rule="evenodd" clip-rule="evenodd" d="M449.82 302.721L449.915 329.448L612.895 235.381C612.895 235.381 613.086 208.369 612.895 208.655C612.705 208.845 449.82 302.721 449.82 302.721Z" fill="#2A68B3"/>
<path fill-rule="evenodd" clip-rule="evenodd" d="M449.955 329.447L449.859 316.131L613.031 222.064V235.475L449.955 329.447Z" fill="#E5E5E5"/>
<path fill-rule="evenodd" clip-rule="evenodd" d="M449.82 302.722V300.154L612.991 205.992V208.655L449.82 302.722Z" fill="#FFE04C"/>
<path fill-rule="evenodd" clip-rule="evenodd" d="M459.928 249.857C459.928 248.621 460.594 247.574 461.641 247.004C467.349 243.675 486.377 232.737 495.511 227.411C496.558 226.84 497.795 226.84 498.841 227.411C499.888 227.982 500.554 229.123 500.554 230.264C500.554 239.395 500.554 256.895 500.554 262.698C500.554 263.934 499.888 264.98 498.841 265.551C493.133 268.88 474.104 279.818 464.97 285.144C463.924 285.715 462.687 285.715 461.641 285.144C460.594 284.573 459.928 283.432 459.928 282.291C459.928 273.065 459.928 255.659 459.928 249.857Z" fill="#4C4C4C" stroke="black" stroke-width="0.7031" stroke-miterlimit="1.0547" stroke-linejoin="round"/>
<path fill-rule="evenodd" clip-rule="evenodd" d="M511.869 219.839C511.869 218.602 512.535 217.556 513.582 216.986C515.104 216.034 517.582 214.703 519.77 213.372C520.817 212.801 522.053 212.801 523.1 213.372C524.146 213.942 524.812 215.083 524.812 216.225C524.812 225.356 524.812 242.856 524.812 248.658C524.812 249.895 524.146 250.941 523.1 251.512C521.578 252.463 519.104 253.794 516.911 255.126C515.865 255.696 514.628 255.696 513.582 255.126C512.535 254.555 511.869 253.414 511.869 252.272C511.869 243.047 511.869 225.641 511.869 219.839Z" fill="#4C4C4C" stroke="black" stroke-width="0.7031" stroke-miterlimit="1.0547" stroke-linejoin="round"/>
<path fill-rule="evenodd" clip-rule="evenodd" d="M536.914 205.433C536.914 204.196 537.58 203.15 538.626 202.579C540.149 201.628 542.622 200.297 544.81 198.965C545.857 198.395 547.093 198.395 548.14 198.965C549.186 199.536 549.852 200.677 549.852 201.818C549.852 210.949 549.852 228.45 549.852 234.252C549.852 235.488 549.186 236.535 548.14 237.106C546.618 238.057 544.144 239.388 541.956 240.719C540.91 241.29 539.673 241.29 538.626 240.719C537.58 240.149 536.914 239.008 536.914 237.866C536.914 228.64 536.914 211.235 536.914 205.433Z" fill="#4C4C4C" stroke="black" stroke-width="0.7031" stroke-miterlimit="1.0547" stroke-linejoin="round"/>
<path fill-rule="evenodd" clip-rule="evenodd" d="M561.281 191.377C561.281 190.14 561.947 189.094 562.994 188.523C568.702 185.194 587.728 174.256 596.861 168.93C597.908 168.359 599.149 168.359 600.196 168.93C601.242 169.501 601.908 170.642 601.908 171.783C601.908 180.914 601.908 198.415 601.908 204.217C601.908 205.453 601.242 206.499 600.196 207.07C594.483 210.399 575.456 221.337 566.323 226.663C565.277 227.234 564.04 227.234 562.994 226.663C561.947 226.093 561.281 224.951 561.281 223.81C561.281 214.584 561.281 197.178 561.281 191.377Z" fill="#4C4C4C" stroke="black" stroke-width="0.7031" stroke-miterlimit="1.0547" stroke-linejoin="round"/>
<path fill-rule="evenodd" clip-rule="evenodd" d="M449.732 236.903C449.732 236.903 429.086 215.218 415.005 206.943C400.828 198.573 380.277 196.861 380.277 196.861L543.447 102.699C543.447 102.699 564.091 104.506 578.176 112.781C592.351 121.151 612.899 142.741 612.899 142.741L449.732 236.903Z" fill="#E5E5E5"/>
<path fill-rule="evenodd" clip-rule="evenodd" d="M449.732 236.903C449.732 236.903 429.086 215.218 415.005 206.943C400.828 198.573 380.277 196.861 380.277 196.861L543.447 102.699C543.447 102.699 564.091 104.506 578.176 112.781C592.351 121.151 612.899 142.741 612.899 142.741L449.732 236.903Z" fill="url(#paint1_linear)"/>
<path fill-rule="evenodd" clip-rule="evenodd" d="M446.041 239.164V331.709L282.871 425.87V333.326L446.041 239.164Z" fill="#A5A5A5"/>
<path fill-rule="evenodd" clip-rule="evenodd" d="M213.322 293.186V385.73L282.871 425.868V333.323C282.871 333.323 262.225 311.638 248.145 303.363C233.968 294.898 213.322 293.186 213.322 293.186Z" fill="#4C4C4C"/>
<path fill-rule="evenodd" clip-rule="evenodd" d="M282.959 399.046L283.054 425.772L446.034 331.706C446.034 331.706 446.224 304.694 446.034 304.979C445.843 305.169 282.959 399.046 282.959 399.046Z" fill="#2A68B3"/>
<path fill-rule="evenodd" clip-rule="evenodd" d="M282.999 425.771L282.904 412.455L446.075 318.389V331.8L282.999 425.771Z" fill="#E5E5E5"/>
<path fill-rule="evenodd" clip-rule="evenodd" d="M282.959 399.048V396.48L446.129 302.318V304.981L282.959 399.048Z" fill="#FFE04C"/>
<path fill-rule="evenodd" clip-rule="evenodd" d="M293.066 346.183C293.066 344.947 293.732 343.9 294.779 343.33C300.487 340.001 319.516 329.063 328.65 323.736C329.696 323.166 330.933 323.166 331.979 323.736C333.026 324.307 333.692 325.449 333.692 326.59C333.692 335.721 333.692 353.222 333.692 359.023C333.692 360.26 333.026 361.306 331.979 361.876C326.271 365.206 307.242 376.143 298.108 381.47C297.062 382.041 295.825 382.041 294.779 381.47C293.732 380.899 293.066 379.758 293.066 378.616C293.066 369.391 293.066 351.985 293.066 346.183Z" fill="#4C4C4C" stroke="black" stroke-width="0.7031" stroke-miterlimit="1.0547" stroke-linejoin="round"/>
<path fill-rule="evenodd" clip-rule="evenodd" d="M345.01 316.168C345.01 314.931 345.676 313.884 346.722 313.314C348.245 312.363 350.718 311.031 352.907 309.7C353.953 309.129 355.19 309.129 356.237 309.7C357.283 310.27 357.949 311.411 357.949 312.553C357.949 321.684 357.949 339.184 357.949 344.986C357.949 346.223 357.283 347.269 356.237 347.84C354.714 348.791 352.241 350.122 350.052 351.454C349.006 352.024 347.769 352.024 346.722 351.454C345.676 350.883 345.01 349.742 345.01 348.601C345.01 339.47 345.01 321.969 345.01 316.168Z" fill="#4C4C4C" stroke="black" stroke-width="0.7031" stroke-miterlimit="1.0547" stroke-linejoin="round"/>
<path fill-rule="evenodd" clip-rule="evenodd" d="M369.959 301.761C369.959 300.524 370.625 299.478 371.671 298.908C373.194 297.956 375.667 296.625 377.856 295.293C378.902 294.723 380.139 294.723 381.186 295.293C382.232 295.864 382.898 297.005 382.898 298.146C382.898 307.278 382.898 324.778 382.898 330.58C382.898 331.816 382.232 332.863 381.186 333.434C379.664 334.385 377.19 335.716 375.002 337.048C373.955 337.618 372.718 337.618 371.671 337.048C370.625 336.477 369.959 335.336 369.959 334.194C369.959 325.064 369.959 307.563 369.959 301.761Z" fill="#4C4C4C" stroke="black" stroke-width="0.7031" stroke-miterlimit="1.0547" stroke-linejoin="round"/>
<path fill-rule="evenodd" clip-rule="evenodd" d="M394.422 287.701C394.422 286.464 395.088 285.418 396.134 284.847C401.843 281.518 420.871 270.58 430.005 265.254C431.052 264.683 432.288 264.683 433.335 265.254C434.382 265.825 435.048 266.966 435.048 268.107C435.048 277.239 435.048 294.739 435.048 300.541C435.048 301.777 434.382 302.824 433.335 303.394C427.626 306.723 408.598 317.661 399.464 322.988C398.418 323.558 397.181 323.558 396.134 322.988C395.088 322.417 394.422 321.276 394.422 320.134C394.422 310.909 394.422 293.503 394.422 287.701Z" fill="#4C4C4C" stroke="black" stroke-width="0.7031" stroke-miterlimit="1.0547" stroke-linejoin="round"/>
<path fill-rule="evenodd" clip-rule="evenodd" d="M282.872 333.228C282.872 333.228 262.226 311.542 248.145 303.267C233.969 294.897 213.418 293.185 213.418 293.185L376.588 199.023C376.588 199.023 397.234 200.83 411.315 209.106C425.491 217.476 446.042 239.066 446.042 239.066L282.872 333.228Z" fill="#E5E5E5"/>
<path fill-rule="evenodd" clip-rule="evenodd" d="M282.872 333.228C282.872 333.228 262.226 311.542 248.145 303.267C233.969 294.897 213.418 293.185 213.418 293.185L376.588 199.023C376.588 199.023 397.234 200.83 411.315 209.106C425.491 217.476 446.042 239.066 446.042 239.066L282.872 333.228Z" fill="url(#paint2_linear)"/>
<path fill-rule="evenodd" clip-rule="evenodd" d="M277.446 336.994V429.538L79.5488 543.767C79.5488 543.767 79.8342 494.501 89.5388 469.296C100.29 441.237 114.371 431.156 114.371 431.156L277.446 336.994Z" fill="#A5A5A5"/>
<path fill-rule="evenodd" clip-rule="evenodd" d="M114.278 431.153C114.278 431.153 93.6322 409.468 79.5515 401.193C65.3751 392.823 44.8242 391.111 44.8242 391.111L207.994 296.949C207.994 296.949 228.64 298.757 242.721 307.031C256.803 315.306 277.448 336.992 277.448 336.992L114.278 431.153Z" fill="#E5E5E5"/>
<path fill-rule="evenodd" clip-rule="evenodd" d="M114.278 431.153C114.278 431.153 93.6322 409.468 79.5515 401.193C65.3751 392.823 44.8242 391.111 44.8242 391.111L207.994 296.949C207.994 296.949 228.64 298.757 242.721 307.031C256.803 315.306 277.448 336.992 277.448 336.992L114.278 431.153Z" fill="url(#paint3_linear)"/>
<path fill-rule="evenodd" clip-rule="evenodd" d="M79.5495 543.764C79.5495 543.764 79.8349 494.497 89.5395 469.292C100.291 441.234 114.372 431.152 114.372 431.152C114.372 431.152 93.7254 409.466 79.6447 401.192C65.4683 392.822 44.9174 391.109 44.9174 391.109C44.9174 391.109 30.7411 401.096 19.99 429.154C10.2854 454.359 10 503.628 10 503.628L79.5495 543.764Z" fill="#848484"/>
<path fill-rule="evenodd" clip-rule="evenodd" d="M81.0711 513.806L80.8809 516.28L81.0711 513.806L277.446 400.336V403.189L80.8809 516.375" fill="#FFE04C"/>
<path fill-rule="evenodd" clip-rule="evenodd" d="M80.8808 516.019L81.1662 513.64L74.8864 509.929L11.7118 472.932L11.5215 475.785L80.8808 516.019Z" fill="#FFD81E"/>
<path fill-rule="evenodd" clip-rule="evenodd" d="M79.5488 543.766C79.5488 543.766 79.644 531.592 80.8807 516.282C80.8807 515.806 277.446 403.191 277.446 403.191V429.538L79.5488 543.766Z" fill="#2867B2"/>
<path fill-rule="evenodd" clip-rule="evenodd" d="M79.5495 543.766C79.5495 543.766 79.6447 531.497 80.8814 515.997C80.8814 515.902 11.4271 475.668 11.4271 475.858C10.1903 491.361 10 503.631 10 503.631L79.5495 543.766Z" fill="#0C4F9D"/>
<path fill-rule="evenodd" clip-rule="evenodd" d="M120.08 520.368C120.08 520.368 151.192 489.267 189.629 466.916C227.972 444.469 277.446 416.221 277.446 416.221V429.632L120.08 520.368Z" fill="#E5E5E5"/>
<path fill-rule="evenodd" clip-rule="evenodd" d="M128.799 441.611C128.799 440.374 129.465 439.328 130.511 438.758C136.22 435.429 155.248 424.491 164.382 419.164C165.429 418.594 166.665 418.594 167.712 419.164C168.758 419.735 169.425 420.876 169.425 422.018C169.425 431.148 169.425 448.649 169.425 454.451C169.425 455.688 168.758 456.734 167.712 457.304C162.003 460.634 142.975 471.571 133.841 476.898C132.794 477.468 131.558 477.468 130.511 476.898C129.465 476.327 128.799 475.185 128.799 474.044C128.799 464.818 128.799 447.413 128.799 441.611Z" fill="#4B4B4B" stroke="black" stroke-width="0.7031" stroke-miterlimit="1.0547" stroke-linejoin="round"/>
<path fill-rule="evenodd" clip-rule="evenodd" d="M180.742 411.597C180.742 410.361 181.408 409.314 182.455 408.744C183.977 407.793 186.451 406.461 188.639 405.129C189.686 404.558 190.922 404.558 191.969 405.129C193.016 405.7 193.682 406.841 193.682 407.982C193.682 417.114 193.682 434.614 193.682 440.416C193.682 441.652 193.016 442.699 191.969 443.269C190.447 444.221 187.973 445.552 185.785 446.884C184.738 447.454 183.502 447.454 182.455 446.884C181.408 446.313 180.742 445.172 180.742 444.03C180.742 434.804 180.742 417.399 180.742 411.597Z" fill="#4B4B4B" stroke="black" stroke-width="0.7031" stroke-miterlimit="1.0547" stroke-linejoin="round"/>
<path fill-rule="evenodd" clip-rule="evenodd" d="M205.689 397.188C205.689 395.952 206.355 394.906 207.402 394.335C208.924 393.384 211.398 392.053 213.586 390.721C214.632 390.15 215.87 390.15 216.916 390.721C217.963 391.292 218.629 392.433 218.629 393.574C218.629 402.705 218.629 420.206 218.629 426.008C218.629 427.244 217.963 428.29 216.916 428.861C215.394 429.812 212.92 431.144 210.732 432.476C209.686 433.046 208.448 433.046 207.402 432.476C206.355 431.905 205.689 430.763 205.689 429.622C205.689 420.396 205.689 402.99 205.689 397.188Z" fill="#4B4B4B" stroke="black" stroke-width="0.7031" stroke-miterlimit="1.0547" stroke-linejoin="round"/>
<path fill-rule="evenodd" clip-rule="evenodd" d="M230.156 383.035C230.156 381.798 230.822 380.752 231.868 380.182C237.577 376.852 256.605 365.914 265.739 360.588C266.786 360.017 268.023 360.017 269.069 360.588C270.116 361.159 270.782 362.3 270.782 363.442C270.782 372.573 270.782 390.073 270.782 395.875C270.782 397.111 270.116 398.158 269.069 398.728C262.599 402.533 239.86 415.659 239.86 415.659C239.86 415.659 237.482 416.99 235.103 418.417C234.057 418.987 232.82 418.987 231.773 418.417C230.726 417.846 230.061 416.705 230.061 415.563C230.156 406.338 230.156 388.837 230.156 383.035Z" fill="#4B4B4B" stroke="black" stroke-width="0.7031" stroke-miterlimit="1.0547" stroke-linejoin="round"/>
<path fill-rule="evenodd" clip-rule="evenodd" d="M64.85 492.132C66.277 480.053 68.5602 467.689 72.1758 458.463C73.5077 454.849 74.9347 451.614 76.4573 448.571C76.4573 448.571 41.7301 428.407 41.6349 428.502C40.2078 431.546 38.6855 434.97 37.3535 438.489C33.8332 447.715 31.5498 460.079 30.0275 472.159C29.9324 472.349 64.85 492.132 64.85 492.132Z" fill="#282828" stroke="black" stroke-width="0.7031" stroke-miterlimit="1.0547" stroke-linejoin="round"/>
<path fill-rule="evenodd" clip-rule="evenodd" d="M64.8501 492.133C66.2771 480.054 68.5603 467.689 72.1759 458.464C73.5078 454.849 74.9353 451.615 76.4574 448.572C76.4574 448.572 45.0602 430.405 44.9651 430.5C43.5379 433.544 42.0156 436.968 40.6837 440.487C37.1634 449.713 34.8799 462.078 33.3576 474.157C33.2625 474.252 64.8501 492.133 64.8501 492.133Z" fill="#4B4B4B" stroke="black" stroke-width="0.7031" stroke-miterlimit="1.0547" stroke-linejoin="round"/>
<path fill-rule="evenodd" clip-rule="evenodd" d="M44.8242 421.81L79.5515 441.879L83.1666 434.936L48.4396 414.867L44.8242 421.81Z" fill="#1B1B1B" stroke="black" stroke-width="0.7031" stroke-miterlimit="1.0547" stroke-linejoin="round"/>
<path fill-rule="evenodd" clip-rule="evenodd" d="M57.1211 521.604V508.959L70.1557 516.471V529.121L57.1211 521.604Z" fill="white"/>
<path fill-rule="evenodd" clip-rule="evenodd" d="M19.4062 499.896V487.246L32.4408 494.76V507.408L19.4062 499.896Z" fill="white"/>
</g>
<defs>
<filter id="filter0_d" x="0" y="0" width="832.169" height="557.767" filterUnits="userSpaceOnUse" color-interpolation-filters="sRGB">
<feFlood flood-opacity="0" result="BackgroundImageFix"/>
<feColorMatrix in="SourceAlpha" type="matrix" values="0 0 0 0 0 0 0 0 0 0 0 0 0 0 0 0 0 0 127 0"/>
<feOffset dy="4"/>
<feGaussianBlur stdDeviation="5"/>
<feColorMatrix type="matrix" values="0 0 0 0 0 0 0 0 0 0 0 0 0 0 0 0 0 0 0.25 0"/>
<feBlend mode="normal" in2="BackgroundImageFix" result="effect1_dropShadow"/>
<feBlend mode="normal" in="SourceGraphic" in2="effect1_dropShadow" result="shape"/>
</filter>
<linearGradient id="paint0_linear" x1="664.204" y1="6" x2="664.204" y2="140.204" gradientUnits="userSpaceOnUse">
<stop stop-color="#A4A4A4"/>
<stop offset="1" stop-color="white" stop-opacity="0"/>
</linearGradient>
<linearGradient id="paint1_linear" x1="496.588" y1="102.699" x2="496.588" y2="236.903" gradientUnits="userSpaceOnUse">
<stop stop-color="#A4A4A4"/>
<stop offset="1" stop-color="white" stop-opacity="0"/>
</linearGradient>
<linearGradient id="paint2_linear" x1="329.73" y1="199.023" x2="329.73" y2="333.228" gradientUnits="userSpaceOnUse">
<stop stop-color="#A4A4A4"/>
<stop offset="1" stop-color="white" stop-opacity="0"/>
</linearGradient>
<linearGradient id="paint3_linear" x1="161.136" y1="296.949" x2="161.136" y2="431.153" gradientUnits="userSpaceOnUse">
<stop stop-color="#A4A4A4"/>
<stop offset="1" stop-color="white" stop-opacity="0"/>
</linearGradient>
</defs>
</svg>
