<svg width="252" height="592" viewBox="0 0 252 592" fill="none" xmlns="http://www.w3.org/2000/svg">
<path d="M94.1312 591.026L0 533.376L94.1312 479.109L192.308 533.376L94.1312 591.026Z" fill="black" fill-opacity="0.15"/>
<path d="M93.7852 570.538V494.723L157.625 458.621V532.888L93.7852 570.538Z" fill="#34352D"/>
<path d="M93.7817 494.482L158.016 459.409C155.914 457.556 152.42 450.818 144.223 447.981C136.026 445.144 135.816 438.129 136.736 434.977L93.7817 459.409V494.482Z" fill="url(#paint0_linear)"/>
<path d="M93.7847 494.876L29.5508 459.015C31.6396 457.174 35.5064 450.713 43.6528 447.895C51.7992 445.076 52.0081 438.108 51.0942 434.977L93.7847 459.247V494.876Z" fill="url(#paint1_linear)"/>
<path d="M29.1582 458.621L93.7862 495.101V570.538L29.1582 533.404V458.621Z" fill="url(#paint2_linear)"/>
<path d="M50.9863 221.268L93.4756 244.392V459.384L50.9863 435.01V221.268Z" fill="url(#paint3_linear)"/>
<path d="M58.4805 418.547V281.804L72.227 272.828L85.9735 295.991V431.946L72.227 439.385L58.4805 418.547Z" fill="#5F7B85"/>
<path d="M136.09 221.51L93.53 244.625V459.53L136.09 435.166V221.51Z" fill="url(#paint4_linear)"/>
<path d="M128.207 418.232V281.7L114.809 272.738L101.41 295.865V431.609L114.809 439.037L128.207 418.232Z" fill="url(#paint5_linear)"/>
<path d="M92.2168 259.214V172.187L165.514 130.746V215.997L92.2168 259.214Z" fill="#34352D"/>
<path d="M18.125 130.746L92.2107 172.621V259.214L18.125 216.589V130.746Z" fill="#6F6F6F"/>
<path d="M129.588 226.313C142.758 218.397 156.39 196.071 156.176 178.141C155.962 160.211 141.861 153.768 128.692 161.684C115.522 169.6 101.607 194.059 102.738 210.26C102.719 227.152 116.418 234.228 129.588 226.313Z" fill="#5E5A45"/>
<path d="M130.081 221.397C140.211 213.999 153.059 196.073 153.183 180.496C153.307 164.919 141.992 158.605 130.419 165.248C118.847 171.89 106.341 192.889 107.043 206.981C106.223 225.59 118.509 228.04 130.081 221.397Z" fill="#928E74"/>
<path d="M54.5764 225.969C41.2106 217.935 27.3759 195.277 27.5929 177.08C27.8099 158.883 42.1203 152.345 55.4861 160.378C68.8519 168.412 82.9735 193.235 81.8263 209.677C81.8453 226.821 67.9421 234.002 54.5764 225.969Z" fill="#8F8858"/>
<path d="M54.0805 220.98C43.7998 213.472 30.7611 195.279 30.6353 179.47C30.5094 163.661 41.9925 157.253 53.7375 163.995C65.4826 170.736 78.1739 192.047 77.4617 206.349C78.2935 225.235 65.8255 227.722 54.0805 220.98Z" fill="#CCC9B1"/>
<path d="M169.984 219.145V128.114L164.467 125.355V215.992L169.984 219.145Z" fill="#6F6F6F"/>
<path d="M92.8522 173.764L10.373 127.516L92.2273 79.3926L174.706 127.516L92.8522 173.764Z" fill="#909090"/>
<path d="M14.7188 220.719V129.688L20.2358 126.93V217.172L14.7188 220.719Z" fill="#34352D"/>
<path d="M92.8732 257.762L20.2376 217.172L14.7206 220.719L92.8732 264.461L92.8732 257.762Z" fill="#909190"/>
<path d="M92.4724 257.929L164.471 215.99L169.988 218.749L92.4724 264.57L92.4724 257.929Z" fill="#6F6F6F"/>
<path d="M101.076 86.5469C101.076 89.262 96.9185 91.4631 91.79 91.4631C86.6614 91.4631 82.5039 89.262 82.5039 86.5469C82.5039 83.8318 86.6614 81.6307 91.79 81.6307C96.9185 81.6307 101.076 83.8318 101.076 86.5469Z" fill="#6F6F6F"/>
<path d="M82.5039 41.209H101.076V87.0931H82.5039V41.209Z" fill="#6F6F6F"/>
<ellipse cx="91.79" cy="41.2072" rx="9.28608" ry="4.91616" fill="#909090"/>
<path d="M89.5948 41.4782C89.5948 42.0988 90.5451 42.6019 91.7173 42.6019C92.8896 42.6019 93.8398 42.0988 93.8398 41.4782C93.8398 40.8576 92.8896 40.3545 91.7173 40.3545C90.5451 40.3545 89.5948 40.8576 89.5948 41.4782Z" fill="#6F6F6F"/>
<path d="M93.8398 31.1152H89.5948V41.603H93.8398V31.1152Z" fill="#6F6F6F"/>
<ellipse rx="2.12253" ry="1.12369" transform="matrix(-1 0 0 1 91.7173 31.1139)" fill="#909090"/>
<path d="M24.6288 129.897C24.6288 132.612 20.4713 134.813 15.3427 134.813C10.2142 134.813 6.05664 132.612 6.05664 129.897C6.05664 127.181 10.2142 124.98 15.3427 124.98C20.4713 124.98 24.6288 127.181 24.6288 129.897Z" fill="url(#paint6_linear)"/>
<path d="M6.05664 84.5586H24.6288V130.443H6.05664V84.5586Z" fill="url(#paint7_linear)"/>
<ellipse cx="15.3427" cy="84.5548" rx="9.28608" ry="4.91616" fill="#909090"/>
<path d="M13.1534 84.82C13.1534 85.4406 14.1037 85.9437 15.2759 85.9437C16.4481 85.9437 17.3984 85.4406 17.3984 84.82C17.3984 84.1994 16.4481 83.6963 15.2759 83.6963C14.1037 83.6963 13.1534 84.1994 13.1534 84.82Z" fill="#6F6F6F"/>
<path d="M17.3984 74.457H13.1534V84.9448H17.3984V74.457Z" fill="#6F6F6F"/>
<ellipse rx="2.12253" ry="1.12369" transform="matrix(-1 0 0 1 15.2759 74.4596)" fill="#909090"/>
<path d="M173.59 128.318C173.59 131.034 169.432 133.235 164.304 133.235C159.175 133.235 155.018 131.034 155.018 128.318C155.018 125.603 159.175 123.402 164.304 123.402C169.432 123.402 173.59 125.603 173.59 128.318Z" fill="url(#paint8_linear)"/>
<path d="M155.018 82.9805H173.59V128.865H155.018V82.9805Z" fill="url(#paint9_linear)"/>
<ellipse cx="164.304" cy="82.9806" rx="9.28608" ry="4.91616" fill="#909090"/>
<path d="M162.108 83.2458C162.108 83.8664 163.059 84.3695 164.231 84.3695C165.403 84.3695 166.354 83.8664 166.354 83.2458C166.354 82.6252 165.403 82.1221 164.231 82.1221C163.059 82.1221 162.108 82.6252 162.108 83.2458Z" fill="#6F6F6F"/>
<path d="M166.354 72.8828H162.108V83.3706H166.354V72.8828Z" fill="#6F6F6F"/>
<ellipse rx="2.12253" ry="1.12369" transform="matrix(-1 0 0 1 164.231 72.8815)" fill="#909090"/>
<path d="M91.5974 163.179L24.5801 125.742L43.9422 115.842L60.9136 105.919L76.9918 91.0346L85.0309 59.6113L88.9418 56.6562H91.4704L91.5974 163.179Z" fill="url(#paint10_linear)"/>
<path d="M91.1756 163.179L158.168 125.785L138.813 115.897L121.848 105.986L105.776 91.1181L97.7396 59.731L93.8301 56.7793H91.3024L91.1756 163.179Z" fill="url(#paint11_linear)"/>
<path d="M102.648 174.027C102.648 176.742 98.4908 178.944 93.3622 178.944C88.2337 178.944 84.0762 176.742 84.0762 174.027C84.0762 171.312 88.2337 169.111 93.3622 169.111C98.4908 169.111 102.648 171.312 102.648 174.027Z" fill="url(#paint12_linear)"/>
<path d="M84.0762 128.689H102.648V174.574H84.0762V128.689Z" fill="url(#paint13_linear)"/>
<ellipse cx="93.3623" cy="128.688" rx="9.28608" ry="4.91616" fill="#909090"/>
<path d="M91.1729 128.953C91.1729 129.573 92.1232 130.076 93.2954 130.076C94.4677 130.076 95.418 129.573 95.418 128.953C95.418 128.332 94.4677 127.829 93.2954 127.829C92.1232 127.829 91.1729 128.332 91.1729 128.953Z" fill="#6F6F6F"/>
<path d="M95.418 118.59H91.1729V129.078H95.418V118.59Z" fill="#6F6F6F"/>
<ellipse rx="2.12253" ry="1.12369" transform="matrix(-1 0 0 1 93.2954 118.592)" fill="#909090"/>
<path d="M100.291 56.5918C100.291 59.3069 96.1334 61.508 91.0048 61.508C85.8763 61.508 81.7188 59.3069 81.7188 56.5918C81.7188 53.8767 85.8763 51.6757 91.0048 51.6757C96.1334 51.6757 100.291 53.8767 100.291 56.5918Z" fill="url(#paint14_linear)"/>
<path d="M81.7188 11.2539H100.291V57.1381H81.7188V11.2539Z" fill="url(#paint15_linear)"/>
<ellipse cx="91.0048" cy="11.2521" rx="9.28608" ry="4.91616" fill="#909090"/>
<path d="M88.8194 11.5192C88.8194 12.1398 89.7697 12.6429 90.9419 12.6429C92.1142 12.6429 93.0645 12.1398 93.0645 11.5192C93.0645 10.8986 92.1142 10.3955 90.9419 10.3955C89.7697 10.3955 88.8194 10.8986 88.8194 11.5192Z" fill="#6F6F6F"/>
<path d="M93.0645 1.15625H88.8194V11.6441H93.0645V1.15625Z" fill="#6F6F6F"/>
<ellipse rx="2.12253" ry="1.12369" transform="matrix(-1 0 0 1 90.9419 1.1569)" fill="#909090"/>
<path d="M245.348 44.3683L251.732 64.8945C251.732 71.2768 234.17 80.5555 227.79 80.5555H197.387C191.006 80.5555 185.834 85.729 185.834 92.1113C185.834 98.4936 180.662 103.667 174.281 103.667H137.189C130.808 103.667 125.636 108.841 125.636 115.223V117.722C125.636 124.104 120.464 129.277 114.083 129.277H59.7915L28.2738 140.613L17.7849 136.052L8.20813 129.277L2.27963 122.824L-0.000549316 114.157V100.929C-0.000549316 85.3103 12.6582 72.6488 28.2738 72.6488L57.9911 72.6488C73.6067 72.6488 86.2654 59.9874 86.2654 44.3683L97.1355 29.3157L117.657 21.1052L160.981 17L207.953 21.1052L227.79 29.3157L245.348 44.3683Z" fill="#FBF8F3" fill-opacity="0.24"/>
<defs>
<linearGradient id="paint0_linear" x1="152.499" y1="328.971" x2="147.77" y2="512.215" gradientUnits="userSpaceOnUse">
<stop stop-color="#95AC9E"/>
<stop offset="1" stop-color="#34352D"/>
</linearGradient>
<linearGradient id="paint1_linear" x1="11.8175" y1="412.12" x2="104.452" y2="573.28" gradientUnits="userSpaceOnUse">
<stop stop-color="#95AC9E"/>
<stop offset="1" stop-color="#34352D"/>
</linearGradient>
<linearGradient id="paint2_linear" x1="32.3108" y1="458.621" x2="90.6336" y2="552.41" gradientUnits="userSpaceOnUse">
<stop offset="0.0586993" stop-color="#6F6F6F"/>
<stop offset="1" stop-color="#34352D"/>
</linearGradient>
<linearGradient id="paint3_linear" x1="37.1776" y1="205.748" x2="110.475" y2="459.531" gradientUnits="userSpaceOnUse">
<stop stop-color="#6F6F6F"/>
<stop offset="1" stop-color="#34352D"/>
</linearGradient>
<linearGradient id="paint4_linear" x1="119.008" y1="434.581" x2="156.051" y2="503.543" gradientUnits="userSpaceOnUse">
<stop stop-color="#34352D"/>
<stop offset="1" stop-color="#6F6F6F"/>
</linearGradient>
<linearGradient id="paint5_linear" x1="114.809" y1="272.738" x2="114.809" y2="439.037" gradientUnits="userSpaceOnUse">
<stop stop-color="#5F7B85"/>
<stop offset="1" stop-color="#4A5154"/>
</linearGradient>
<linearGradient id="paint6_linear" x1="15.3427" y1="84.5586" x2="24.9721" y2="155.699" gradientUnits="userSpaceOnUse">
<stop stop-color="#6F6F6F"/>
<stop offset="1" stop-color="#34352D"/>
</linearGradient>
<linearGradient id="paint7_linear" x1="15.3427" y1="84.5586" x2="24.9721" y2="155.699" gradientUnits="userSpaceOnUse">
<stop stop-color="#6F6F6F"/>
<stop offset="1" stop-color="#34352D"/>
</linearGradient>
<linearGradient id="paint8_linear" x1="164.304" y1="82.9805" x2="164.304" y2="133.235" gradientUnits="userSpaceOnUse">
<stop stop-color="#6F6F6F"/>
<stop offset="1" stop-color="#505149"/>
</linearGradient>
<linearGradient id="paint9_linear" x1="164.304" y1="82.9805" x2="164.304" y2="133.235" gradientUnits="userSpaceOnUse">
<stop stop-color="#6F6F6F"/>
<stop offset="1" stop-color="#505149"/>
</linearGradient>
<linearGradient id="paint10_linear" x1="49.0126" y1="74.118" x2="80.5385" y2="163.179" gradientUnits="userSpaceOnUse">
<stop stop-color="#AFC4B7"/>
<stop offset="1" stop-color="#34352D"/>
</linearGradient>
<linearGradient id="paint11_linear" x1="121.913" y1="52.8386" x2="145.164" y2="180.912" gradientUnits="userSpaceOnUse">
<stop stop-color="#95AC9E"/>
<stop offset="1" stop-color="#34352D"/>
</linearGradient>
<linearGradient id="paint12_linear" x1="93.3622" y1="128.689" x2="93.5339" y2="227.809" gradientUnits="userSpaceOnUse">
<stop stop-color="#6F6F6F"/>
<stop offset="1" stop-color="#34352D"/>
</linearGradient>
<linearGradient id="paint13_linear" x1="93.3622" y1="128.689" x2="93.5339" y2="227.809" gradientUnits="userSpaceOnUse">
<stop stop-color="#6F6F6F"/>
<stop offset="1" stop-color="#34352D"/>
</linearGradient>
<linearGradient id="paint14_linear" x1="91.1765" y1="-7.45482" x2="91.1765" y2="110.373" gradientUnits="userSpaceOnUse">
<stop stop-color="#9AAA9F"/>
<stop offset="1" stop-color="#5A6359"/>
</linearGradient>
<linearGradient id="paint15_linear" x1="91.1765" y1="-7.45482" x2="91.1765" y2="110.373" gradientUnits="userSpaceOnUse">
<stop stop-color="#9AAA9F"/>
<stop offset="1" stop-color="#5A6359"/>
</linearGradient>
</defs>
</svg>
